<svg width="300" height="134" viewBox="0 0 427 192" fill="none" xmlns="http://www.w3.org/2000/svg">
<path d="M211.353 73.412C139.761 73.412 52.827 99.2603 52.827 99.2603C52.827 99.2603 115.044 87.0793 211.353 87.0793C307.662 87.0793 373.289 99.2603 373.289 99.2603C373.289 99.2603 282.946 73.412 211.353 73.412Z" fill="url(#paint0_radial_1062_46)"/>
<path d="M69.3714 123.306C69.7165 123.306 70.0063 123.436 70.2409 123.696L72.7045 126.447C71.49 128.064 69.9787 129.292 68.1707 130.129C66.3765 130.967 64.2373 131.386 61.753 131.386C59.5034 131.386 57.4814 130.989 55.6873 130.194C53.8931 129.386 52.368 128.266 51.1121 126.837C49.8561 125.407 48.89 123.71 48.2138 121.746C47.5375 119.782 47.1993 117.637 47.1993 115.312C47.1993 113.753 47.3581 112.272 47.6755 110.871C48.0067 109.456 48.4829 108.156 49.1039 106.972C49.725 105.788 50.4703 104.719 51.3398 103.766C52.2231 102.813 53.2168 102.004 54.3209 101.34C55.425 100.661 56.6258 100.148 57.9231 99.8018C59.2342 99.4408 60.6282 99.2603 62.1049 99.2603C63.2091 99.2603 64.2511 99.3614 65.231 99.5636C66.2247 99.7657 67.1494 100.047 68.0051 100.408C68.8608 100.769 69.6475 101.21 70.3651 101.73C71.0966 102.235 71.7522 102.791 72.3318 103.398L70.2409 106.387C70.1167 106.575 69.958 106.741 69.7648 106.885C69.5715 107.03 69.3093 107.102 68.9781 107.102C68.6468 107.102 68.3087 106.979 67.9637 106.734C67.6324 106.488 67.2184 106.214 66.7215 105.911C66.2385 105.607 65.6243 105.333 64.879 105.088C64.1476 104.842 63.216 104.719 62.0842 104.719C60.8283 104.719 59.6759 104.958 58.627 105.434C57.5781 105.911 56.6741 106.604 55.915 107.514C55.1697 108.409 54.59 109.514 54.176 110.828C53.7619 112.142 53.5549 113.637 53.5549 115.312C53.5549 117.002 53.7757 118.511 54.2174 119.84C54.6728 121.154 55.287 122.266 56.0599 123.176C56.8466 124.086 57.7575 124.779 58.7926 125.255C59.8415 125.717 60.9594 125.948 62.1463 125.948C62.8502 125.948 63.4851 125.912 64.051 125.84C64.6306 125.768 65.162 125.645 65.645 125.472C66.1419 125.299 66.6042 125.075 67.0321 124.8C67.4737 124.526 67.9154 124.179 68.357 123.761C68.5088 123.631 68.6676 123.522 68.8332 123.436C68.9988 123.349 69.1782 123.306 69.3714 123.306Z" fill="black"/>
<path d="M104.588 115.312C104.588 117.608 104.216 119.739 103.47 121.703C102.739 123.667 101.697 125.364 100.344 126.793C99.0055 128.223 97.3907 129.35 95.4999 130.173C93.6091 130.981 91.5113 131.386 89.2064 131.386C86.9016 131.386 84.8037 130.981 82.9129 130.173C81.0221 129.35 79.4005 128.223 78.0479 126.793C76.6954 125.364 75.6465 123.667 74.9012 121.703C74.1697 119.739 73.804 117.608 73.804 115.312C73.804 113.016 74.1697 110.893 74.9012 108.943C75.6465 106.979 76.6954 105.282 78.0479 103.853C79.4005 102.423 81.0221 101.304 82.9129 100.495C84.8037 99.6719 86.9016 99.2603 89.2064 99.2603C91.5113 99.2603 93.6091 99.6719 95.4999 100.495C97.3907 101.304 99.0055 102.43 100.344 103.874C101.697 105.304 102.739 107.001 103.47 108.965C104.216 110.915 104.588 113.03 104.588 115.312ZM98.2326 115.312C98.2326 113.666 98.0256 112.193 97.6115 110.893C97.1975 109.579 96.5971 108.467 95.8104 107.557C95.0376 106.633 94.0921 105.932 92.9742 105.456C91.8701 104.965 90.6142 104.719 89.2064 104.719C87.7987 104.719 86.5358 104.965 85.4179 105.456C84.3 105.932 83.3477 106.633 82.561 107.557C81.7881 108.467 81.1947 109.579 80.7806 110.893C80.3666 112.193 80.1595 113.666 80.1595 115.312C80.1595 116.973 80.3666 118.46 80.7806 119.775C81.1947 121.074 81.7881 122.179 82.561 123.089C83.3477 123.999 84.3 124.699 85.4179 125.19C86.5358 125.667 87.7987 125.905 89.2064 125.905C90.6142 125.905 91.8701 125.667 92.9742 125.19C94.0921 124.699 95.0376 123.999 95.8104 123.089C96.5971 122.179 97.1975 121.074 97.6115 119.775C98.0256 118.46 98.2326 116.973 98.2326 115.312Z" fill="black"/>
<path d="M134.857 99.6069V131.039H131.648C131.165 131.039 130.758 130.96 130.427 130.801C130.095 130.628 129.771 130.339 129.453 129.934L114.486 110.005C114.527 110.51 114.555 111.009 114.569 111.5C114.596 111.991 114.61 112.446 114.61 112.864V131.039H109.124V99.6069H112.395C112.657 99.6069 112.878 99.6213 113.057 99.6502C113.251 99.6647 113.423 99.7152 113.575 99.8018C113.727 99.8741 113.872 99.9751 114.01 100.105C114.148 100.235 114.299 100.408 114.465 100.625L129.536 120.641C129.481 120.092 129.44 119.565 129.412 119.06C129.384 118.54 129.371 118.049 129.371 117.587V99.6069H134.857Z" fill="black"/>
<path d="M157.42 105.629C157.226 105.961 157.026 106.207 156.819 106.366C156.626 106.51 156.371 106.582 156.053 106.582C155.75 106.582 155.418 106.474 155.06 106.257C154.715 106.026 154.307 105.781 153.838 105.521C153.369 105.261 152.831 105.023 152.223 104.806C151.616 104.575 150.905 104.459 150.091 104.459C148.656 104.459 147.579 104.799 146.861 105.477C146.144 106.142 145.785 107.015 145.785 108.099C145.785 108.792 145.978 109.369 146.365 109.832C146.765 110.279 147.282 110.669 147.917 111.001C148.566 111.334 149.297 111.63 150.112 111.89C150.926 112.149 151.761 112.438 152.617 112.756C153.472 113.059 154.307 113.42 155.122 113.839C155.936 114.258 156.661 114.785 157.295 115.421C157.944 116.056 158.462 116.836 158.848 117.76C159.248 118.67 159.448 119.782 159.448 121.096C159.448 122.526 159.207 123.869 158.724 125.125C158.255 126.367 157.571 127.458 156.674 128.396C155.777 129.321 154.666 130.05 153.341 130.584C152.03 131.119 150.54 131.386 148.87 131.386C147.917 131.386 146.965 131.285 146.013 131.083C145.074 130.88 144.163 130.599 143.28 130.238C142.41 129.877 141.589 129.443 140.816 128.938C140.044 128.432 139.367 127.869 138.788 127.248L140.609 124.172C140.761 123.941 140.961 123.753 141.21 123.609C141.458 123.45 141.72 123.371 141.996 123.371C142.369 123.371 142.762 123.515 143.176 123.804C143.591 124.093 144.067 124.41 144.605 124.757C145.143 125.104 145.764 125.421 146.468 125.71C147.186 125.999 148.041 126.143 149.035 126.143C150.484 126.143 151.602 125.797 152.389 125.104C153.189 124.41 153.59 123.378 153.59 122.006C153.59 121.212 153.39 120.569 152.989 120.078C152.603 119.587 152.092 119.175 151.457 118.843C150.823 118.511 150.098 118.229 149.284 117.998C148.469 117.753 147.634 117.486 146.779 117.197C145.923 116.908 145.088 116.561 144.274 116.157C143.459 115.753 142.735 115.218 142.1 114.554C141.465 113.89 140.948 113.067 140.547 112.084C140.161 111.102 139.968 109.882 139.968 108.424C139.968 107.254 140.188 106.12 140.63 105.023C141.072 103.925 141.72 102.95 142.576 102.098C143.432 101.246 144.481 100.56 145.723 100.04C146.979 99.5202 148.414 99.2603 150.029 99.2603C151.837 99.2603 153.507 99.5563 155.039 100.148C156.585 100.726 157.889 101.535 158.952 102.575L157.42 105.629Z" fill="black"/>
<path d="M185.214 104.849H176.436V131.039H170.205V104.849H161.427V99.6069H185.214V104.849Z" fill="black"/>
<path d="M195.193 104.698V112.778H205.213V117.695H195.193V125.948H208.07V131.039H188.941V99.6069H208.07V104.698H195.193Z" fill="black"/>
<path d="M230.541 125.754V131.039H212.716V99.6069H218.927V125.754H230.541Z" fill="black"/>
<path d="M252.173 125.754V131.039H234.348V99.6069H240.559V125.754H252.173Z" fill="black"/>
<path d="M271.838 119.103L268.588 109.485C268.395 108.98 268.188 108.387 267.967 107.709C267.76 107.03 267.56 106.293 267.367 105.499C267.173 106.308 266.966 107.059 266.745 107.752C266.538 108.431 266.338 109.023 266.145 109.528L262.916 119.103H271.838ZM282.272 131.039H277.449C276.91 131.039 276.469 130.909 276.124 130.649C275.792 130.375 275.544 130.028 275.378 129.609L273.349 123.609H261.384L259.355 129.609C259.217 129.971 258.975 130.303 258.63 130.606C258.285 130.895 257.85 131.039 257.326 131.039H252.461L264.199 99.6069H270.555L282.272 131.039Z" fill="black"/>
<path d="M303.362 104.849H294.584V131.039H288.353V104.849H279.575V99.6069H303.362V104.849Z" fill="black"/>
<path d="M313.341 131.039H307.089V99.6069H313.341V131.039Z" fill="black"/>
<path d="M348.648 115.312C348.648 117.608 348.275 119.739 347.53 121.703C346.799 123.667 345.757 125.364 344.404 126.793C343.065 128.223 341.451 129.35 339.56 130.173C337.669 130.981 335.571 131.386 333.266 131.386C330.961 131.386 328.864 130.981 326.973 130.173C325.082 129.35 323.46 128.223 322.108 126.793C320.755 125.364 319.706 123.667 318.961 121.703C318.23 119.739 317.864 117.608 317.864 115.312C317.864 113.016 318.23 110.893 318.961 108.943C319.706 106.979 320.755 105.282 322.108 103.853C323.46 102.423 325.082 101.304 326.973 100.495C328.864 99.6719 330.961 99.2603 333.266 99.2603C335.571 99.2603 337.669 99.6719 339.56 100.495C341.451 101.304 343.065 102.43 344.404 103.874C345.757 105.304 346.799 107.001 347.53 108.965C348.275 110.915 348.648 113.03 348.648 115.312ZM342.292 115.312C342.292 113.666 342.085 112.193 341.671 110.893C341.257 109.579 340.657 108.467 339.87 107.557C339.097 106.633 338.152 105.932 337.034 105.456C335.93 104.965 334.674 104.719 333.266 104.719C331.859 104.719 330.596 104.965 329.478 105.456C328.36 105.932 327.408 106.633 326.621 107.557C325.848 108.467 325.254 109.579 324.84 110.893C324.426 112.193 324.219 113.666 324.219 115.312C324.219 116.973 324.426 118.46 324.84 119.775C325.254 121.074 325.848 122.179 326.621 123.089C327.408 123.999 328.36 124.699 329.478 125.19C330.596 125.667 331.859 125.905 333.266 125.905C334.674 125.905 335.93 125.667 337.034 125.19C338.152 124.699 339.097 123.999 339.87 123.089C340.657 122.179 341.257 121.074 341.671 119.775C342.085 118.46 342.292 116.973 342.292 115.312Z" fill="black"/>
<path d="M378.917 99.6069V131.039H375.708C375.225 131.039 374.818 130.96 374.486 130.801C374.155 130.628 373.831 130.339 373.513 129.934L358.546 110.005C358.587 110.51 358.615 111.009 358.628 111.5C358.656 111.991 358.67 112.446 358.67 112.864V131.039H353.184V99.6069H356.455C356.717 99.6069 356.938 99.6213 357.117 99.6502C357.31 99.6647 357.483 99.7152 357.635 99.8018C357.787 99.8741 357.931 99.9751 358.069 100.105C358.207 100.235 358.359 100.408 358.525 100.625L373.596 120.641C373.541 120.092 373.5 119.565 373.472 119.06C373.444 118.54 373.431 118.049 373.431 117.587V99.6069H378.917Z" fill="black"/>
<path d="M109.442 156.55C109.1 156.55 108.929 156.362 108.929 155.986V142.41C108.929 142.034 109.1 141.846 109.442 141.846H113.749C116.073 141.846 117.642 142.239 118.455 143.025C119.269 143.804 119.676 144.877 119.676 146.245C119.676 147.612 119.269 148.688 118.455 149.475C117.642 150.254 116.073 150.643 113.749 150.643H110.898V155.986C110.898 156.362 110.727 156.55 110.386 156.55H109.442ZM110.898 148.962H113.78C115.283 148.962 116.309 148.75 116.856 148.326C117.403 147.895 117.676 147.202 117.676 146.245C117.676 145.288 117.403 144.597 116.856 144.173C116.309 143.743 115.283 143.527 113.78 143.527H110.898V148.962ZM143.329 156.55C142.987 156.55 142.817 156.362 142.817 155.986V142.41C142.817 142.034 142.987 141.846 143.329 141.846H148.282C150.258 141.846 151.686 142.215 152.568 142.953C153.457 143.691 153.901 144.665 153.901 145.875C153.901 146.942 153.542 147.837 152.824 148.562C152.113 149.287 151.098 149.704 149.779 149.813V149.833C150.476 150.353 150.938 150.749 151.163 151.023C151.389 151.289 151.642 151.652 151.922 152.11L154.239 155.873C154.52 156.324 154.458 156.55 154.055 156.55H152.886C152.565 156.55 152.325 156.416 152.168 156.15L150.035 152.489C149.728 151.963 149.287 151.447 148.713 150.941C148.138 150.435 147.424 150.182 146.57 150.182H144.785V155.986C144.785 156.362 144.614 156.55 144.273 156.55H143.329ZM144.785 148.5H147.749C149.082 148.5 150.107 148.326 150.825 147.977C151.543 147.622 151.902 146.88 151.902 145.752C151.902 144.891 151.573 144.307 150.917 143.999C150.261 143.684 149.369 143.527 148.241 143.527H144.785V148.5ZM176.786 149.198C176.786 146.805 177.374 144.932 178.549 143.579C179.732 142.218 181.434 141.538 183.656 141.538C185.878 141.538 187.576 142.218 188.752 143.579C189.935 144.932 190.526 146.805 190.526 149.198C190.526 151.59 189.935 153.467 188.752 154.827C187.576 156.181 185.878 156.857 183.656 156.857C181.434 156.857 179.732 156.181 178.549 154.827C177.374 153.467 176.786 151.59 176.786 149.198ZM178.888 149.198C178.888 151.112 179.281 152.602 180.067 153.668C180.853 154.728 182.049 155.258 183.656 155.258C185.262 155.258 186.459 154.728 187.245 153.668C188.031 152.602 188.424 151.112 188.424 149.198C188.424 147.284 188.031 145.797 187.245 144.737C186.459 143.671 185.262 143.138 183.656 143.138C182.049 143.138 180.853 143.671 180.067 144.737C179.281 145.797 178.888 147.284 178.888 149.198ZM212.816 156.252C212.501 156.081 212.406 155.859 212.529 155.586L212.867 154.858C213.018 154.53 213.267 154.482 213.616 154.714C214.169 155.077 214.723 155.258 215.277 155.258C215.94 155.258 216.371 155.036 216.569 154.591C216.767 154.14 216.866 153.501 216.866 152.674V142.41C216.866 142.034 217.037 141.846 217.379 141.846H218.322C218.664 141.846 218.835 142.034 218.835 142.41V152.438C218.835 153.791 218.623 154.868 218.199 155.668C217.775 156.461 216.784 156.857 215.226 156.857C214.371 156.857 213.568 156.656 212.816 156.252ZM243.124 156.55C242.783 156.55 242.612 156.362 242.612 155.986V142.41C242.612 142.034 242.783 141.846 243.124 141.846H252.097C252.473 141.846 252.661 141.999 252.661 142.307V143.066C252.661 143.373 252.473 143.527 252.097 143.527H244.58V148.08H251.481C251.857 148.08 252.045 148.234 252.045 148.541V149.3C252.045 149.608 251.857 149.762 251.481 149.762H244.58V154.868H252.404C252.78 154.868 252.968 155.022 252.968 155.329V156.088C252.968 156.396 252.78 156.55 252.404 156.55H243.124ZM275.309 149.198C275.309 146.805 275.901 144.932 277.083 143.579C278.273 142.218 279.978 141.538 282.2 141.538C283.499 141.538 284.572 141.76 285.42 142.204C286.267 142.642 286.876 143.244 287.245 144.009C287.436 144.406 287.406 144.679 287.153 144.829L286.343 145.301C286.069 145.458 285.826 145.329 285.615 144.912C285.389 144.481 285.02 144.078 284.507 143.702C283.994 143.326 283.26 143.138 282.303 143.138C280.594 143.138 279.349 143.671 278.57 144.737C277.798 145.797 277.411 147.284 277.411 149.198C277.411 151.112 277.798 152.602 278.57 153.668C279.349 154.728 280.594 155.258 282.303 155.258C283.287 155.258 284.073 155.032 284.661 154.581C285.256 154.13 285.686 153.658 285.953 153.166C286.165 152.769 286.411 152.65 286.691 152.807L287.542 153.289C287.788 153.433 287.809 153.706 287.604 154.109C287.2 154.895 286.544 155.552 285.635 156.078C284.726 156.598 283.581 156.857 282.2 156.857C279.978 156.857 278.273 156.181 277.083 154.827C275.901 153.467 275.309 151.59 275.309 149.198ZM310.15 143.609C309.774 143.609 309.586 143.455 309.586 143.148V142.307C309.586 141.999 309.774 141.846 310.15 141.846H320.999C321.375 141.846 321.563 141.999 321.563 142.307V143.148C321.563 143.455 321.375 143.609 320.999 143.609H316.559V155.986C316.559 156.362 316.388 156.55 316.046 156.55H315.103C314.761 156.55 314.59 156.362 314.59 155.986V143.609H310.15Z" fill="black"/>
<path d="M222.515 48.9189C222.867 48.8144 223.133 48.5255 223.209 48.1662L225.576 36.9154C225.598 36.8095 225.75 36.8098 225.772 36.9156C226.682 41.2393 227.236 43.8722 228.139 48.165C228.214 48.5242 228.481 48.8144 228.833 48.9189L238.29 51.7282C238.386 51.7565 238.386 51.8916 238.29 51.9199L228.833 54.7291C228.481 54.8337 228.215 55.1226 228.139 55.4818L225.772 66.7327C225.75 66.8386 225.598 66.8386 225.576 66.7327L223.209 55.4818C223.133 55.1226 222.867 54.8337 222.515 54.7291L213.058 51.9199C212.963 51.8916 212.963 51.7565 213.058 51.7282L222.515 48.9189Z" fill="black"/>
<path d="M193.829 54.5532C194.166 54.4299 194.411 54.1358 194.471 53.7824L196.124 44.1002C196.143 43.9893 196.302 43.9906 196.321 44.1015C196.951 47.7901 197.343 50.091 197.973 53.7812C198.033 54.1346 198.278 54.4299 198.615 54.5532L205.208 56.9678C205.295 56.9998 205.295 57.1235 205.208 57.1556L198.615 59.5701C198.278 59.6934 198.033 59.9875 197.973 60.3409L196.321 70.0231C196.302 70.134 196.143 70.134 196.124 70.0231L194.471 60.3409C194.411 59.9875 194.166 59.6934 193.829 59.5701L187.237 57.1556C187.149 57.1235 187.149 56.9998 187.237 56.9678L193.829 54.5532Z" fill="black"/>
<path d="M250.755 62.1077C251.089 61.9826 251.332 61.6884 251.391 61.3359L252.491 54.7587C252.509 54.6474 252.67 54.6478 252.688 54.7591C253.103 57.2387 253.373 58.8514 253.788 61.3357C253.847 61.6882 254.09 61.9826 254.424 62.1077L258.808 63.746C258.895 63.7784 258.895 63.901 258.808 63.9334L254.424 65.5717C254.09 65.6968 253.847 65.991 253.788 66.3435L252.688 72.9207C252.669 73.0321 252.509 73.0321 252.491 72.9207L251.391 66.3435C251.332 65.991 251.089 65.6968 250.755 65.5717L246.371 63.9334C246.284 63.901 246.284 63.7784 246.371 63.746L250.755 62.1077Z" fill="black"/>
<path d="M263.584 54.4565C263.918 54.3314 264.161 54.0372 264.22 53.6848L264.96 49.258C264.979 49.1467 265.139 49.1467 265.158 49.258C265.433 50.9049 265.622 52.0335 265.898 53.6846C265.957 54.037 266.199 54.3314 266.534 54.4565L269.479 55.5572C269.566 55.5896 269.566 55.7122 269.479 55.7446L266.534 56.8452C266.199 56.9703 265.957 57.2646 265.898 57.617L265.158 62.0437C265.139 62.1551 264.979 62.1551 264.96 62.0437L264.22 57.617C264.161 57.2646 263.918 56.9703 263.584 56.8452L260.638 55.7446C260.552 55.7122 260.552 55.5896 260.638 55.5572L263.584 54.4565Z" fill="black"/>
<circle cx="183.495" cy="66.7061" r="2.07263" fill="black"/>
<circle cx="272.743" cy="70.4629" r="1.68408" fill="black"/>
<circle cx="244.436" cy="47.4579" r="1.68408" fill="black"/>
<circle cx="156.375" cy="58.7458" r="1.68408" fill="black"/>
<circle cx="236.929" cy="67.2443" r="1.68408" fill="black"/>
<circle cx="203.78" cy="41.8385" r="1.68408" fill="black"/>
<path d="M168.32 62.7776C168.654 62.6525 168.897 62.3583 168.956 62.0058L170.056 55.4286C170.074 55.3172 170.235 55.3176 170.253 55.429C170.668 57.9086 170.938 59.5213 171.353 62.0056C171.412 62.3581 171.655 62.6525 171.989 62.7776L176.373 64.4159C176.46 64.4483 176.46 64.5709 176.373 64.6033L171.989 66.2416C171.655 66.3667 171.412 66.6609 171.353 67.0134L170.253 73.5906C170.234 73.702 170.074 73.702 170.056 73.5906L168.956 67.0134C168.897 66.6609 168.654 66.3667 168.32 66.2416L163.936 64.6033C163.849 64.5709 163.849 64.4483 163.936 64.4159L168.32 62.7776Z" fill="black"/>
<defs>
<radialGradient id="paint0_radial_1062_46" cx="0" cy="0" r="1" gradientUnits="userSpaceOnUse" gradientTransform="translate(213.058 32.7159) rotate(90) scale(98.7105 133.926)">
<stop/>
<stop offset="1"/>
</radialGradient>
</defs>
</svg>
