<?xml version="1.0" standalone="no"?>
<!DOCTYPE svg PUBLIC "-//W3C//DTD SVG 20010904//EN"
 "http://www.w3.org/TR/2001/REC-SVG-20010904/DTD/svg10.dtd">
<svg version="1.0" xmlns="http://www.w3.org/2000/svg"
 width="28.0" height="28.0" viewBox="0 0 900.000000 950.000000"
 preserveAspectRatio="xMidYMid meet">
<metadata>
Created by potrace 1.10, written by Peter Selinger 2001-2011
</metadata>
<g transform="translate(0.000000,894.000000) scale(0.100000,-0.100000)"
fill="#09357a" stroke="none">
<path d="M3983 8852 c-18 -26 -33 -53 -33 -60 0 -6 -4 -12 -9 -12 -5 0 -13
-10 -17 -22 -3 -12 -19 -39 -35 -61 -16 -22 -29 -46 -29 -53 0 -7 -4 -14 -8
-16 -7 -2 -30 -39 -105 -163 -7 -11 -23 -38 -37 -60 -14 -22 -29 -48 -33 -58
-6 -17 -8 -17 -39 -1 -18 9 -49 30 -69 45 -20 16 -40 29 -43 29 -3 0 -42 26
-85 58 -44 31 -109 77 -145 102 -36 25 -89 62 -118 83 -62 45 -85 47 -93 10
-4 -16 -13 -43 -21 -61 -8 -18 -14 -40 -14 -50 0 -9 -7 -26 -15 -36 -8 -11
-15 -29 -15 -40 0 -12 -7 -30 -15 -40 -8 -11 -15 -30 -15 -43 0 -21 -16 -66
-46 -126 -8 -16 -14 -37 -14 -47 0 -10 -7 -31 -15 -46 -8 -16 -15 -38 -15 -50
0 -21 -28 -54 -46 -54 -5 1 -27 9 -49 20 -22 11 -45 19 -52 20 -6 0 -24 6 -40
14 -15 8 -45 22 -65 30 -35 15 -51 22 -140 61 -18 7 -49 21 -70 29 -20 9 -43
16 -51 16 -8 0 -20 7 -27 15 -7 8 -21 15 -32 15 -10 0 -30 7 -43 16 -33 21
-45 11 -45 -39 -1 -23 -7 -71 -15 -107 -8 -36 -14 -94 -15 -130 0 -37 -5 -71
-10 -76 -6 -6 -14 -65 -19 -130 -10 -152 -16 -164 -80 -164 -27 0 -68 7 -91
15 -23 8 -59 15 -79 15 -20 0 -54 7 -76 15 -22 8 -59 14 -82 15 -23 0 -54 5
-70 11 -15 6 -55 14 -88 19 -33 5 -75 12 -94 16 l-34 7 6 -112 c4 -61 11 -120
17 -131 5 -10 10 -61 10 -112 1 -51 6 -136 13 -190 20 -151 50 -138 -305 -140
-167 -1 -313 -2 -325 -3 -37 -2 -46 -18 -30 -56 22 -52 47 -135 47 -154 0 -9
6 -31 13 -48 8 -18 22 -59 31 -92 10 -33 22 -73 28 -90 5 -16 14 -48 19 -70 6
-21 14 -44 18 -50 5 -5 11 -27 14 -48 5 -35 3 -40 -26 -57 -18 -11 -45 -20
-62 -20 -16 0 -50 -6 -75 -14 -73 -23 -131 -37 -191 -45 -30 -5 -64 -13 -75
-19 -10 -5 -44 -15 -74 -21 -30 -7 -66 -14 -80 -17 -14 -3 -35 -7 -47 -10
l-23 -4 29 -53 c16 -28 38 -68 49 -87 12 -19 33 -57 47 -85 14 -27 41 -77 60
-110 20 -33 39 -70 45 -82 5 -11 14 -24 19 -28 6 -3 11 -14 11 -24 0 -10 7
-24 15 -31 8 -7 15 -21 15 -31 0 -10 7 -22 16 -27 9 -5 14 -17 12 -27 -3 -20
-40 -40 -283 -155 -72 -33 -157 -74 -190 -90 -33 -16 -70 -31 -82 -35 -54 -15
-49 -29 48 -142 51 -59 104 -119 117 -133 14 -14 48 -54 77 -90 29 -36 71 -85
94 -109 23 -24 41 -52 41 -64 -1 -16 -39 -51 -146 -132 -80 -60 -164 -123
-188 -140 -23 -16 -55 -42 -71 -57 -17 -16 -34 -28 -40 -28 -16 -1 -65 -48
-65 -62 0 -7 82 -75 183 -150 100 -75 196 -148 212 -162 17 -15 49 -38 73 -53
47 -30 55 -60 25 -91 -25 -26 -79 -87 -143 -162 -30 -36 -62 -72 -70 -80 -8
-9 -33 -38 -55 -65 -59 -73 -108 -129 -124 -141 -21 -16 -7 -31 57 -60 31 -14
64 -30 72 -35 8 -5 22 -12 30 -15 17 -7 92 -42 230 -107 52 -25 117 -55 143
-68 67 -30 70 -40 27 -104 -11 -16 -22 -34 -24 -40 -2 -5 -7 -17 -10 -25 -3
-8 -16 -31 -27 -50 -12 -19 -35 -60 -52 -90 -16 -30 -43 -80 -60 -110 -16 -30
-45 -84 -65 -120 -19 -36 -39 -70 -44 -77 -7 -9 -2 -14 19 -18 15 -3 48 -12
73 -20 25 -8 55 -15 66 -15 12 0 38 -7 57 -15 20 -8 49 -15 64 -15 15 0 46 -7
68 -15 22 -8 56 -14 75 -15 19 0 44 -7 54 -15 11 -8 38 -15 60 -15 23 -1 57
-9 76 -18 32 -16 35 -21 32 -55 -2 -21 -10 -50 -18 -65 -8 -15 -14 -38 -14
-52 0 -14 -7 -34 -15 -44 -8 -11 -15 -32 -15 -47 0 -15 -7 -40 -15 -55 -8 -16
-15 -40 -15 -54 0 -14 -7 -34 -15 -44 -8 -11 -15 -32 -15 -47 0 -15 -7 -40
-15 -55 -8 -16 -15 -39 -15 -52 0 -12 -7 -34 -16 -47 -36 -55 -33 -55 320 -55
l326 0 14 -22 c12 -20 12 -36 1 -113 -8 -49 -14 -134 -14 -187 -1 -53 -6 -109
-12 -125 -15 -41 -24 -228 -11 -237 6 -3 30 0 54 9 24 8 57 15 73 15 17 0 46
5 65 11 19 6 68 14 109 19 41 5 79 14 85 20 5 5 26 10 46 10 20 0 59 7 86 15
73 22 131 20 144 -6 6 -11 15 -74 20 -140 5 -66 14 -128 20 -139 5 -10 10 -45
10 -77 1 -32 7 -87 15 -123 8 -36 14 -84 15 -108 0 -50 16 -61 57 -39 15 8 46
22 68 31 22 10 53 24 68 32 16 8 35 14 44 14 8 0 27 7 41 14 15 8 45 22 67 31
37 15 65 27 140 60 17 7 42 16 58 19 15 4 27 11 27 16 0 6 13 10 28 10 33 0
62 -27 62 -56 0 -11 7 -29 15 -40 8 -10 15 -31 15 -45 0 -14 7 -34 15 -45 8
-10 15 -28 15 -40 0 -11 7 -29 15 -40 8 -10 15 -30 15 -42 0 -13 6 -36 14 -50
16 -33 35 -85 46 -131 5 -18 13 -38 19 -44 6 -6 11 -19 11 -30 0 -10 5 -27 10
-38 10 -18 12 -18 43 -3 18 9 34 20 37 23 5 6 101 73 145 101 63 40 185 125
240 168 34 26 85 52 103 52 12 0 23 -9 27 -20 3 -11 10 -20 15 -20 4 0 11 -8
14 -17 7 -19 12 -28 59 -101 15 -23 38 -61 50 -83 12 -22 27 -48 32 -57 12
-19 53 -87 72 -117 7 -11 27 -44 44 -73 17 -30 37 -56 45 -59 7 -2 27 11 44
31 17 19 68 73 113 119 121 125 281 298 290 313 11 20 37 4 94 -58 27 -29 77
-82 113 -119 119 -122 215 -224 235 -250 33 -42 45 -44 71 -14 13 16 24 32 24
37 0 4 14 27 30 50 17 22 30 47 30 55 0 7 4 13 9 13 5 0 13 9 16 21 4 11 27
49 51 85 24 35 44 67 44 70 0 3 14 26 30 51 17 24 30 46 30 49 0 11 65 104 73
104 8 0 61 -35 200 -131 43 -30 86 -58 95 -64 9 -5 19 -12 22 -15 6 -6 53 -39
153 -108 74 -50 79 -52 92 -35 8 10 17 32 21 48 4 17 13 39 20 50 8 11 14 29
14 41 0 12 7 35 15 50 8 16 15 39 15 50 0 12 7 27 15 34 8 7 15 23 15 36 0 14
4 32 10 42 10 18 36 87 50 137 26 89 38 110 65 113 16 2 42 -3 59 -11 17 -9
49 -23 71 -32 22 -9 52 -23 67 -31 14 -7 31 -14 38 -14 6 0 38 -13 72 -30 33
-16 67 -30 77 -30 9 0 25 -7 35 -15 11 -8 27 -15 37 -15 9 0 22 -7 29 -15 7
-8 22 -15 34 -15 11 0 30 -7 40 -15 26 -20 52 -19 60 1 3 9 6 41 6 72 0 31 7
92 15 135 8 43 15 103 15 134 0 30 5 63 11 74 6 11 14 66 17 122 l7 102 47 3
c26 2 71 -4 99 -12 29 -9 67 -16 85 -16 17 0 48 -7 67 -15 20 -8 56 -15 80
-15 25 0 64 -7 87 -15 23 -8 61 -15 84 -15 23 0 46 -4 51 -9 15 -14 72 -23 79
-13 3 6 1 39 -5 74 -6 34 -14 122 -19 193 -4 72 -13 185 -21 253 -9 88 -10
128 -2 140 9 15 43 17 334 20 195 1 327 6 333 12 7 7 6 14 -2 22 -7 7 -12 23
-12 37 0 15 -7 39 -15 55 -8 15 -15 39 -15 52 0 13 -6 38 -14 56 -7 18 -21 60
-30 93 -10 33 -22 74 -27 90 -15 44 -39 125 -49 165 -5 19 -11 44 -15 55 -5
16 2 23 37 38 24 9 59 17 78 17 19 0 48 7 64 15 15 8 41 15 56 15 15 0 44 7
63 15 20 8 51 15 69 15 18 0 46 7 62 15 15 8 41 15 56 15 16 0 41 5 57 11 15
7 44 15 63 18 39 7 50 30 25 54 -8 9 -15 22 -15 31 0 8 -5 18 -11 21 -5 4 -15
17 -20 28 -5 12 -25 49 -44 82 -19 33 -37 67 -41 75 -3 8 -8 20 -10 25 -2 6
-13 24 -23 40 -11 17 -30 50 -42 75 -13 25 -35 67 -51 93 -32 55 -36 95 -10
103 9 3 58 25 107 49 50 23 135 64 190 89 55 26 127 60 160 77 33 16 65 29 71
29 6 0 19 9 29 20 18 20 18 21 -11 53 -16 17 -33 37 -39 42 -16 16 -77 87
-120 139 -42 52 -56 68 -120 137 -60 65 -115 137 -115 150 0 15 39 51 104 97
28 20 56 41 62 47 6 6 86 67 178 135 91 69 166 131 166 140 0 8 -17 26 -37 40
-21 14 -45 32 -53 40 -9 8 -107 83 -218 165 -119 89 -201 157 -202 167 0 14
138 191 175 223 6 6 64 72 129 148 124 144 129 156 73 172 -12 4 -65 27 -117
52 -86 42 -193 93 -320 153 -25 11 -52 25 -60 30 -8 5 -23 11 -32 14 -27 8
-22 49 12 104 17 27 30 54 30 59 0 6 7 16 15 23 8 7 15 21 15 31 0 11 4 19 9
19 5 0 14 12 20 28 6 15 32 63 56 107 25 44 51 91 57 105 7 14 15 27 18 30 16
13 50 94 46 106 -3 8 -16 14 -29 14 -14 0 -44 7 -67 15 -23 8 -57 15 -74 15
-18 0 -37 5 -43 11 -6 6 -37 15 -69 19 -62 9 -120 23 -194 46 -25 8 -57 14
-72 14 -15 0 -43 8 -63 17 -29 14 -35 21 -30 38 4 11 10 36 15 55 10 40 34
121 49 165 5 17 17 57 27 90 9 33 23 75 30 93 8 18 14 43 14 55 1 12 7 33 15
47 8 14 14 39 15 56 0 16 5 35 12 42 6 6 8 15 4 19 -4 5 -157 10 -339 13
l-332 5 -3 50 c-2 27 2 86 8 130 7 44 16 141 20 215 5 74 14 166 20 204 13 83
7 93 -45 72 -21 -9 -52 -16 -71 -16 -18 0 -53 -6 -76 -14 -24 -8 -72 -16 -107
-19 -35 -3 -68 -10 -74 -16 -6 -6 -30 -11 -52 -11 -23 0 -65 -7 -94 -16 -28
-8 -75 -14 -104 -12 l-52 3 -7 102 c-3 56 -11 111 -17 122 -6 11 -11 44 -11
74 0 31 -7 91 -15 134 -8 43 -15 105 -15 138 0 33 -5 67 -10 75 -8 13 -13 13
-41 -2 -17 -10 -36 -18 -43 -18 -7 0 -39 -13 -71 -30 -32 -16 -65 -30 -73 -30
-8 0 -26 -6 -40 -13 -15 -8 -44 -21 -65 -30 -20 -9 -52 -23 -70 -30 -17 -8
-52 -22 -77 -32 -25 -9 -58 -23 -75 -30 -69 -30 -95 -28 -95 9 0 12 -7 31 -15
42 -8 10 -15 30 -15 42 0 13 -6 36 -14 50 -16 33 -35 85 -46 131 -5 18 -13 38
-19 44 -6 6 -11 20 -11 32 0 11 -7 33 -15 49 -8 15 -15 36 -15 45 0 9 -6 25
-14 36 -7 11 -16 36 -20 56 -3 20 -14 43 -24 52 -16 14 -22 12 -74 -26 -31
-23 -66 -49 -78 -57 -13 -8 -48 -33 -79 -55 -80 -57 -169 -118 -189 -130 -9
-5 -33 -21 -52 -35 -88 -65 -84 -64 -116 -17 -16 23 -32 44 -36 45 -5 2 -8 9
-8 16 0 7 -13 31 -29 53 -16 22 -32 49 -35 61 -4 12 -11 22 -16 22 -4 0 -10 8
-14 18 -3 9 -14 29 -23 43 -10 15 -34 53 -53 85 -19 33 -40 68 -47 79 -7 11
-17 29 -22 40 -6 11 -19 31 -30 45 l-21 25 -37 -41 c-21 -23 -110 -117 -198
-209 -88 -92 -174 -183 -192 -201 -17 -19 -36 -34 -41 -34 -6 0 -22 15 -37 33
-15 17 -62 68 -104 113 -42 44 -130 138 -196 207 -65 70 -121 127 -125 127 -3
0 -20 -21 -37 -48z m947 -598 c167 -22 300 -44 337 -55 18 -6 54 -14 80 -19
121 -23 368 -95 478 -140 35 -14 37 -16 170 -70 106 -44 277 -128 360 -177 28
-16 57 -32 65 -36 8 -4 27 -15 41 -25 15 -9 55 -35 90 -57 35 -21 69 -44 76
-50 6 -5 41 -30 78 -55 241 -164 571 -473 757 -710 23 -30 51 -64 60 -74 10
-11 30 -38 45 -60 15 -23 30 -43 33 -46 7 -7 131 -194 162 -245 36 -58 94
-165 154 -285 52 -104 63 -128 104 -225 11 -27 25 -58 30 -67 6 -10 10 -23 10
-29 0 -6 6 -25 14 -42 8 -18 24 -63 36 -102 12 -38 25 -77 28 -85 26 -70 88
-318 102 -408 5 -29 13 -74 19 -100 57 -260 65 -828 17 -1162 -14 -96 -24
-153 -53 -290 -13 -67 -22 -100 -53 -215 -20 -74 -54 -183 -66 -212 -8 -17
-14 -38 -14 -46 0 -9 -4 -18 -9 -22 -5 -3 -13 -20 -17 -37 -3 -18 -10 -39 -15
-48 -5 -8 -25 -55 -46 -105 -72 -175 -216 -442 -331 -615 -38 -57 -181 -251
-192 -260 -3 -3 -16 -18 -29 -35 -79 -104 -327 -361 -446 -462 -131 -111 -337
-273 -349 -273 -3 0 -33 -20 -68 -43 -166 -115 -573 -328 -674 -353 -13 -3
-27 -10 -30 -15 -3 -5 -12 -9 -21 -9 -8 0 -29 -6 -46 -14 -44 -20 -205 -73
-247 -81 -19 -4 -41 -11 -50 -16 -40 -21 -338 -83 -480 -99 -47 -5 -110 -15
-140 -22 -76 -17 -753 -17 -830 0 -30 7 -93 17 -140 22 -130 15 -310 51 -430
86 -30 9 -77 22 -105 29 -27 7 -77 23 -110 35 -33 11 -69 24 -80 27 -11 3 -34
11 -52 19 -17 8 -36 14 -41 14 -6 0 -23 6 -39 14 -15 8 -46 22 -68 31 -132 54
-367 173 -500 253 -79 48 -305 202 -332 226 -6 6 -26 22 -44 36 -242 183 -503
449 -710 725 -70 92 -189 267 -198 290 -2 6 -16 28 -29 50 -83 130 -218 411
-289 600 -8 22 -21 55 -29 73 -8 18 -14 39 -14 47 0 8 -6 29 -14 47 -20 47
-66 215 -90 323 -90 410 -114 756 -81 1165 14 179 39 372 49 389 3 5 10 35 15
68 12 74 28 144 47 213 9 30 23 80 32 110 8 30 21 69 29 87 7 17 13 38 13 46
0 8 7 28 15 43 8 16 15 37 15 46 0 9 4 19 9 23 5 3 13 20 17 37 3 18 10 39 15
48 4 8 17 35 28 60 11 25 32 72 46 105 97 219 248 474 410 693 27 37 52 72 57
77 4 6 58 69 119 140 143 164 230 252 410 409 111 98 484 366 509 366 5 0 15
6 22 13 7 7 24 18 38 24 14 7 50 26 80 44 99 56 240 125 360 173 36 15 74 31
85 35 82 35 232 84 350 116 33 9 81 23 107 31 26 8 56 14 66 14 11 0 42 6 68
14 95 27 425 74 569 80 165 7 563 -4 675 -20z"/>
<path d="M4115 8200 c-33 -4 -103 -12 -156 -18 -53 -7 -102 -14 -110 -17 -8
-3 -50 -12 -94 -20 -44 -9 -101 -20 -128 -25 -26 -5 -62 -13 -80 -19 -17 -6
-59 -18 -92 -27 -65 -18 -244 -76 -285 -92 -14 -6 -50 -20 -80 -32 -224 -87
-559 -266 -735 -392 -243 -175 -360 -273 -530 -443 -254 -253 -475 -546 -641
-848 -63 -114 -174 -351 -174 -372 0 -7 -4 -16 -10 -20 -5 -3 -14 -20 -19 -38
-5 -18 -19 -57 -31 -87 -12 -30 -24 -64 -27 -75 -2 -11 -8 -29 -13 -40 -7 -17
-29 -91 -60 -200 -9 -30 -42 -171 -60 -255 -6 -25 -14 -74 -19 -110 -5 -36
-14 -101 -20 -145 -48 -356 -40 -726 24 -1095 24 -142 33 -185 45 -231 6 -24
18 -71 27 -104 8 -33 21 -78 28 -100 7 -22 22 -74 35 -115 13 -41 27 -79 31
-85 5 -5 9 -15 9 -23 0 -8 6 -28 14 -45 7 -18 23 -57 35 -87 45 -114 151 -333
208 -428 24 -41 43 -75 43 -77 0 -15 257 -386 284 -410 6 -5 38 -44 71 -85 91
-115 362 -383 490 -485 28 -22 52 -43 55 -46 3 -3 30 -23 60 -44 30 -21 59
-42 65 -47 32 -27 127 -94 174 -121 29 -18 65 -40 80 -49 14 -10 35 -22 46
-28 11 -6 43 -24 70 -40 61 -37 289 -149 365 -180 30 -12 69 -28 85 -35 17 -7
47 -20 68 -29 21 -9 46 -16 55 -16 10 0 22 -4 27 -8 14 -12 131 -48 310 -97
28 -7 86 -20 130 -29 44 -9 100 -21 125 -27 25 -6 79 -14 120 -19 41 -5 113
-14 160 -21 110 -15 675 -15 790 0 47 7 119 16 160 21 41 4 95 13 120 19 25 6
81 18 125 27 296 60 628 178 910 325 66 34 135 69 153 77 17 9 32 20 32 24 0
4 6 8 13 8 8 0 33 13 55 30 23 16 44 30 47 30 3 0 35 21 72 47 38 25 88 60
113 77 184 123 521 436 691 641 125 151 143 175 247 330 118 178 136 209 242
425 90 182 90 181 120 260 12 30 26 64 31 75 11 26 75 223 95 295 9 30 20 69
25 86 10 33 23 91 39 174 6 30 15 75 21 100 5 25 14 79 19 120 5 41 14 107 21
145 15 94 15 716 0 810 -7 39 -16 104 -21 145 -5 41 -14 95 -19 120 -31 142
-54 249 -61 275 -47 172 -134 432 -151 449 -5 6 -9 16 -9 23 0 24 -129 295
-195 408 -19 33 -39 69 -45 80 -12 23 -9 19 -122 191 -49 73 -94 138 -101 146
-7 7 -35 42 -62 78 -27 36 -59 76 -71 90 -12 14 -41 48 -65 75 -123 143 -334
341 -495 466 -38 30 -71 56 -74 59 -6 6 -50 37 -140 99 -159 109 -489 290
-636 348 -119 47 -141 56 -159 64 -82 36 -383 123 -525 153 -68 14 -113 22
-325 57 -81 13 -748 21 -840 9z m655 -280 c258 -24 419 -50 582 -95 32 -8 82
-22 110 -29 29 -8 80 -24 113 -36 33 -11 69 -23 80 -26 11 -3 29 -10 40 -14
22 -10 114 -46 159 -64 57 -22 395 -194 406 -207 3 -3 16 -12 30 -19 61 -32
335 -222 360 -249 3 -4 38 -33 79 -65 95 -76 325 -306 417 -416 126 -153 302
-400 340 -480 4 -8 26 -47 48 -85 54 -93 166 -324 166 -342 0 -3 7 -21 16 -41
9 -21 22 -52 30 -70 8 -18 14 -37 14 -43 0 -6 6 -25 14 -42 8 -18 20 -50 26
-72 6 -22 18 -62 26 -90 40 -133 62 -230 90 -390 17 -97 17 -95 41 -323 32
-309 -8 -783 -93 -1102 -37 -138 -46 -168 -60 -215 -9 -27 -22 -66 -29 -85 -7
-19 -27 -73 -45 -120 -64 -170 -193 -431 -271 -548 -16 -24 -29 -45 -29 -47 0
-17 -210 -301 -299 -405 -84 -98 -288 -302 -371 -371 -35 -30 -70 -59 -77 -66
-39 -36 -327 -243 -338 -243 -2 0 -23 -13 -47 -29 -159 -105 -543 -283 -718
-332 -19 -6 -44 -14 -55 -19 -11 -5 -36 -12 -55 -16 -19 -3 -39 -9 -45 -13
-10 -6 -44 -14 -190 -47 -324 -73 -719 -99 -1033 -70 -269 26 -461 61 -666
122 -26 7 -54 14 -61 14 -7 0 -26 7 -41 15 -16 8 -39 15 -51 15 -12 0 -24 4
-28 9 -3 5 -20 13 -38 17 -17 3 -45 12 -62 19 -16 8 -55 23 -85 35 -121 49
-276 124 -380 184 -25 14 -54 30 -65 35 -11 5 -37 21 -58 35 -21 14 -40 26
-42 26 -7 0 -140 93 -240 168 -262 197 -503 442 -703 716 -54 73 -102 141
-109 151 -174 287 -238 408 -312 595 -12 30 -26 64 -31 75 -5 11 -25 72 -45
135 -21 63 -40 124 -45 135 -21 56 -84 345 -96 445 -3 19 -12 89 -20 155 -12
91 -15 188 -12 400 4 268 10 344 44 555 37 229 128 543 210 727 8 17 14 33 14
36 0 7 85 193 101 220 5 10 24 44 40 75 186 345 449 677 749 944 87 77 241
202 279 226 14 9 28 19 31 22 33 34 324 205 475 278 166 81 174 84 275 122 47
18 101 38 120 45 19 8 46 17 60 20 14 3 34 10 45 15 11 4 40 13 65 20 25 6 72
18 105 27 97 25 186 43 255 53 36 5 76 12 90 16 40 11 397 41 495 42 50 1 187
-8 305 -18z"/>
<path d="M4200 7870 c-200 -22 -269 -31 -310 -40 -25 -5 -81 -17 -125 -26 -80
-16 -149 -33 -237 -60 -26 -8 -52 -14 -58 -14 -7 0 -26 -6 -43 -13 -42 -18
-93 -36 -137 -49 -19 -5 -39 -14 -45 -19 -5 -5 -15 -9 -22 -9 -23 0 -291 -128
-438 -209 -133 -73 -395 -256 -530 -371 -76 -65 -337 -329 -395 -401 -36 -45
-73 -90 -84 -102 -10 -12 -32 -42 -49 -67 -17 -25 -33 -47 -37 -50 -3 -3 -28
-39 -54 -80 -27 -41 -56 -86 -65 -100 -10 -14 -20 -32 -24 -40 -4 -8 -21 -37
-37 -65 -49 -81 -178 -349 -215 -445 -10 -25 -23 -58 -30 -75 -6 -16 -20 -57
-30 -90 -10 -33 -22 -69 -26 -80 -5 -11 -13 -38 -18 -60 -5 -22 -21 -87 -36
-145 -37 -151 -44 -186 -55 -267 -6 -40 -14 -103 -19 -140 -26 -191 -21 -712
8 -859 6 -27 15 -78 20 -114 10 -59 18 -100 51 -260 6 -30 16 -59 21 -65 5 -5
9 -18 9 -30 0 -22 64 -219 80 -247 6 -10 10 -23 10 -29 0 -6 7 -27 16 -47 8
-21 21 -50 28 -67 8 -16 22 -50 32 -74 47 -109 157 -316 212 -400 20 -31 39
-60 42 -66 6 -12 41 -65 53 -80 4 -5 37 -50 73 -100 201 -274 505 -568 779
-755 36 -25 71 -50 78 -55 15 -14 172 -108 251 -152 139 -77 352 -171 481
-214 33 -11 69 -24 80 -29 11 -5 54 -18 95 -30 41 -11 89 -25 106 -30 32 -11
85 -23 174 -40 30 -6 76 -15 101 -21 43 -9 96 -16 294 -39 103 -11 528 -12
625 0 41 5 113 13 160 19 47 5 105 14 130 20 25 6 68 15 95 20 56 11 140 31
230 55 33 10 78 21 100 27 22 6 44 14 50 20 5 5 18 9 30 9 11 0 33 7 49 15 15
8 33 15 38 15 5 0 30 9 56 21 26 11 58 25 72 31 145 61 280 129 420 211 121
72 257 160 270 176 3 3 23 19 46 34 22 15 49 35 60 45 11 9 42 35 69 57 130
103 347 321 450 450 22 28 43 52 46 55 31 28 228 313 255 370 4 8 24 42 44 75
34 56 127 241 155 310 27 63 35 81 54 127 12 26 21 51 21 56 0 5 7 23 15 38 8
16 15 36 15 45 0 9 7 30 15 45 8 16 15 37 15 47 0 10 5 27 10 38 6 10 15 38
20 61 5 24 17 72 25 108 9 36 21 88 26 115 5 28 14 71 20 96 9 43 16 96 39
294 11 103 12 508 0 605 -5 41 -13 115 -19 165 -6 49 -15 110 -20 135 -5 25
-17 81 -26 125 -25 118 -86 336 -120 425 -21 57 -55 144 -65 165 -5 11 -20 45
-33 75 -41 92 -85 182 -120 246 -37 67 -136 233 -149 249 -4 6 -37 51 -73 100
-220 307 -439 530 -740 756 -116 87 -192 139 -205 139 -4 0 -10 4 -12 8 -1 4
-32 25 -68 46 -36 20 -72 41 -80 46 -31 19 -337 167 -380 185 -25 10 -59 24
-77 31 -17 8 -35 14 -41 14 -5 0 -23 7 -38 15 -16 8 -38 15 -49 15 -12 0 -25
4 -30 9 -6 6 -28 14 -50 20 -22 6 -67 17 -100 27 -139 37 -280 68 -400 85 -38
5 -101 14 -140 20 -88 14 -564 20 -665 9z m-353 -307 c75 -35 107 -85 107
-169 0 -51 -5 -66 -28 -97 l-28 -36 51 -50 c28 -27 55 -60 61 -73 5 -13 15
-32 22 -43 7 -11 23 -37 35 -57 13 -21 23 -42 23 -48 0 -17 -60 -41 -97 -38
-32 3 -38 9 -76 78 -23 42 -49 86 -58 98 -20 28 -61 39 -114 32 -40 -5 -40 -5
-37 -45 1 -22 9 -60 17 -85 36 -116 38 -131 18 -146 -38 -29 -100 -32 -113 -4
-8 15 -23 71 -39 140 -5 19 -19 71 -31 115 -12 44 -28 103 -35 130 -7 28 -21
77 -30 110 -10 33 -20 70 -22 83 -6 26 21 62 46 62 9 0 29 7 45 15 15 8 38 15
50 16 11 0 37 7 56 14 50 19 133 18 177 -2z m607 -101 c56 -39 95 -113 95
-184 1 -31 -3 -59 -8 -62 -4 -3 -73 -11 -152 -17 -79 -7 -148 -16 -153 -20
-18 -16 39 -73 85 -87 37 -11 55 -10 114 2 65 14 71 14 83 -2 7 -9 12 -30 10
-46 -3 -25 -10 -32 -53 -47 -69 -24 -172 -24 -228 0 -153 66 -195 271 -84 413
40 53 96 76 182 77 60 0 75 -3 109 -27z m334 6 c6 -6 12 -19 12 -30 0 -15 4
-18 23 -12 12 4 31 13 42 20 29 21 119 17 164 -6 100 -50 145 -184 104 -306
-28 -85 -64 -129 -133 -164 -68 -35 -176 -20 -215 28 -19 24 -35 -9 -48 -104
l-13 -89 -60 0 -59 0 3 80 c1 44 7 100 13 125 5 25 14 77 18 115 5 39 14 102
20 140 6 39 16 101 21 139 6 38 13 73 16 78 7 11 73 1 92 -14z m624 -134 c4
-3 8 -17 8 -31 0 -23 3 -25 28 -19 78 18 92 18 116 3 23 -15 23 -18 12 -58
-15 -48 -34 -63 -69 -50 -46 18 -95 -7 -124 -62 -8 -16 -25 -61 -38 -100 -59
-174 -57 -172 -130 -138 -42 20 -44 23 -38 53 3 18 12 44 20 58 7 14 13 30 13
37 0 7 6 27 14 45 7 18 21 58 31 88 9 30 23 69 31 87 8 17 14 39 14 48 0 9 5
26 11 37 9 17 17 19 52 14 22 -4 44 -9 49 -12z m514 -210 c31 -20 61 -48 67
-61 5 -12 13 -23 17 -23 4 0 12 -25 19 -56 30 -131 -58 -279 -190 -319 -52
-16 -59 -16 -113 -1 -112 33 -174 93 -196 190 -22 99 36 227 130 287 38 25 58
28 137 24 64 -3 79 -8 129 -41z m-2775 -5 c13 -13 19 -30 17 -47 -3 -22 -9
-28 -45 -35 -55 -11 -99 -58 -80 -87 17 -29 32 -31 104 -19 85 15 131 2 172
-49 51 -61 42 -140 -24 -209 -48 -50 -192 -102 -209 -75 -2 4 -7 23 -11 42
l-6 36 59 18 c72 21 107 54 98 90 -8 34 -44 42 -112 26 -47 -12 -59 -11 -101
5 -76 29 -101 75 -89 160 8 51 54 103 118 133 78 37 82 38 109 11z m-502 -214
c28 -42 38 -43 73 -10 33 31 55 32 79 3 27 -31 24 -49 -17 -85 l-37 -31 46
-59 c24 -32 63 -78 85 -102 36 -38 45 -42 69 -36 15 3 35 13 44 21 22 20 25
18 55 -21 l26 -35 -26 -35 c-27 -36 -95 -75 -128 -75 -27 0 -90 34 -113 62
-11 13 -51 62 -89 109 l-69 86 -28 -16 c-26 -15 -29 -14 -53 8 -29 28 -33 53
-11 71 20 16 19 27 -5 57 -11 14 -20 29 -20 33 0 18 62 90 78 90 9 0 28 -16
41 -35z m4041 -81 c22 -20 40 -39 40 -43 0 -3 -12 -19 -26 -36 -14 -16 -44
-52 -67 -80 -23 -27 -66 -77 -96 -110 -72 -80 -106 -119 -167 -190 -28 -33
-61 -72 -73 -86 -26 -31 -48 -29 -81 7 -17 17 -21 31 -17 52 6 29 5 29 -41 35
-64 7 -103 32 -141 87 -26 38 -31 55 -31 106 0 77 25 131 94 199 52 52 120 85
176 85 43 0 117 -29 145 -58 15 -15 36 -44 46 -64 11 -21 23 -38 27 -38 4 0
39 38 77 85 39 46 76 84 82 84 7 1 31 -15 53 -35z m-4146 -259 c131 -127 236
-237 236 -247 0 -19 -67 -91 -80 -86 -10 3 -500 488 -500 494 0 2 18 22 40 45
27 28 43 38 53 32 8 -4 121 -111 251 -238z m4210 -143 c14 -21 26 -45 26 -53
-1 -7 -53 -52 -116 -99 -161 -118 -179 -148 -128 -209 48 -58 91 -44 263 86
46 34 89 63 95 63 14 0 76 -71 76 -87 0 -7 -48 -49 -107 -93 -60 -44 -114 -84
-120 -90 -7 -6 -32 -24 -56 -40 -24 -16 -50 -36 -57 -45 -18 -22 -59 -18 -81
8 -20 24 -25 62 -9 72 17 10 11 25 -10 25 -33 0 -98 47 -125 90 -35 56 -34
121 3 175 30 43 277 234 303 235 9 0 28 -17 43 -38z m-4484 1 c14 -10 30 -21
35 -26 13 -10 209 -151 274 -197 28 -19 51 -37 51 -40 0 -3 -14 -23 -31 -43
-25 -30 -37 -37 -54 -33 -20 5 -23 1 -28 -47 -6 -62 -34 -114 -78 -146 -25
-19 -44 -24 -89 -23 -65 1 -99 18 -241 120 -120 86 -130 98 -117 128 6 13 15
24 19 24 4 0 11 9 14 20 10 30 35 24 106 -24 35 -25 90 -63 123 -86 32 -22 70
-43 83 -46 33 -9 72 14 91 53 25 53 5 82 -125 178 -63 47 -119 85 -124 85 -18
0 -9 45 17 82 30 43 39 45 74 21z m3073 -1121 c455 -454 827 -834 827 -844 0
-18 -1676 -1698 -1694 -1698 -16 0 -1696 1683 -1696 1699 0 8 381 393 847 857
801 796 849 841 868 828 11 -8 392 -387 848 -842z m-3391 591 c19 -17 25 -53
9 -53 -15 0 -51 -65 -51 -92 0 -14 7 -31 15 -38 19 -16 48 -3 92 40 49 48 108
73 155 66 103 -17 154 -118 113 -222 -53 -133 -104 -173 -154 -120 -26 27 -21
44 23 85 46 43 43 131 -4 131 -11 0 -37 -15 -57 -34 -93 -82 -156 -103 -211
-69 -45 28 -61 49 -72 96 -15 56 -1 114 43 179 35 52 65 62 99 31z m5091 -9
c41 -21 104 -81 124 -118 8 -15 21 -49 29 -75 14 -45 14 -46 -12 -68 -40 -36
-84 -25 -84 20 0 55 -83 137 -139 137 -36 0 -107 -37 -135 -71 -20 -23 -26
-42 -26 -75 0 -45 30 -119 51 -126 20 -7 -1 -47 -33 -64 -29 -15 -32 -15 -53
8 -13 12 -37 49 -54 81 -26 48 -31 68 -31 127 0 98 38 156 140 214 37 21 58
26 118 26 47 0 84 -6 105 -16z m-5108 -420 c41 -17 41 -11 11 -129 -8 -33 -22
-87 -30 -120 -18 -72 -11 -83 43 -67 32 10 43 21 62 60 13 26 28 76 34 112 11
69 21 78 71 66 22 -6 24 -11 24 -74 -1 -87 -35 -187 -78 -230 -57 -56 -132
-77 -219 -61 -74 14 -107 32 -165 92 -37 38 -49 59 -54 93 -23 158 62 272 207
273 31 1 73 -6 94 -15z m5247 -3 c64 -27 102 -64 132 -126 31 -67 33 -107 6
-168 -40 -90 -200 -173 -229 -119 -10 18 -33 104 -52 191 -12 56 -34 92 -54
85 -20 -8 -55 -71 -55 -101 0 -33 29 -131 41 -138 18 -12 9 -52 -15 -64 -45
-25 -62 -10 -111 98 -24 55 -20 186 8 236 56 99 222 152 329 106z m-5575 -521
c13 0 44 -21 75 -50 29 -27 54 -50 56 -50 2 0 16 10 31 23 35 29 172 67 256
71 29 1 30 0 33 -51 3 -47 0 -54 -23 -69 -15 -10 -52 -21 -83 -26 -93 -15
-147 -36 -164 -66 -14 -24 -22 -65 -19 -98 1 -7 46 -13 122 -17 71 -4 128 -12
137 -19 16 -13 13 -101 -5 -119 -5 -5 -47 -5 -108 1 -55 5 -198 13 -318 16
l-219 7 -10 26 c-6 16 -8 75 -4 151 5 124 18 172 58 220 32 38 96 62 143 54
11 -2 30 -4 42 -4z m5701 -23 c62 -40 90 -76 102 -129 13 -52 8 -97 -14 -140
-17 -33 -27 -30 124 -32 l115 -1 0 -60 0 -60 -205 -13 c-113 -7 -272 -14 -355
-15 l-150 -2 0 49 c0 38 4 51 20 60 11 6 22 12 24 14 3 1 -7 15 -21 30 -39 42
-52 112 -34 176 17 57 39 85 95 120 49 31 68 35 173 32 74 -2 92 -6 126 -29z
m-3608 -2849 c28 -6 55 -19 59 -27 5 -9 11 -79 15 -156 4 -77 11 -160 16 -185
5 -25 9 -71 10 -102 0 -31 4 -59 8 -62 5 -3 21 21 35 52 15 31 32 64 37 72 33
52 100 169 100 174 0 9 62 109 81 131 17 19 24 20 74 11 41 -8 55 -15 55 -27
0 -10 -43 -89 -96 -176 -52 -87 -101 -167 -107 -178 -7 -11 -23 -38 -37 -60
-14 -22 -29 -47 -33 -55 -4 -8 -16 -28 -27 -45 -11 -16 -24 -40 -29 -51 -13
-30 -34 -35 -94 -22 -71 15 -87 35 -87 112 0 33 -5 90 -10 126 -6 36 -14 119
-20 185 -5 66 -15 152 -21 192 -11 71 -8 103 10 103 5 0 33 -5 61 -12z m1474
-50 c21 -81 50 -206 66 -289 4 -25 13 -64 18 -85 16 -61 40 -166 46 -201 5
-27 1 -36 -20 -49 -13 -9 -41 -17 -62 -18 -36 -1 -36 -1 -43 46 -4 26 -10 51
-13 57 -6 9 -26 100 -46 204 -5 26 -13 62 -19 80 -6 17 -13 49 -16 70 -7 44
-17 46 -61 12 -40 -31 -58 -31 -71 -2 -25 50 -23 55 29 99 84 70 183 109 192
76z m-682 -80 c13 -12 14 -47 6 -313 -5 -165 -11 -306 -13 -312 -6 -17 -101
-17 -111 -1 -4 6 -6 123 -5 260 2 264 2 268 -45 233 -10 -8 -31 -15 -45 -15
-23 0 -27 5 -32 37 -8 44 0 55 61 84 86 40 154 50 184 27z m370 -495 c42 -48
33 -118 -18 -139 -84 -35 -150 62 -87 128 31 33 81 38 105 11z"/>
<path d="M3677 7461 c-56 -12 -64 -23 -48 -74 6 -23 16 -59 20 -80 13 -59 23
-64 85 -43 64 22 96 59 96 110 0 69 -63 105 -153 87z"/>
<path d="M4264 7364 c-19 -19 -34 -44 -34 -55 0 -18 6 -20 93 -17 91 3 92 3
95 29 2 19 -5 33 -28 53 -45 38 -84 35 -126 -10z"/>
<path d="M4847 7342 c-39 -24 -57 -70 -59 -151 -2 -62 0 -73 21 -95 48 -52
133 -42 170 18 26 42 36 124 21 171 -21 65 -94 92 -153 57z"/>
<path d="M5765 7054 c-66 -34 -105 -102 -105 -181 0 -75 24 -103 89 -103 84 0
151 84 151 189 0 58 -1 61 -37 86 -44 29 -57 30 -98 9z"/>
<path d="M6245 6718 c-37 -13 -91 -63 -110 -102 -40 -79 5 -166 87 -166 36 0
46 6 99 60 54 56 59 64 59 106 0 59 -13 81 -57 99 -40 17 -38 17 -78 3z"/>
<path d="M4265 5524 c-240 -57 -423 -159 -575 -320 -106 -112 -168 -208 -218
-339 -79 -207 -97 -377 -64 -595 50 -327 305 -662 602 -791 14 -6 36 -17 50
-23 14 -7 52 -20 85 -30 33 -10 74 -23 90 -28 17 -6 112 -13 213 -16 164 -3
191 -2 275 19 50 12 96 26 102 31 5 4 16 8 25 8 29 0 211 98 285 154 79 59
197 184 248 262 72 110 139 270 158 374 32 186 33 269 7 415 -11 61 -45 188
-58 215 -4 8 -18 38 -31 65 -30 66 -76 142 -119 196 -91 117 -261 255 -385
313 -22 11 -52 25 -67 33 -14 7 -33 13 -41 13 -8 0 -28 7 -43 15 -16 8 -37 15
-46 15 -9 0 -43 7 -75 15 -76 20 -334 19 -418 -1z m395 -144 c8 -4 34 -11 58
-15 24 -4 56 -13 70 -21 15 -8 32 -14 38 -14 15 0 116 -54 184 -99 71 -46 199
-175 247 -248 142 -218 193 -467 144 -698 -31 -142 -72 -241 -150 -355 -111
-163 -300 -307 -471 -359 -19 -6 -60 -18 -90 -28 -81 -25 -329 -24 -425 1 -38
10 -84 25 -102 32 -17 8 -35 14 -41 14 -15 0 -121 59 -182 101 -288 197 -449
571 -391 906 20 111 49 205 86 273 7 14 21 41 32 60 10 19 20 37 23 40 3 3 18
24 33 46 16 23 56 69 90 103 161 158 353 250 562 270 87 9 261 3 285 -9z"/>
<path d="M3765 4694 c-84 -22 -85 -23 -85 -71 l0 -45 38 6 c107 17 128 18 166
2 30 -12 37 -20 34 -38 -3 -21 -10 -24 -71 -30 -125 -12 -186 -49 -207 -123
-16 -58 8 -126 55 -155 46 -29 136 -28 178 2 l30 22 15 -22 c11 -17 24 -22 56
-22 91 0 86 -9 86 180 0 215 -11 246 -99 278 -39 14 -164 24 -196 16z m153
-303 c4 -58 -17 -81 -74 -81 -44 0 -74 24 -74 60 0 37 59 70 120 66 22 -1 25
-6 28 -45z"/>
<path d="M4325 4694 c-81 -20 -121 -46 -166 -108 -27 -36 -29 -46 -29 -128 0
-125 24 -170 117 -217 34 -17 60 -21 130 -21 121 0 137 10 141 83 2 31 1 57
-1 57 -3 0 -25 -11 -48 -25 -121 -69 -225 15 -198 160 10 55 36 85 81 94 39 9
106 -4 129 -25 29 -26 39 -16 39 41 0 53 -1 55 -34 69 -38 16 -130 27 -161 20z"/>
<path d="M4855 4693 c-11 -3 -33 -14 -48 -25 -27 -20 -30 -20 -60 -3 -21 11
-49 15 -82 13 l-50 -3 0 -225 0 -225 34 -3 c19 -2 50 -1 68 3 l33 6 0 158 c0
176 5 191 67 191 56 0 63 -20 63 -186 0 -103 4 -154 12 -162 16 -16 113 -16
126 1 6 7 9 75 9 165 -1 139 1 153 19 167 10 8 33 15 51 15 56 0 63 -23 63
-197 l0 -152 33 -6 c18 -4 49 -5 68 -3 l34 3 3 178 c2 149 0 184 -14 213 -35
74 -122 99 -194 56 -76 -47 -75 -47 -117 -14 -39 31 -83 44 -118 35z"/>
<path d="M1751 5336 c-31 -33 -31 -99 0 -132 34 -36 57 -31 64 14 4 20 14 56
22 79 8 23 12 46 8 52 -12 20 -70 12 -94 -13z"/>
<path d="M7110 5353 c0 -21 34 -150 43 -160 26 -34 87 16 87 70 0 39 -60 97
-99 97 -17 0 -31 -3 -31 -7z"/>
<path d="M1523 4804 c-50 -25 -85 -143 -50 -172 15 -12 167 -19 185 -8 18 11
15 103 -4 136 -17 28 -62 60 -86 60 -7 0 -27 -8 -45 -16z"/>
<path d="M7083 4804 c-71 -35 -92 -124 -40 -171 30 -28 65 -34 146 -27 88 8
121 34 121 95 0 51 -11 72 -54 98 -41 26 -126 28 -173 5z"/>
</g>
</svg>
