<?xml version="1.0" standalone="no"?>
<!DOCTYPE svg PUBLIC "-//W3C//DTD SVG 20010904//EN"
 "http://www.w3.org/TR/2001/REC-SVG-20010904/DTD/svg10.dtd">
<svg version="1.0" xmlns="http://www.w3.org/2000/svg"
 width="28.0" height="28.0" viewBox="0 0 900.000000 950.000000"
 preserveAspectRatio="xMidYMid meet">
<metadata>
Created by potrace 1.10, written by Peter Selinger 2001-2011
</metadata>
<g transform="translate(0.000000,894.000000) scale(0.100000,-0.100000)"
fill="#008b00" stroke="none">
<path d="M3998 8883 c-8 -10 -18 -25 -22 -33 -4 -8 -73 -123 -154 -255 -104
-171 -153 -241 -167 -243 -11 -1 -49 18 -87 45 -37 26 -126 89 -198 138 -73
50 -157 109 -188 132 -31 23 -64 43 -73 43 -12 0 -24 -22 -43 -77 -29 -88
-110 -320 -119 -343 -4 -8 -16 -44 -28 -80 -42 -124 -55 -136 -116 -106 -15 8
-39 19 -53 25 -14 5 -81 33 -150 61 -69 29 -138 58 -155 65 -16 7 -41 18 -55
23 -14 6 -47 20 -73 32 -27 12 -55 19 -62 16 -13 -5 -29 -83 -44 -221 -16
-142 -33 -278 -45 -355 -11 -72 -13 -75 -40 -78 -16 -2 -48 1 -70 7 -23 5 -93
20 -156 31 -135 25 -240 45 -330 64 -35 8 -68 12 -72 10 -11 -7 -9 -129 2
-229 5 -44 14 -143 20 -220 6 -77 12 -152 15 -168 3 -19 -2 -34 -15 -47 -19
-19 -35 -20 -328 -20 -169 0 -314 -4 -322 -10 -14 -9 -15 -8 40 -180 4 -14 15
-52 25 -85 10 -33 23 -78 30 -100 7 -22 21 -67 30 -100 9 -33 23 -79 32 -102
8 -23 13 -52 11 -64 -3 -23 -15 -28 -163 -62 -38 -9 -128 -30 -200 -47 -71
-17 -161 -38 -200 -47 -38 -9 -74 -20 -78 -23 -5 -4 3 -27 16 -51 13 -24 38
-69 54 -99 17 -30 54 -98 83 -150 54 -97 97 -176 133 -242 11 -20 17 -43 14
-51 -3 -8 -32 -27 -64 -42 -105 -49 -246 -116 -341 -162 -51 -24 -113 -53
-138 -63 -26 -12 -44 -26 -44 -36 0 -12 98 -134 140 -174 3 -3 48 -54 100
-115 52 -60 113 -131 137 -157 24 -26 43 -54 43 -61 0 -8 -30 -37 -67 -64 -88
-65 -252 -190 -278 -211 -11 -9 -53 -42 -93 -72 -52 -39 -72 -61 -70 -74 3
-19 51 -57 365 -294 79 -59 143 -114 143 -122 0 -8 -17 -33 -38 -55 -35 -37
-76 -85 -299 -344 -46 -53 -83 -102 -83 -108 0 -12 50 -38 300 -156 171 -80
231 -108 256 -117 48 -19 46 -32 -31 -170 -20 -36 -53 -94 -72 -130 -20 -36
-48 -87 -63 -115 -15 -27 -42 -77 -60 -110 -18 -33 -37 -66 -43 -73 -18 -23
10 -34 178 -72 50 -11 115 -26 145 -34 30 -7 91 -22 135 -31 169 -38 185 -44
185 -72 0 -13 -11 -57 -24 -96 -13 -40 -33 -103 -45 -142 -21 -71 -50 -170
-91 -302 -12 -40 -19 -77 -15 -83 4 -6 84 -10 218 -10 301 0 436 -9 446 -29 8
-16 0 -144 -19 -322 -18 -165 -24 -325 -12 -333 6 -3 32 -1 59 5 48 11 129 27
278 54 44 8 116 22 160 31 44 9 98 17 119 18 l40 1 12 -70 c7 -38 13 -87 13
-109 1 -21 8 -84 16 -140 8 -55 22 -154 31 -218 13 -99 19 -118 33 -118 10 0
55 16 102 36 46 19 100 42 119 50 19 9 44 19 55 24 11 4 85 35 165 69 80 34
151 61 157 61 17 0 34 -36 76 -160 20 -58 59 -170 87 -250 28 -80 56 -160 61
-178 16 -51 5 -56 277 132 230 160 284 196 297 196 11 0 29 -24 92 -125 7 -11
17 -29 23 -40 42 -80 229 -371 243 -379 15 -9 27 -2 74 49 30 33 117 125 193
205 76 80 148 157 160 173 30 38 55 34 103 -17 23 -24 101 -106 173 -183 73
-76 151 -160 174 -186 23 -26 50 -47 59 -47 10 0 28 19 42 41 13 23 31 52 39
64 8 13 73 118 143 234 135 222 142 229 188 192 13 -10 103 -73 199 -139 96
-66 200 -139 231 -161 31 -23 63 -41 72 -41 18 0 24 15 138 350 73 214 89 256
102 264 14 9 72 -11 224 -80 28 -13 55 -24 58 -24 4 0 76 -30 160 -66 85 -36
162 -64 172 -62 14 3 19 17 25 68 3 36 14 119 22 185 9 66 21 161 27 210 6 50
14 113 17 140 l7 50 40 -1 c22 -1 74 -8 115 -17 41 -8 102 -20 135 -26 84 -15
207 -40 293 -58 47 -10 77 -12 83 -6 6 6 6 45 -1 109 -5 54 -14 160 -20 234
-5 74 -15 173 -21 219 -8 70 -8 86 4 99 12 12 74 15 337 20 348 5 343 4 322
60 -10 26 -35 110 -103 337 -16 55 -39 130 -50 167 -12 38 -19 74 -16 82 6 15
59 33 182 61 39 9 97 22 130 30 33 7 94 21 135 31 104 23 183 46 194 55 5 4
-3 27 -17 51 -13 24 -36 63 -49 88 -46 82 -85 154 -123 225 -21 39 -41 75 -45
80 -27 36 -69 131 -65 145 3 9 42 34 88 55 468 218 497 232 497 254 0 10 -3
21 -7 23 -5 2 -53 55 -108 118 -55 63 -102 117 -105 120 -3 3 -40 46 -82 95
-41 50 -83 97 -92 104 -9 7 -16 25 -15 40 0 22 34 51 232 199 301 225 283 210
271 230 -6 9 -27 28 -46 42 -19 14 -71 52 -114 86 -43 33 -137 105 -209 159
-71 55 -133 103 -137 109 -7 11 1 37 17 51 6 6 54 59 106 120 52 60 101 117
109 126 8 8 35 40 60 70 25 30 62 72 83 95 20 23 37 49 37 58 0 10 -23 27 -62
45 -92 42 -208 96 -328 153 -58 27 -124 59 -148 70 -49 23 -61 42 -43 70 6 10
25 43 41 73 17 30 44 80 60 110 17 30 44 80 60 110 17 30 44 81 61 113 17 31
43 76 56 100 14 24 22 47 17 51 -8 7 -162 46 -339 86 -273 62 -305 72 -305 95
0 11 8 46 19 77 10 32 26 85 36 118 10 33 24 78 31 100 7 22 20 67 29 100 9
33 23 78 30 100 30 93 38 126 31 133 -4 4 -154 9 -332 12 -354 5 -350 5 -339
63 2 16 9 92 15 170 6 78 15 183 20 232 21 193 22 213 11 219 -5 4 -38 0 -73
-8 -35 -8 -101 -21 -148 -30 -150 -27 -294 -55 -345 -67 -28 -6 -61 -9 -75 -8
-23 4 -26 10 -33 69 -4 36 -14 112 -22 170 -8 58 -22 166 -31 240 -21 175 -22
180 -40 180 -9 0 -45 -13 -81 -30 -35 -16 -67 -30 -70 -30 -3 0 -19 -6 -36
-14 -18 -7 -84 -35 -147 -61 -63 -27 -143 -61 -178 -77 -69 -31 -97 -35 -109
-15 -4 6 -18 41 -30 77 -12 36 -38 110 -58 165 -19 55 -54 154 -76 220 -40
115 -53 145 -68 145 -4 0 -93 -59 -197 -131 -104 -73 -224 -156 -267 -186 -43
-29 -82 -51 -87 -48 -5 3 -47 67 -92 141 -46 74 -90 145 -98 159 -8 13 -46 76
-85 139 -38 64 -75 116 -83 116 -11 0 -60 -48 -193 -191 -201 -215 -256 -269
-275 -269 -12 0 -38 19 -64 48 -23 26 -110 118 -192 204 -83 87 -159 169 -170
183 -23 29 -39 32 -60 8z m882 -623 c30 -6 93 -14 140 -20 86 -10 190 -28 290
-50 161 -35 417 -110 497 -146 17 -8 36 -14 42 -14 6 0 19 -4 29 -10 9 -5 37
-18 62 -28 114 -47 142 -60 255 -116 313 -155 652 -390 883 -611 230 -220 338
-339 489 -543 69 -94 210 -306 226 -342 4 -8 19 -35 33 -60 68 -117 170 -332
219 -460 9 -25 22 -58 29 -75 18 -41 36 -94 46 -130 5 -16 13 -43 19 -60 6
-16 18 -57 27 -90 9 -33 22 -81 30 -107 8 -26 14 -56 14 -66 0 -11 6 -42 14
-68 63 -219 99 -703 77 -1054 -15 -244 -55 -507 -106 -690 -7 -25 -20 -74 -30
-110 -9 -36 -23 -81 -30 -100 -7 -19 -20 -60 -30 -90 -9 -30 -21 -64 -25 -75
-5 -11 -28 -67 -50 -125 -47 -120 -176 -381 -241 -489 -24 -39 -49 -80 -54
-89 -51 -85 -211 -312 -271 -382 -142 -166 -254 -287 -342 -369 -127 -118
-303 -265 -387 -323 -148 -103 -251 -171 -265 -176 -8 -3 -22 -11 -30 -17 -32
-26 -310 -170 -415 -215 -27 -12 -59 -25 -70 -30 -11 -5 -58 -23 -105 -40 -47
-18 -101 -38 -120 -45 -57 -22 -230 -75 -245 -75 -7 0 -35 -7 -61 -14 -27 -8
-85 -22 -129 -31 -347 -71 -438 -80 -815 -79 -254 0 -351 4 -445 17 -214 31
-396 65 -489 93 -26 8 -57 14 -67 14 -10 0 -33 6 -51 14 -18 8 -60 22 -93 31
-33 9 -76 22 -95 30 -19 7 -73 27 -120 45 -47 17 -98 38 -115 45 -16 8 -57 26
-90 40 -124 55 -353 173 -385 200 -8 6 -22 15 -30 19 -28 12 -291 189 -313
209 -6 7 -43 37 -82 67 -38 30 -83 65 -99 80 -110 96 -141 125 -227 210 -146
145 -334 368 -429 510 -8 12 -27 39 -41 59 -53 75 -179 291 -237 406 -61 121
-122 252 -122 262 0 3 -7 21 -16 41 -37 86 -42 99 -48 129 -4 18 -12 35 -17
38 -5 4 -9 15 -9 25 0 11 -6 34 -14 52 -7 18 -21 60 -30 93 -10 33 -24 83 -31
110 -19 66 -34 137 -46 208 -5 33 -12 63 -15 68 -10 16 -34 206 -49 389 -31
377 -10 708 69 1110 13 66 38 162 76 295 27 92 112 329 145 400 7 17 25 57 40
90 311 694 866 1308 1550 1712 99 58 405 213 421 213 5 0 20 6 34 13 14 7 45
20 70 29 25 10 59 23 75 29 68 27 131 48 145 49 8 0 28 7 44 15 15 8 34 15 41
15 7 0 35 7 61 14 234 70 596 132 819 140 148 5 556 -4 615 -14z"/>
<path d="M4130 8204 c-14 -2 -63 -9 -110 -14 -136 -17 -348 -57 -460 -86 -154
-41 -402 -122 -490 -160 -19 -8 -46 -20 -60 -26 -137 -57 -305 -143 -470 -241
-509 -304 -974 -768 -1284 -1285 -91 -152 -202 -372 -256 -512 -12 -30 -26
-64 -31 -75 -14 -32 -69 -194 -93 -275 -35 -116 -88 -343 -100 -430 -3 -19
-12 -78 -20 -130 -45 -289 -44 -809 3 -1053 5 -28 17 -97 26 -152 10 -55 23
-120 31 -144 8 -25 14 -53 14 -62 0 -10 7 -40 15 -66 8 -26 22 -73 31 -103 9
-30 27 -86 41 -125 13 -38 28 -83 33 -100 7 -27 19 -59 52 -135 69 -164 191
-404 258 -510 5 -8 21 -35 36 -60 51 -84 174 -256 262 -366 119 -149 393 -425
537 -539 28 -22 52 -43 55 -46 27 -30 358 -259 375 -259 4 0 16 -6 24 -14 58
-50 429 -230 621 -301 19 -7 53 -20 75 -28 22 -8 67 -23 100 -32 33 -10 71
-22 85 -27 46 -16 264 -69 320 -77 30 -5 83 -14 118 -20 157 -28 200 -32 399
-42 151 -8 273 -8 430 0 206 10 247 14 403 41 36 7 90 16 120 21 56 8 274 61
320 77 14 5 52 17 85 27 88 25 164 54 331 124 100 42 315 146 374 181 173 103
208 124 297 185 58 40 224 163 233 174 3 3 34 31 70 61 129 109 303 281 400
395 23 28 52 61 64 75 42 49 153 195 164 217 7 12 18 27 24 35 7 7 29 38 49
68 125 189 263 453 349 670 12 30 26 64 31 75 5 11 18 49 29 85 12 36 25 73
30 82 6 10 14 34 19 55 5 21 16 65 26 98 9 33 21 78 26 100 5 22 14 60 21 85
11 46 18 85 37 205 6 39 19 117 28 175 25 156 24 719 -1 880 -9 63 -24 158
-32 210 -8 52 -22 118 -30 146 -7 28 -14 60 -14 72 0 12 -7 43 -15 69 -8 26
-22 71 -30 98 -22 76 -84 267 -94 290 -5 11 -32 75 -60 142 -49 117 -145 311
-189 383 -12 19 -27 46 -33 60 -6 14 -21 39 -35 57 -13 17 -24 34 -24 37 0 6
-46 73 -125 186 -182 259 -479 569 -734 766 -102 79 -355 254 -366 254 -3 0
-35 19 -72 41 -103 64 -389 205 -453 224 -14 4 -34 14 -45 21 -11 8 -29 14
-40 14 -12 0 -25 4 -31 8 -24 22 -372 124 -529 156 -44 9 -100 21 -125 26 -25
6 -83 15 -130 21 -47 6 -116 14 -155 19 -65 9 -680 12 -735 4z m584 -279 c263
-20 545 -67 711 -120 22 -7 67 -21 100 -30 64 -19 84 -26 215 -75 110 -42 361
-158 430 -200 8 -5 58 -35 110 -66 143 -84 303 -195 390 -270 14 -12 61 -52
105 -90 104 -88 302 -290 374 -379 31 -38 58 -72 62 -75 36 -32 238 -330 294
-435 12 -22 32 -58 45 -80 24 -43 82 -159 106 -212 8 -18 21 -48 29 -65 8 -18
24 -58 35 -88 11 -30 25 -64 30 -75 19 -44 85 -256 114 -370 59 -232 106 -609
106 -850 0 -274 -62 -684 -145 -965 -10 -30 -23 -75 -30 -100 -7 -25 -17 -56
-23 -70 -5 -14 -18 -45 -27 -70 -21 -55 -28 -72 -54 -132 -12 -26 -21 -50 -21
-53 0 -8 -128 -266 -139 -279 -5 -6 -21 -33 -36 -61 -74 -135 -248 -380 -369
-520 -91 -106 -290 -302 -391 -386 -160 -134 -382 -292 -490 -349 -11 -6 -40
-22 -65 -36 -92 -53 -323 -165 -370 -179 -14 -4 -29 -11 -35 -15 -5 -4 -39
-17 -75 -29 -36 -12 -74 -25 -85 -30 -11 -4 -47 -16 -80 -26 -33 -9 -78 -23
-100 -30 -226 -72 -675 -136 -956 -135 -100 0 -176 6 -449 33 -221 23 -625
127 -814 211 -32 14 -63 26 -67 26 -9 0 -74 29 -209 94 -35 17 -98 51 -140 75
-41 24 -88 51 -105 60 -16 9 -75 46 -130 83 -608 401 -1072 984 -1338 1678
-98 255 -160 516 -202 850 -18 143 -21 602 -5 691 5 30 14 95 20 144 10 95 28
198 53 305 49 213 95 358 174 550 48 116 163 347 218 438 27 45 55 90 60 100
49 82 214 304 295 397 124 141 290 305 415 409 39 32 80 67 93 77 12 11 53 40
90 66 37 25 83 58 102 73 110 84 520 302 630 335 14 4 30 11 35 15 6 4 39 17
75 29 36 12 74 25 85 30 11 4 47 16 80 26 33 9 78 23 100 31 23 8 48 14 57 14
8 0 38 6 64 14 136 39 350 73 569 90 229 18 248 18 479 1z"/>
<path d="M4190 7869 c-181 -18 -258 -28 -300 -38 -41 -10 -82 -18 -195 -40
-22 -4 -56 -12 -75 -18 -19 -6 -60 -18 -90 -27 -107 -30 -195 -59 -205 -68 -5
-4 -18 -8 -28 -8 -10 0 -31 -6 -45 -14 -15 -8 -67 -31 -117 -51 -98 -41 -343
-164 -415 -210 -158 -99 -331 -223 -455 -326 -89 -74 -376 -371 -458 -474 -86
-107 -224 -308 -283 -410 -58 -101 -75 -131 -85 -155 -10 -22 -21 -44 -50
-100 -21 -39 -79 -171 -79 -179 0 -5 -7 -22 -15 -37 -8 -16 -15 -36 -15 -44 0
-9 -4 -20 -8 -25 -10 -11 -71 -200 -96 -295 -10 -36 -22 -80 -28 -98 -5 -19
-14 -57 -18 -85 -9 -60 -26 -158 -41 -237 -33 -177 -34 -696 -3 -915 27 -188
66 -375 108 -515 9 -30 21 -68 26 -85 18 -63 73 -210 81 -220 5 -5 9 -15 9
-22 0 -21 101 -234 175 -371 227 -418 608 -847 999 -1124 112 -79 373 -236
476 -285 133 -64 219 -103 226 -103 3 0 20 -7 37 -15 46 -21 185 -69 292 -100
33 -10 71 -22 85 -27 14 -4 48 -13 75 -18 28 -5 84 -17 125 -25 41 -9 107 -20
145 -26 39 -5 97 -15 130 -21 91 -16 612 -22 725 -8 52 6 131 15 175 20 44 4
100 13 125 19 25 6 81 18 125 27 109 22 205 48 345 95 102 34 143 49 165 58
11 5 59 25 106 45 109 45 325 155 404 206 17 11 37 23 45 27 24 11 198 130
264 181 252 192 486 426 675 676 65 86 171 244 201 301 6 11 19 34 30 50 34
53 190 373 214 440 94 264 129 379 161 530 9 44 21 101 26 126 6 25 14 81 19
125 5 43 14 119 20 168 14 108 8 633 -8 716 -6 30 -16 89 -21 130 -15 102 -51
280 -70 344 -5 17 -17 58 -26 91 -9 33 -23 75 -31 93 -8 18 -14 40 -14 48 0 9
-6 30 -14 47 -7 18 -20 50 -29 72 -96 247 -244 529 -371 707 -23 31 -48 66
-56 78 -8 13 -28 40 -45 60 -16 21 -41 53 -55 71 -82 110 -292 328 -421 439
-167 144 -498 375 -604 421 -11 5 -27 13 -35 19 -28 18 -265 128 -340 158 -41
17 -118 44 -170 61 -205 68 -243 78 -410 111 -30 6 -75 15 -100 21 -46 11
-138 22 -310 39 -111 11 -472 10 -580 -1z m683 -225 c42 -7 67 -41 67 -89 0
-15 7 -54 15 -88 8 -34 22 -98 31 -142 17 -87 34 -169 59 -282 9 -40 13 -77
10 -83 -3 -5 -28 -10 -56 -10 -59 0 -89 24 -89 71 0 41 -20 116 -34 127 -6 5
-52 13 -102 16 l-92 7 -22 -48 c-64 -135 -57 -129 -128 -116 -56 11 -57 20
-13 115 16 35 41 88 54 118 14 30 41 90 61 133 20 42 36 80 36 83 0 3 14 32
30 66 17 33 30 64 30 69 0 6 7 21 16 34 17 27 50 31 127 19z m-1265 -235 c16
-39 25 -50 39 -46 65 19 82 18 93 -3 20 -38 9 -73 -26 -82 -55 -14 -58 -27
-29 -120 48 -148 69 -177 119 -158 37 14 53 4 61 -37 9 -47 -11 -67 -80 -82
-49 -11 -60 -10 -93 6 -48 24 -71 60 -105 168 -46 144 -52 155 -87 155 -23 0
-33 7 -45 29 -18 36 -12 54 22 70 20 9 24 16 18 34 -15 47 -10 60 30 88 22 16
45 28 51 29 5 0 20 -23 32 -51z m550 4 l3 -43 -63 0 c-65 0 -74 -3 -96 -32
-24 -31 1 -55 78 -75 83 -21 133 -58 150 -109 24 -71 -13 -145 -91 -185 -43
-22 -192 -30 -210 -12 -6 6 -9 28 -7 49 l3 39 68 -4 c50 -2 74 1 92 13 51 33
21 92 -51 102 -180 25 -222 201 -70 285 23 12 53 17 111 15 l80 -1 3 -42z
m1110 -29 c17 -8 32 -20 33 -27 0 -7 0 -80 -1 -163 -1 -86 3 -154 8 -158 5 -3
31 26 58 65 27 38 64 88 82 110 17 23 32 44 32 49 0 4 11 15 24 23 20 13 30
14 67 3 58 -17 63 -47 16 -96 -18 -19 -53 -60 -78 -91 -132 -167 -196 -239
-211 -239 -9 0 -36 9 -61 19 -34 15 -46 26 -50 48 -7 38 -9 468 -2 475 8 7 41
0 83 -18z m-1917 -161 c17 -45 8 -66 -36 -83 -81 -31 -115 -72 -115 -141 0
-35 7 -56 29 -85 65 -91 136 -97 244 -21 22 16 48 0 62 -38 9 -24 6 -30 -23
-54 -116 -97 -255 -105 -347 -20 -64 59 -89 118 -89 204 0 123 52 187 204 253
41 18 60 14 71 -15z m2500 -63 c48 -13 124 -65 151 -103 19 -26 23 -45 22 -99
0 -36 -5 -72 -11 -80 -10 -13 -38 -62 -110 -198 -20 -36 -39 -69 -44 -74 -13
-15 -78 20 -91 49 -9 19 -19 25 -43 25 -32 0 -107 29 -135 52 -32 27 -50 68
-50 115 0 39 6 56 31 86 56 68 123 82 225 46 91 -31 100 -33 108 -14 18 48
-22 87 -121 120 -58 18 -65 33 -37 74 17 24 17 24 105 1z m563 -142 c51 -72
-37 -146 -101 -86 -47 44 -19 108 48 108 28 0 42 -6 53 -22z m-3474 -120 c24
-17 147 -170 215 -265 14 -19 -50 -72 -88 -73 -21 0 -30 -7 -38 -27 -21 -56
-108 -123 -159 -123 -38 0 -100 40 -125 80 -48 76 -26 160 66 252 52 52 55 74
11 85 -34 8 -86 -21 -129 -74 -39 -48 -48 -51 -75 -26 -33 29 -22 59 45 126
100 100 184 114 277 45z m3337 -20 c18 -13 36 -31 39 -41 4 -11 -26 -57 -92
-145 -163 -213 -178 -230 -193 -231 -20 -1 -91 49 -91 63 0 6 43 67 96 136 52
69 111 146 131 173 30 41 57 66 72 67 3 0 20 -10 38 -22z m361 -26 c53 -48 66
-29 -207 -318 -194 -204 -224 -234 -235 -234 -19 1 -76 59 -76 77 1 18 19 39
264 297 77 82 152 162 165 177 30 36 49 36 89 1z m-4267 -14 c25 -31 23 -48
-6 -77 -32 -30 -32 -62 1 -100 31 -38 40 -38 66 -6 23 30 47 32 76 6 26 -22
28 -44 6 -61 -8 -8 -20 -22 -26 -33 -9 -18 6 -36 128 -154 l138 -133 -39 -40
c-22 -22 -44 -40 -50 -40 -15 0 -37 19 -167 146 -58 57 -111 104 -116 104 -5
0 -15 -6 -21 -14 -16 -19 -48 -9 -71 24 -17 24 -18 29 -5 40 21 17 19 27 -13
69 -71 90 -67 184 9 259 39 38 64 40 90 10z m-268 -366 c24 -21 22 -71 -5 -99
-34 -37 -79 -29 -103 18 -18 33 -11 56 24 86 28 24 52 23 84 -5z m4591 -7
c127 -86 172 -213 107 -302 -33 -46 -262 -233 -284 -233 -26 0 -58 50 -55 84
3 26 -1 32 -22 34 -13 2 -41 17 -61 33 -81 64 -92 170 -25 237 35 36 39 37
109 37 68 0 76 -2 117 -35 25 -19 57 -47 72 -62 15 -16 32 -28 38 -28 16 0 31
48 24 76 -7 27 -80 104 -99 104 -21 0 -24 23 -7 53 20 34 39 34 86 2z m-4442
-113 c18 -16 89 -71 158 -122 68 -52 132 -101 142 -109 28 -24 22 -56 -18 -90
l-35 -31 -27 19 c-15 11 -56 42 -92 70 -36 28 -104 81 -153 118 -48 37 -90 75
-93 85 -7 22 43 86 68 87 10 1 32 -12 50 -27z m-144 -195 c17 -13 15 -52 -3
-67 -31 -25 -18 -57 38 -91 85 -54 151 -88 169 -89 9 0 28 14 41 31 21 27 28
30 56 24 67 -14 59 -89 -15 -155 -28 -24 -44 -30 -80 -30 -50 0 -71 9 -196 86
-85 52 -118 65 -118 44 0 -19 -39 -31 -62 -19 -32 17 -38 29 -31 62 5 23 0 33
-27 56 l-33 27 17 52 c10 29 24 52 31 52 8 0 31 -10 51 -22 l37 -22 24 30 c13
16 28 34 33 41 10 12 46 7 68 -10z m5119 -42 c12 -22 23 -45 23 -51 0 -6 -47
-35 -105 -64 -58 -28 -105 -58 -105 -64 0 -7 18 -27 40 -44 42 -35 80 -107 80
-154 0 -69 -47 -136 -140 -197 -53 -34 -59 -36 -145 -36 -109 0 -140 15 -191
93 -32 47 -35 59 -33 110 3 55 2 57 -24 60 -21 3 -31 12 -42 39 -9 20 -14 41
-13 45 5 15 592 306 613 304 11 0 29 -17 42 -41z m-1895 -802 c461 -461 838
-845 838 -853 0 -14 -1652 -1674 -1684 -1692 -12 -7 -207 182 -862 836 -465
464 -845 849 -843 855 8 22 1684 1691 1699 1691 8 0 392 -377 852 -837z
m-3428 507 l38 -15 -6 -53 c-11 -95 12 -116 227 -203 80 -32 85 -40 59 -95
-15 -31 -28 -44 -43 -44 -17 0 -90 28 -224 85 -51 22 -78 33 -135 56 -73 29
-74 31 -60 73 13 40 33 56 63 48 17 -4 19 -2 12 19 -17 54 -17 115 0 133 10 9
20 16 24 14 3 -2 23 -10 45 -18z m5588 -321 c10 -47 1 -68 -30 -75 -31 -6
-110 -31 -162 -49 -19 -7 -62 -20 -95 -30 -33 -9 -76 -23 -95 -30 -19 -7 -62
-20 -95 -30 -33 -9 -78 -23 -100 -31 -62 -21 -82 -18 -100 17 -9 17 -15 42
-13 56 3 22 12 29 63 46 33 11 76 25 95 32 19 7 62 20 95 30 102 30 159 47
195 60 19 7 62 20 95 30 33 9 69 21 80 25 29 11 58 -11 67 -51z m-5342 -179
c0 -17 -9 -49 -20 -70 l-20 -40 -74 0 c-96 0 -111 -13 -127 -100 -20 -116 -24
-108 70 -163 90 -53 91 -54 62 -129 -13 -36 -32 -35 -93 2 -26 17 -50 30 -52
30 -3 0 -50 27 -106 60 -56 33 -103 60 -105 60 -2 0 -49 27 -105 60 -56 33
-104 60 -108 60 -3 0 -16 9 -28 21 -18 17 -21 28 -17 62 7 63 23 98 51 108 14
5 79 14 144 19 65 5 151 13 191 19 83 12 232 27 295 29 41 2 42 1 42 -28z
m5085 -127 c89 -32 165 -136 165 -225 0 -41 -34 -110 -71 -144 -41 -37 -116
-66 -161 -62 -32 3 -33 5 -45 68 -7 36 -17 98 -22 139 -5 40 -14 78 -19 83
-19 19 -57 0 -75 -37 -22 -45 -22 -94 0 -162 21 -66 12 -88 -37 -88 -32 0 -35
3 -57 60 -31 80 -32 190 -2 252 52 107 199 159 324 116z m-3528 -3128 c57 -17
63 -30 63 -134 0 -61 28 -367 36 -391 4 -10 13 1 29 30 12 25 35 65 49 90 14
25 29 52 33 60 6 14 82 145 104 180 5 8 13 24 18 35 17 40 37 48 94 39 63 -11
69 -26 30 -86 -37 -58 -51 -80 -60 -98 -4 -8 -19 -33 -33 -55 -14 -22 -30 -49
-37 -60 -78 -133 -187 -306 -197 -314 -10 -8 -29 -8 -72 2 -72 16 -84 34 -84
127 0 36 -5 94 -10 130 -6 36 -15 121 -20 190 -6 69 -15 149 -21 177 -11 57
-5 93 15 93 7 0 35 -7 63 -15z m1460 -47 c8 -12 25 -76 59 -233 9 -38 22 -95
29 -125 58 -244 59 -251 12 -274 -57 -27 -77 -14 -93 60 -7 32 -20 88 -29 124
-8 36 -20 92 -25 124 -6 32 -15 67 -20 77 -6 10 -10 34 -10 54 0 57 -19 57
-96 0 -19 -14 -54 22 -54 56 0 22 12 37 58 73 87 67 149 90 169 64z m-677 -78
c12 -7 14 -31 11 -122 -2 -62 -6 -203 -10 -313 l-6 -200 -55 0 -55 0 -3 258
c-2 243 -3 257 -21 257 -10 0 -24 -7 -31 -15 -7 -8 -25 -15 -40 -15 -24 0 -28
5 -34 38 -5 32 -2 40 22 59 15 13 31 23 35 23 5 0 23 6 40 14 18 8 39 17 47
19 25 9 84 7 100 -3z m370 -501 c20 -17 25 -31 25 -65 0 -52 -10 -64 -63 -71
-34 -5 -44 -1 -66 20 -34 34 -34 73 1 109 32 33 68 36 103 7z"/>
<path d="M4794 7463 c-4 -16 -20 -56 -36 -91 -16 -34 -28 -70 -26 -79 3 -19
38 -30 102 -32 38 -1 38 -1 32 32 -3 17 -10 60 -16 95 -16 97 -42 133 -56 75z"/>
<path d="M5720 6893 c-26 -9 -60 -46 -60 -63 0 -9 11 -27 24 -39 19 -18 33
-22 72 -19 42 3 51 7 71 37 24 36 19 65 -14 75 -38 10 -79 14 -93 9z"/>
<path d="M2871 6678 c-23 -24 -31 -43 -31 -69 0 -39 30 -79 59 -79 25 0 81 65
81 93 0 33 -37 87 -59 87 -11 0 -34 -15 -50 -32z"/>
<path d="M6450 6230 c-45 -45 -4 -120 65 -120 37 0 95 34 95 55 0 14 -46 58
-77 74 -32 16 -61 13 -83 -9z"/>
<path d="M6830 5844 c-84 -47 -111 -108 -74 -164 28 -41 45 -50 102 -50 65 0
131 35 162 84 28 47 25 79 -11 121 -28 32 -36 35 -83 35 -35 -1 -65 -8 -96
-26z"/>
<path d="M4245 5520 c-104 -24 -152 -41 -255 -92 -111 -54 -153 -85 -266 -192
-180 -171 -284 -372 -323 -624 -20 -133 -10 -304 25 -424 8 -26 14 -52 14 -58
0 -14 19 -59 63 -150 123 -253 356 -459 622 -549 141 -47 192 -53 386 -49 101
3 198 10 214 16 17 5 57 18 90 28 198 58 433 232 554 410 50 73 141 251 141
274 0 7 7 33 15 59 28 91 39 167 40 280 1 301 -107 564 -318 774 -161 161
-322 248 -553 301 -101 23 -341 20 -449 -4z m435 -147 c288 -69 513 -247 646
-512 49 -99 94 -289 94 -401 0 -70 -30 -238 -55 -308 -44 -125 -115 -239 -211
-338 -128 -133 -261 -211 -459 -269 -87 -26 -345 -26 -430 0 -206 62 -321 127
-448 252 -215 213 -312 511 -262 813 60 369 324 656 695 757 119 32 310 35
430 6z"/>
<path d="M3740 4689 c-63 -12 -86 -50 -60 -99 10 -18 13 -18 58 -5 65 20 111
19 150 -5 54 -33 40 -54 -40 -62 -128 -12 -187 -47 -208 -124 -11 -38 -10 -51
4 -89 26 -67 55 -85 135 -85 49 0 74 5 96 20 29 19 29 19 48 0 18 -20 68 -26
115 -14 22 6 22 8 22 181 0 222 -10 245 -119 277 -59 17 -129 19 -201 5z m178
-299 c3 -36 -1 -47 -20 -62 -13 -10 -36 -18 -52 -18 -33 0 -76 34 -76 60 0 26
41 58 80 63 62 7 65 5 68 -43z"/>
<path d="M4285 4682 c-69 -23 -102 -48 -130 -97 -21 -36 -25 -54 -25 -129 0
-121 31 -178 119 -218 37 -16 60 -19 143 -16 89 3 102 5 118 25 14 17 17 33
13 65 -3 24 -7 44 -8 46 -2 2 -23 -9 -48 -23 -58 -32 -102 -32 -149 0 -85 58
-63 232 32 252 46 9 66 6 119 -19 47 -22 62 -16 60 27 -2 53 -14 69 -64 87
-62 21 -115 22 -180 0z"/>
<path d="M4817 4675 c-45 -22 -51 -23 -72 -9 -15 10 -41 14 -77 12 l-53 -3 0
-225 0 -225 34 -3 c19 -2 50 -1 68 3 l33 6 0 159 c0 153 1 159 22 174 30 21
71 20 91 -2 14 -16 17 -43 17 -168 0 -103 4 -154 12 -162 15 -15 92 -16 119
-2 17 10 19 23 19 164 0 135 2 155 18 169 23 21 62 22 88 3 17 -13 19 -30 22
-175 l3 -160 33 -6 c18 -4 48 -5 67 -3 l34 3 3 184 c2 181 2 185 -22 221 -24
37 -78 70 -113 70 -10 0 -38 -11 -63 -25 -25 -13 -55 -29 -66 -36 -18 -9 -28
-6 -68 25 -56 43 -84 45 -149 11z"/>
<path d="M1750 5189 c-25 -4 -73 -8 -107 -8 -34 -1 -64 -5 -68 -11 -3 -5 18
-21 47 -35 29 -15 76 -40 105 -56 l52 -30 16 25 c19 28 26 118 10 121 -5 1
-30 -1 -55 -6z"/>
<path d="M7186 5082 c-8 -13 13 -163 25 -178 16 -20 23 -18 58 15 44 41 43 91
-3 137 -32 32 -69 44 -80 26z"/>
</g>
</svg>
