 <svg  version="1.0" xmlns="http://www.w3.org/2000/svg"  height="28.0" width="28.0" viewBox="0 5 900.000000 900.000000"  preserveAspectRatio="xMidYMid meet">  <g transform="translate(0.000000,900.000000) scale(0.100000,-0.100000)" fill="#4e2a84" stroke="none"> <path d="M4180 8900 c-96 -5 -193 -13 -215 -19 -22 -6 -62 -11 -90 -11 -27 0 -75 -7 -105 -15 -30 -8 -71 -15 -91 -15 -20 0 -56 -7 -79 -15 -23 -8 -54 -15 -69 -15 -14 0 -46 -6 -71 -14 -43 -14 -92 -27 -170 -46 -33 -8 -47 -12 -130 -40 -19 -6 -48 -15 -65 -20 -48 -13 -98 -31 -128 -46 -16 -8 -36 -14 -46 -14 -9 0 -26 -7 -37 -15 -10 -8 -27 -15 -36 -15 -9 0 -29 -6 -45 -14 -15 -7 -44 -20 -63 -28 -19 -8 -64 -29 -100 -45 -36 -17 -72 -34 -80 -37 -8 -3 -23 -10 -32 -16 -10 -5 -26 -15 -35 -20 -10 -6 -25 -13 -33 -16 -8 -3 -22 -10 -30 -15 -8 -5 -27 -14 -42 -20 -16 -6 -28 -15 -28 -20 0 -5 -9 -9 -19 -9 -11 0 -23 -5 -26 -11 -4 -5 -17 -15 -28 -20 -12 -5 -35 -18 -52 -29 -16 -11 -39 -24 -50 -30 -11 -6 -33 -19 -50 -30 -16 -11 -37 -23 -45 -27 -8 -3 -31 -19 -51 -35 -20 -15 -40 -28 -43 -28 -8 0 -286 -209 -301 -225 -5 -6 -30 -27 -55 -45 -131 -99 -486 -459 -596 -605 -21 -27 -43 -54 -50 -60 -16 -15 -134 -173 -134 -180 0 -4 -13 -24 -30 -45 -16 -21 -30 -41 -30 -45 0 -4 -13 -24 -30 -45 -16 -21 -30 -40 -30 -43 0 -3 -12 -25 -27 -49 -44 -68 -52 -82 -63 -103 -6 -11 -26 -47 -45 -80 -33 -59 -153 -298 -181 -362 -8 -18 -21 -50 -30 -70 -9 -21 -23 -51 -30 -66 -8 -16 -14 -35 -14 -44 0 -8 -6 -27 -14 -41 -15 -30 -33 -81 -46 -127 -11 -39 -29 -91 -46 -133 -8 -18 -14 -43 -14 -56 0 -13 -7 -37 -15 -52 -8 -16 -15 -42 -15 -57 0 -16 -5 -38 -12 -50 -6 -12 -15 -42 -19 -67 -11 -63 -28 -147 -41 -200 -6 -25 -14 -77 -18 -116 -3 -38 -10 -76 -14 -82 -4 -7 -11 -65 -16 -130 -34 -456 -34 -461 -21 -651 23 -348 29 -426 40 -454 6 -16 11 -48 11 -71 0 -24 7 -65 15 -92 8 -27 15 -62 15 -78 0 -16 6 -52 14 -80 23 -83 37 -138 45 -181 4 -22 13 -50 19 -62 7 -12 12 -35 12 -50 0 -16 7 -38 15 -49 8 -10 15 -29 15 -41 0 -12 6 -37 14 -55 22 -54 38 -101 43 -130 3 -15 11 -33 19 -39 8 -6 14 -21 14 -33 0 -12 7 -31 15 -42 8 -10 15 -27 15 -36 0 -9 6 -29 14 -45 8 -15 22 -46 32 -68 9 -22 21 -47 26 -55 4 -8 11 -22 14 -30 13 -33 108 -219 140 -275 18 -33 38 -69 44 -80 6 -11 19 -33 30 -50 11 -16 24 -39 30 -50 15 -29 32 -56 63 -96 15 -20 27 -40 27 -44 0 -3 19 -32 43 -63 24 -31 46 -65 50 -75 3 -9 11 -17 17 -17 5 0 10 -4 10 -10 0 -9 64 -98 79 -110 3 -3 32 -38 64 -77 83 -104 133 -159 298 -323 158 -158 198 -194 274 -254 28 -22 55 -45 60 -51 15 -17 253 -195 261 -195 3 0 23 -14 44 -30 21 -16 42 -30 48 -30 6 0 12 -3 14 -7 3 -9 55 -46 78 -56 8 -4 29 -16 45 -27 17 -11 39 -24 50 -30 11 -6 47 -26 80 -45 33 -19 96 -52 140 -75 44 -23 87 -45 95 -49 61 -32 80 -41 93 -41 8 0 20 -7 27 -15 7 -8 21 -15 30 -15 10 0 31 -6 47 -14 15 -8 46 -22 68 -31 22 -10 53 -24 68 -31 16 -8 36 -14 45 -14 9 0 26 -7 36 -15 11 -8 31 -15 45 -15 14 0 35 -7 45 -15 11 -8 31 -15 45 -15 14 0 35 -7 45 -15 11 -8 34 -15 51 -15 17 0 35 -4 41 -10 5 -5 30 -14 54 -19 64 -14 128 -31 180 -47 25 -8 56 -14 70 -14 14 0 47 -7 74 -15 27 -8 65 -15 85 -15 20 0 58 -7 85 -15 27 -8 72 -15 100 -15 28 0 87 -7 131 -15 93 -17 800 -20 895 -4 30 5 98 13 150 18 52 5 108 14 123 20 16 6 45 11 66 11 21 0 60 7 87 15 27 8 60 15 74 15 14 0 45 6 70 14 52 16 115 33 179 47 24 5 49 13 55 18 6 5 27 11 46 14 39 5 90 22 133 43 16 8 37 14 47 14 10 0 31 6 47 14 15 8 48 22 73 31 60 23 125 49 210 87 68 31 306 150 365 183 33 19 69 39 80 45 11 6 34 19 50 30 17 11 37 23 45 27 8 3 31 19 51 35 20 15 40 28 44 28 4 0 24 14 45 30 21 16 43 30 49 30 6 0 11 5 11 10 0 6 8 14 18 17 18 7 171 119 187 137 6 7 33 29 60 50 75 56 185 157 314 287 190 190 264 273 381 429 35 47 66 87 69 90 14 12 192 275 204 300 4 8 16 29 27 45 11 17 24 39 30 50 5 11 14 27 19 35 5 8 12 22 15 30 4 8 15 29 26 45 11 17 22 37 26 45 3 8 10 22 15 30 5 8 12 22 15 30 3 8 10 22 15 30 5 8 12 22 15 30 3 8 10 22 15 30 5 8 12 22 15 30 3 8 12 27 20 42 8 14 14 33 14 41 0 8 7 20 15 27 8 7 15 23 15 35 0 12 7 28 15 35 8 7 15 22 15 34 0 11 7 30 15 40 8 11 15 29 15 40 0 12 7 30 15 40 8 11 15 29 15 40 0 12 7 30 15 40 8 11 15 32 15 46 0 14 5 31 11 37 6 6 15 29 19 50 5 21 13 53 19 71 6 17 16 47 22 65 6 17 15 50 19 72 4 22 12 53 19 68 6 16 11 41 11 56 0 16 7 45 15 64 8 20 15 51 15 69 0 18 7 55 15 82 8 27 15 71 15 97 0 26 5 60 11 76 6 15 14 80 19 143 38 504 38 411 0 945 -4 61 -13 123 -19 138 -6 16 -11 50 -11 76 0 26 -7 70 -15 97 -8 27 -15 64 -15 82 0 18 -7 49 -15 69 -8 19 -15 49 -15 65 0 16 -7 45 -15 65 -8 19 -15 47 -15 62 -1 14 -7 37 -15 51 -8 14 -14 36 -15 48 0 13 -6 38 -14 55 -8 18 -16 43 -19 57 -6 33 -26 88 -43 123 -8 16 -14 36 -14 46 0 9 -7 26 -15 37 -8 10 -15 28 -15 40 0 11 -7 29 -15 40 -8 10 -15 29 -15 40 0 12 -7 27 -15 34 -8 7 -15 23 -15 35 0 12 -7 28 -15 35 -8 7 -15 19 -15 27 0 8 -6 27 -14 41 -8 15 -38 74 -66 132 -28 58 -67 132 -86 165 -18 33 -38 69 -44 80 -6 11 -19 34 -30 50 -11 17 -24 39 -30 50 -15 29 -32 56 -62 96 -16 20 -28 40 -28 44 0 3 -20 33 -45 65 -25 32 -45 62 -45 67 0 4 -14 21 -30 37 -17 16 -30 34 -30 40 0 7 -14 26 -30 44 -17 19 -46 54 -66 80 -111 146 -465 504 -594 602 -25 18 -49 39 -55 45 -18 20 -254 195 -264 195 -5 0 -11 7 -15 15 -3 8 -10 15 -17 15 -6 0 -28 13 -48 28 -20 16 -43 32 -51 35 -8 4 -28 16 -45 27 -16 11 -39 24 -50 30 -11 6 -33 19 -50 30 -16 11 -40 24 -52 29 -11 5 -24 15 -28 20 -3 6 -15 11 -26 11 -10 0 -19 4 -19 9 0 5 -12 14 -27 20 -16 6 -37 16 -48 22 -39 23 -50 29 -65 35 -8 3 -22 10 -30 15 -8 5 -22 12 -30 15 -8 3 -44 20 -80 36 -36 17 -81 37 -100 45 -19 9 -48 22 -63 29 -16 8 -36 14 -45 14 -9 0 -26 7 -36 15 -11 8 -28 15 -37 15 -10 0 -30 6 -46 14 -30 15 -80 33 -128 46 -16 5 -46 14 -65 20 -83 28 -97 32 -130 40 -78 19 -127 32 -170 46 -25 8 -56 14 -70 14 -14 0 -47 7 -74 15 -27 8 -65 15 -85 15 -20 0 -58 7 -85 15 -27 8 -69 15 -93 15 -23 0 -82 6 -130 14 -110 18 -535 27 -773 16z m789 -165 c42 -8 97 -15 123 -15 26 0 59 -5 75 -11 15 -6 55 -15 88 -19 57 -7 89 -13 195 -40 25 -6 63 -15 85 -20 71 -15 129 -32 163 -46 18 -8 43 -14 55 -14 12 0 31 -7 41 -15 11 -8 32 -15 46 -15 14 0 35 -7 46 -15 10 -8 28 -15 40 -15 11 0 29 -7 40 -15 10 -8 28 -15 40 -15 11 0 29 -7 40 -15 10 -8 29 -15 40 -15 12 0 27 -7 34 -15 7 -8 23 -15 35 -15 12 0 28 -7 35 -15 7 -8 19 -15 27 -15 8 0 27 -6 41 -14 15 -8 34 -17 42 -20 8 -3 22 -10 30 -15 8 -5 22 -12 30 -15 8 -3 22 -10 30 -15 8 -5 22 -12 30 -15 8 -4 42 -22 75 -40 33 -19 80 -45 105 -58 25 -12 47 -26 50 -30 3 -4 14 -11 25 -15 11 -4 73 -44 139 -88 65 -44 127 -85 138 -91 10 -6 31 -22 46 -35 15 -13 43 -35 64 -49 39 -27 159 -123 223 -180 47 -40 378 -373 415 -416 14 -16 41 -49 60 -74 18 -25 39 -49 45 -55 22 -20 165 -214 165 -225 0 -6 7 -13 15 -16 8 -4 15 -11 15 -16 0 -6 13 -27 28 -47 16 -20 32 -43 36 -51 9 -19 22 -40 69 -114 21 -32 43 -68 48 -80 5 -12 18 -34 29 -51 11 -16 22 -37 26 -45 3 -8 9 -22 14 -30 13 -23 110 -221 125 -255 7 -16 21 -48 30 -70 10 -22 24 -53 31 -68 8 -16 14 -35 14 -42 0 -7 6 -26 14 -42 28 -55 46 -104 46 -121 0 -10 6 -26 14 -37 7 -11 16 -33 18 -50 3 -16 11 -45 17 -62 6 -18 16 -48 22 -65 6 -18 15 -51 19 -73 12 -56 29 -122 46 -176 8 -26 14 -62 14 -82 0 -19 7 -54 15 -77 8 -23 15 -61 15 -84 0 -22 7 -66 15 -96 8 -30 15 -84 15 -120 0 -36 7 -112 15 -170 9 -63 14 -187 14 -310 0 -123 -5 -247 -14 -310 -8 -58 -15 -134 -15 -170 0 -36 -7 -90 -15 -120 -8 -30 -15 -74 -15 -97 0 -23 -5 -54 -11 -70 -6 -15 -15 -53 -19 -83 -8 -57 -24 -130 -43 -190 -6 -19 -14 -53 -18 -75 -4 -22 -12 -55 -18 -72 -25 -73 -33 -99 -41 -128 -13 -48 -31 -98 -46 -128 -8 -16 -14 -36 -14 -46 0 -9 -7 -26 -15 -37 -8 -10 -15 -27 -15 -36 0 -9 -6 -29 -14 -45 -7 -15 -21 -45 -30 -65 -9 -21 -22 -53 -30 -70 -8 -18 -17 -40 -20 -48 -3 -8 -10 -22 -15 -30 -5 -8 -26 -49 -46 -90 -20 -41 -40 -82 -45 -90 -5 -8 -11 -22 -14 -30 -4 -8 -15 -28 -26 -45 -11 -16 -24 -39 -29 -50 -5 -11 -20 -36 -33 -55 -13 -19 -27 -42 -31 -50 -4 -8 -16 -28 -27 -45 -11 -16 -23 -37 -27 -45 -3 -8 -12 -19 -20 -23 -7 -4 -13 -13 -13 -19 0 -5 -13 -27 -30 -48 -16 -21 -30 -41 -30 -44 0 -8 -148 -206 -165 -221 -6 -5 -27 -30 -45 -55 -19 -25 -53 -65 -75 -90 -50 -55 -351 -356 -391 -390 -27 -24 -177 -146 -199 -163 -118 -89 -226 -167 -231 -167 -3 0 -23 -13 -43 -28 -20 -16 -43 -32 -51 -35 -8 -4 -28 -16 -45 -27 -16 -11 -39 -24 -50 -30 -11 -6 -33 -19 -50 -30 -16 -11 -39 -24 -50 -30 -11 -5 -27 -14 -35 -19 -8 -5 -22 -12 -30 -15 -8 -4 -28 -15 -45 -26 -28 -18 -35 -22 -67 -35 -7 -3 -20 -9 -28 -14 -14 -9 -116 -55 -190 -88 -19 -8 -48 -21 -63 -29 -16 -8 -37 -14 -47 -14 -9 0 -23 -7 -30 -15 -7 -8 -22 -15 -34 -15 -12 0 -31 -7 -42 -15 -10 -8 -27 -15 -36 -15 -10 0 -32 -6 -50 -14 -51 -21 -99 -37 -138 -46 -19 -4 -48 -13 -65 -18 -16 -6 -57 -18 -90 -27 -33 -9 -81 -23 -106 -31 -26 -7 -61 -14 -78 -14 -17 0 -48 -7 -68 -15 -19 -8 -52 -15 -73 -15 -20 0 -59 -7 -86 -15 -27 -8 -72 -15 -101 -15 -28 0 -85 -7 -125 -16 -108 -24 -839 -24 -946 0 -40 9 -97 16 -125 16 -29 0 -74 7 -101 15 -27 8 -67 15 -88 15 -22 0 -49 5 -60 11 -12 7 -47 15 -77 20 -59 8 -127 24 -176 41 -16 6 -46 13 -65 16 -19 2 -44 11 -55 18 -11 8 -30 14 -43 14 -13 0 -33 5 -45 12 -12 6 -35 15 -52 19 -43 10 -96 29 -127 45 -14 8 -33 14 -41 14 -9 0 -28 6 -44 14 -15 7 -44 20 -63 28 -19 8 -52 22 -72 31 -81 36 -104 46 -118 51 -8 3 -22 10 -30 15 -8 5 -22 12 -30 15 -8 3 -23 10 -32 16 -37 21 -55 30 -103 55 -27 15 -63 35 -80 45 -16 11 -39 24 -50 29 -11 5 -36 20 -55 33 -19 13 -42 27 -50 31 -38 19 -131 81 -202 134 -31 24 -61 43 -67 43 -6 0 -11 4 -11 9 0 5 -17 19 -37 32 -21 12 -42 27 -48 33 -5 6 -30 27 -55 46 -91 69 -189 158 -340 310 -171 171 -219 223 -270 290 -18 25 -39 50 -45 55 -19 17 -161 209 -168 228 -3 9 -11 17 -17 17 -5 0 -10 5 -10 11 0 6 -13 28 -28 48 -16 20 -32 43 -36 51 -8 17 -20 38 -59 98 -15 23 -37 59 -48 80 -11 20 -29 51 -40 67 -10 17 -21 37 -25 45 -3 8 -9 22 -14 30 -28 49 -110 218 -110 227 0 6 -7 16 -15 23 -8 7 -15 21 -15 30 0 10 -6 31 -14 47 -19 38 -41 88 -61 143 -9 25 -23 58 -31 73 -8 16 -14 39 -14 51 0 12 -6 30 -14 41 -7 11 -16 34 -18 50 -3 17 -11 46 -18 65 -28 82 -32 97 -39 135 -4 22 -13 50 -19 62 -7 12 -12 36 -12 53 0 17 -7 47 -15 67 -8 19 -15 50 -15 68 0 18 -7 52 -15 75 -8 23 -15 61 -15 84 0 22 -7 66 -15 96 -8 30 -15 84 -15 120 0 36 -7 110 -15 165 -20 137 -20 527 0 659 8 55 15 127 15 160 0 34 7 86 15 116 8 30 15 74 15 96 0 23 7 61 15 84 8 23 15 58 15 77 0 18 7 50 15 70 8 19 15 50 15 67 1 17 7 42 15 56 8 14 15 39 15 55 0 17 7 41 15 55 8 14 15 39 15 55 0 17 7 39 15 49 8 11 15 31 15 45 0 14 7 35 15 45 8 11 15 31 15 45 0 14 7 35 15 45 8 11 15 28 15 37 0 10 7 31 15 48 8 17 22 45 30 62 8 17 15 39 15 49 0 9 7 23 15 30 8 7 15 23 15 35 0 12 7 28 15 35 8 7 15 18 15 24 0 17 157 323 214 416 9 14 18 33 22 43 3 9 10 17 15 17 5 0 14 10 19 23 6 12 19 36 30 52 11 17 23 37 27 46 5 9 18 29 31 45 12 16 59 79 104 139 136 183 222 282 418 475 197 195 218 215 290 270 25 19 55 44 68 56 12 12 41 34 65 50 23 16 48 34 54 41 12 11 137 97 171 118 9 6 44 28 77 50 74 49 88 57 150 89 28 15 64 36 80 46 28 19 35 22 68 35 6 3 19 9 27 14 8 5 22 12 30 15 8 3 22 10 30 15 8 5 22 12 30 15 8 3 22 10 30 15 45 26 80 41 93 41 8 0 20 7 27 15 7 8 23 15 35 15 12 0 28 7 35 15 7 8 22 15 34 15 11 0 30 7 40 15 11 8 29 15 40 15 12 0 30 7 40 15 11 8 29 15 40 15 12 0 30 7 40 15 11 8 31 15 45 15 14 0 35 7 45 15 11 8 30 15 43 15 12 0 37 6 55 14 34 14 92 31 163 46 22 5 60 14 85 20 100 25 128 31 190 40 36 5 78 14 94 19 15 6 51 11 79 11 29 0 70 5 92 11 115 30 862 33 1014 4z"/> <path d="M4110 8512 c-6 -2 -10 -14 -10 -28 0 -18 7 -25 28 -29 60 -13 57 1 60 -299 l2 -276 -35 -22 c-23 -13 -34 -26 -31 -35 3 -8 6 -15 6 -16 0 -6 251 2 260 8 22 14 9 34 -27 41 -79 15 -83 22 -83 155 l0 119 53 0 c62 0 85 -18 123 -100 4 -8 20 -31 36 -51 15 -20 28 -41 28 -47 0 -5 22 -33 49 -61 l48 -53 69 -1 c63 -2 69 0 69 18 0 14 -8 21 -24 23 -24 4 -121 94 -121 113 0 6 -27 46 -60 89 -54 71 -75 120 -52 120 23 0 82 76 90 114 10 52 -4 124 -31 154 -47 50 -71 56 -260 62 -97 3 -182 4 -187 2z m338 -89 c38 -29 52 -59 52 -111 0 -49 -18 -81 -60 -110 -28 -19 -45 -22 -95 -20 l-60 3 -3 129 c-2 92 1 132 9 137 25 15 123 -3 157 -28z"/> <path d="M4937 8503 c-17 -16 -5 -45 23 -56 40 -15 64 -62 57 -113 -14 -97 -26 -153 -36 -172 -6 -11 -11 -34 -11 -50 0 -16 -7 -49 -15 -72 -8 -23 -15 -56 -15 -72 0 -16 -9 -46 -20 -67 -16 -33 -26 -40 -60 -46 -78 -13 -36 -65 53 -65 23 0 55 -7 71 -15 15 -8 39 -15 53 -15 20 0 24 4 21 22 -2 13 -15 28 -29 35 -43 21 -52 38 -40 75 14 46 31 123 41 188 16 100 36 184 46 186 5 2 33 -45 62 -104 30 -59 62 -120 72 -137 20 -32 52 -89 83 -145 10 -19 27 -48 38 -65 10 -16 22 -37 25 -45 40 -100 94 -133 94 -59 0 17 7 61 16 97 9 37 22 92 29 122 26 105 36 155 46 213 5 32 13 67 19 77 5 10 10 30 10 45 0 20 7 28 30 36 51 18 48 77 -3 65 -11 -3 -46 4 -80 15 -70 22 -100 22 -105 -3 -2 -11 10 -24 35 -37 52 -26 64 -54 48 -111 -16 -55 -33 -137 -44 -210 -13 -81 -28 -141 -39 -152 -6 -6 -25 22 -51 74 -41 80 -62 118 -116 211 -13 23 -29 51 -35 62 -6 11 -19 34 -30 50 -11 17 -31 53 -45 80 -58 111 -72 129 -106 138 -19 5 -38 13 -43 18 -12 11 -40 12 -49 2z"/> <path d="M3807 8464 c-7 -7 -39 -14 -157 -35 -36 -6 -82 -18 -103 -25 -20 -8 -60 -14 -87 -14 -39 0 -52 -4 -60 -19 -17 -33 -12 -41 29 -41 46 0 71 -29 71 -83 0 -19 7 -51 15 -70 8 -20 15 -52 15 -72 0 -20 7 -52 15 -72 8 -19 15 -50 15 -68 0 -18 7 -52 15 -75 8 -23 15 -62 15 -87 0 -38 -4 -46 -30 -61 -17 -9 -29 -24 -28 -32 5 -23 49 -23 114 -1 32 12 72 21 90 21 17 0 53 7 80 15 27 8 65 15 85 15 58 0 126 83 128 157 1 23 -40 45 -47 25 -14 -42 -72 -99 -117 -115 -5 -2 -26 -10 -45 -17 -19 -8 -57 -14 -85 -14 l-50 -1 -3 40 c-2 22 -9 60 -16 85 -37 121 -30 134 75 143 60 5 77 3 91 -10 10 -9 18 -22 18 -28 0 -20 24 -35 40 -25 12 7 12 18 1 72 -7 35 -16 82 -20 106 -4 23 -11 45 -14 48 -13 14 -38 -7 -44 -36 -9 -48 -48 -66 -168 -82 -15 -2 -21 4 -23 22 -2 14 -9 45 -17 70 -8 25 -16 70 -17 100 -3 52 -2 55 22 58 14 1 57 10 97 19 81 19 94 14 118 -44 17 -39 31 -42 47 -9 16 38 -10 140 -37 144 -12 2 -24 0 -28 -4z"/> <path d="M3105 8282 c-16 -8 -37 -19 -45 -24 -8 -4 -22 -11 -30 -14 -8 -3 -30 -12 -47 -20 -62 -28 -108 -47 -143 -62 -19 -8 -48 -21 -63 -28 -16 -8 -36 -14 -45 -14 -9 0 -26 -7 -36 -15 -11 -8 -30 -15 -42 -15 -38 0 -39 -53 -4 -148 19 -51 45 -39 46 22 1 51 21 77 69 92 11 3 39 15 63 26 47 22 72 19 72 -11 0 -11 6 -32 14 -48 7 -15 21 -46 31 -68 30 -70 47 -109 61 -143 41 -97 74 -172 86 -195 10 -19 1 -36 -34 -67 -12 -10 -16 -23 -12 -37 8 -29 14 -29 71 6 27 15 76 37 111 47 46 13 62 22 62 36 0 23 -35 42 -57 29 -19 -10 -63 13 -63 34 0 8 -6 26 -14 42 -14 29 -39 86 -60 138 -7 17 -21 48 -30 70 -10 22 -24 54 -31 70 -7 17 -26 58 -43 93 l-30 62 45 20 c25 11 51 20 57 20 6 0 20 7 30 15 30 22 67 18 97 -11 50 -47 64 -10 27 68 -20 41 -27 47 -53 47 -16 -1 -43 -8 -60 -17z"/> <path d="M6237 8113 c-15 -14 -6 -46 18 -65 14 -11 25 -24 25 -29 0 -6 -17 -36 -38 -67 -21 -32 -41 -64 -45 -72 -4 -8 -16 -28 -27 -45 -11 -16 -23 -37 -26 -45 -4 -8 -13 -22 -19 -30 -7 -8 -27 -42 -45 -74 -29 -52 -33 -69 -33 -135 0 -65 3 -82 25 -117 27 -43 98 -109 133 -125 11 -5 27 -13 35 -18 69 -40 158 -53 203 -29 64 35 100 65 135 112 21 28 41 58 45 66 4 8 16 29 27 45 11 17 24 39 30 50 6 11 19 34 30 50 11 17 23 37 27 45 23 50 47 70 85 70 36 0 38 2 38 30 0 22 -5 30 -17 30 -17 0 -125 68 -131 83 -7 15 -31 6 -37 -13 -4 -14 2 -30 19 -51 14 -17 26 -36 26 -44 0 -7 -15 -35 -33 -63 -19 -27 -37 -56 -41 -63 -3 -8 -15 -27 -26 -44 -11 -16 -23 -37 -27 -45 -33 -70 -110 -159 -160 -187 -64 -36 -186 7 -256 89 -37 44 -39 51 -39 110 0 73 10 96 108 243 22 33 43 67 47 75 4 8 20 38 37 65 27 48 31 50 72 50 62 0 59 29 -7 64 -27 15 -70 41 -94 59 -46 33 -53 36 -64 25z"/> <path d="M2356 7895 c-3 -8 -14 -15 -25 -15 -40 0 -151 -64 -189 -110 -28 -33 -52 -96 -52 -134 1 -49 50 -127 99 -157 38 -23 143 -26 181 -4 14 8 36 15 50 15 14 0 34 7 44 15 13 10 43 15 82 15 57 0 64 -2 88 -31 20 -24 26 -41 26 -80 0 -46 -4 -54 -49 -102 -47 -49 -101 -77 -148 -77 -31 0 -92 26 -116 48 -29 27 -43 28 -57 2 -9 -17 -2 -27 47 -75 l58 -56 53 6 c87 9 182 70 239 153 28 41 32 55 33 115 0 75 -12 101 -69 154 -45 42 -97 54 -170 41 -31 -5 -69 -16 -84 -24 -16 -8 -36 -14 -45 -14 -9 0 -36 -7 -59 -15 -38 -13 -46 -13 -76 1 -35 17 -67 59 -67 89 0 20 37 84 60 103 15 13 81 45 113 56 19 6 117 -31 117 -44 0 -12 28 -20 45 -14 25 10 17 30 -37 93 -53 61 -81 75 -92 46z"/> <path d="M4220 7580 c-80 -5 -161 -13 -180 -19 -19 -6 -48 -11 -65 -11 -27 0 -102 -15 -210 -41 -22 -6 -58 -14 -80 -19 -69 -15 -179 -50 -243 -76 -18 -8 -40 -14 -50 -14 -9 0 -26 -7 -36 -15 -11 -8 -26 -15 -33 -15 -21 0 -312 -139 -378 -181 -16 -10 -39 -23 -50 -29 -11 -6 -33 -19 -50 -30 -16 -11 -37 -23 -45 -27 -8 -3 -31 -19 -51 -35 -20 -15 -42 -28 -48 -28 -6 0 -11 -5 -11 -10 0 -6 -8 -13 -17 -17 -16 -6 -91 -59 -103 -73 -3 -3 -37 -31 -75 -62 -101 -80 -331 -313 -431 -437 -47 -58 -117 -153 -154 -211 -38 -58 -73 -110 -77 -115 -4 -6 -18 -28 -30 -50 -11 -22 -30 -56 -42 -75 -11 -19 -23 -42 -27 -50 -3 -8 -10 -22 -15 -30 -5 -8 -12 -22 -15 -30 -3 -8 -10 -22 -15 -30 -5 -8 -12 -22 -15 -30 -3 -8 -13 -31 -22 -50 -8 -19 -22 -51 -30 -70 -8 -19 -21 -48 -28 -63 -8 -16 -14 -36 -14 -46 0 -9 -7 -26 -15 -37 -8 -10 -15 -30 -15 -44 0 -14 -7 -34 -15 -44 -8 -11 -15 -31 -15 -45 -1 -14 -7 -37 -15 -51 -8 -14 -14 -36 -15 -49 0 -13 -6 -44 -14 -70 -39 -123 -73 -348 -86 -564 -17 -262 5 -572 55 -784 8 -34 15 -74 15 -90 1 -15 7 -39 15 -53 8 -14 15 -38 15 -55 0 -16 7 -41 15 -55 8 -14 14 -35 15 -46 0 -12 7 -35 15 -50 8 -16 15 -38 15 -49 0 -11 7 -29 15 -39 8 -11 15 -28 15 -37 0 -10 6 -30 14 -46 7 -15 21 -46 31 -68 37 -87 44 -103 80 -175 55 -111 88 -173 102 -188 7 -7 13 -17 13 -22 0 -17 220 -333 255 -365 6 -5 29 -32 50 -60 59 -74 269 -283 360 -356 43 -35 86 -70 95 -77 30 -25 180 -132 185 -132 9 0 70 -44 73 -52 2 -5 8 -8 14 -8 6 0 30 -13 55 -30 24 -16 50 -30 58 -30 8 0 17 -5 20 -11 4 -5 17 -14 28 -20 12 -5 29 -13 37 -18 17 -10 141 -67 185 -85 17 -7 46 -19 65 -28 19 -8 51 -22 70 -30 19 -9 50 -19 67 -22 18 -4 35 -12 38 -17 4 -5 17 -9 31 -9 14 0 35 -5 47 -12 12 -6 38 -15 57 -19 19 -4 49 -12 65 -17 46 -16 124 -34 180 -42 28 -4 75 -13 105 -18 281 -56 726 -56 1010 0 30 5 78 14 105 18 56 8 134 26 180 42 17 5 46 13 65 17 19 4 45 13 57 19 12 7 32 12 45 12 13 0 32 7 42 15 11 8 28 15 38 15 9 0 34 7 55 16 21 9 52 23 68 29 65 28 104 46 205 96 152 75 197 100 268 147 35 23 66 42 68 42 10 0 251 186 318 244 89 78 234 223 312 312 101 116 256 329 304 419 6 11 19 34 30 50 10 17 30 53 45 80 14 28 30 59 37 70 6 11 15 27 20 35 4 8 11 22 14 30 3 8 12 30 20 48 8 17 21 49 30 70 9 20 23 50 30 65 8 16 14 35 14 42 0 7 6 26 14 42 17 35 35 86 47 138 6 22 14 44 20 50 5 5 9 23 9 40 1 16 7 41 15 55 8 14 14 40 15 58 0 18 7 49 15 69 8 19 15 52 15 73 0 20 7 59 15 86 8 27 15 69 15 94 0 25 7 99 15 165 8 65 15 171 15 235 0 64 -7 170 -15 235 -8 66 -15 140 -15 165 0 25 -7 67 -15 94 -8 27 -15 66 -15 86 0 21 -7 54 -15 73 -8 20 -15 51 -15 69 -1 18 -7 44 -15 58 -8 14 -14 39 -15 56 0 16 -4 34 -9 40 -6 5 -14 27 -20 49 -10 43 -26 91 -48 142 -7 17 -13 36 -13 41 0 6 -6 23 -14 39 -8 15 -21 44 -29 63 -31 71 -79 175 -88 190 -5 8 -20 38 -34 65 -15 28 -35 64 -45 80 -11 17 -24 39 -30 50 -15 29 -32 56 -62 96 -16 20 -28 40 -28 43 0 4 -5 12 -10 19 -6 7 -42 54 -80 106 -132 178 -365 418 -525 540 -39 30 -72 57 -75 61 -3 4 -55 41 -116 81 -142 95 -145 97 -169 109 -11 6 -33 19 -50 30 -16 11 -37 22 -45 26 -8 3 -22 9 -30 14 -21 12 -159 79 -195 95 -16 7 -48 21 -70 30 -22 10 -53 24 -68 31 -16 8 -35 14 -42 14 -8 0 -29 6 -47 14 -64 26 -174 61 -243 76 -22 5 -58 13 -80 19 -121 30 -177 41 -207 41 -18 0 -60 7 -93 14 -76 18 -448 27 -645 16z m515 -80 c55 -6 132 -16 170 -22 39 -6 93 -14 120 -18 57 -8 129 -25 196 -46 26 -8 55 -14 65 -14 11 0 32 -7 48 -15 15 -8 38 -15 50 -15 12 0 31 -7 42 -15 10 -8 27 -15 36 -15 17 0 67 -19 121 -46 16 -8 37 -14 47 -14 9 0 23 -7 30 -15 7 -8 19 -15 27 -15 8 0 27 -6 41 -14 15 -8 34 -17 42 -20 8 -3 22 -10 30 -14 40 -23 59 -33 105 -57 28 -14 64 -34 80 -45 17 -11 39 -24 50 -30 40 -20 150 -95 174 -118 8 -8 33 -25 55 -40 23 -14 52 -35 66 -48 14 -12 63 -55 110 -94 140 -119 277 -266 418 -449 43 -55 172 -244 186 -272 4 -8 22 -41 41 -74 35 -62 69 -129 79 -155 3 -8 10 -22 15 -30 9 -15 32 -66 59 -130 8 -19 21 -47 29 -62 7 -14 13 -34 13 -45 0 -10 7 -27 15 -37 8 -11 15 -32 15 -47 0 -15 4 -30 9 -34 5 -3 12 -20 16 -38 4 -17 13 -52 20 -77 32 -106 45 -158 45 -181 0 -13 7 -46 15 -73 8 -27 15 -65 15 -85 0 -20 7 -68 15 -106 21 -100 21 -621 0 -732 -8 -43 -15 -94 -15 -114 0 -20 -7 -56 -15 -79 -8 -23 -15 -54 -15 -68 0 -24 -15 -86 -46 -183 -8 -26 -14 -55 -14 -66 0 -11 -7 -28 -15 -39 -8 -10 -15 -31 -15 -45 0 -14 -7 -34 -15 -45 -8 -10 -15 -27 -15 -37 0 -11 -6 -31 -13 -45 -13 -25 -26 -54 -62 -137 -25 -58 -87 -181 -120 -240 -19 -33 -39 -69 -45 -80 -6 -11 -19 -33 -30 -50 -11 -16 -25 -40 -31 -53 -7 -12 -16 -22 -21 -22 -4 0 -8 -5 -8 -10 0 -11 -138 -199 -169 -231 -17 -18 -32 -34 -130 -146 -84 -96 -249 -242 -402 -355 -143 -107 -158 -116 -181 -124 -10 -4 -18 -10 -18 -14 0 -5 -9 -12 -21 -15 -12 -4 -37 -18 -58 -32 -20 -13 -58 -36 -86 -49 -27 -14 -57 -29 -65 -34 -8 -5 -22 -11 -30 -14 -8 -3 -22 -10 -30 -15 -15 -9 -66 -32 -130 -59 -19 -8 -47 -21 -62 -29 -14 -7 -33 -13 -41 -13 -9 0 -28 -6 -44 -14 -37 -18 -90 -36 -133 -45 -19 -4 -45 -13 -57 -19 -12 -7 -32 -12 -44 -12 -11 0 -42 -6 -68 -14 -77 -24 -177 -46 -210 -46 -16 0 -60 -7 -98 -17 -100 -24 -716 -24 -816 0 -38 10 -86 17 -108 17 -22 0 -56 7 -76 15 -19 8 -47 15 -61 15 -24 0 -102 19 -167 42 -16 5 -46 14 -65 18 -45 10 -97 28 -133 46 -16 8 -36 14 -46 14 -9 0 -26 7 -37 15 -10 8 -29 15 -40 15 -12 0 -27 7 -34 15 -7 8 -19 15 -27 15 -8 0 -27 6 -41 14 -15 8 -34 17 -42 20 -8 3 -22 10 -30 15 -8 5 -35 19 -60 31 -25 11 -52 25 -60 30 -8 5 -53 32 -100 60 -116 68 -117 69 -182 118 -31 23 -61 42 -67 42 -5 0 -14 6 -18 13 -4 7 -37 35 -73 62 -103 78 -297 265 -409 395 -78 90 -181 227 -181 239 0 6 -5 11 -10 11 -6 0 -15 10 -21 23 -11 25 -20 39 -72 119 -21 32 -42 68 -47 80 -6 13 -19 37 -30 53 -11 17 -23 37 -26 45 -9 23 -65 142 -80 172 -8 14 -14 33 -14 41 0 8 -7 20 -15 27 -8 7 -15 22 -15 34 0 11 -7 30 -15 40 -8 11 -15 29 -15 41 0 11 -6 29 -14 40 -7 11 -16 34 -18 50 -3 17 -10 44 -16 60 -6 17 -18 55 -26 85 -8 30 -20 75 -27 100 -7 25 -16 68 -20 95 -4 28 -12 77 -18 110 -32 184 -43 334 -39 540 3 116 10 242 16 280 6 39 16 102 22 140 7 39 15 95 20 126 4 30 12 65 19 77 6 11 11 31 11 44 0 21 11 62 42 153 5 17 13 44 18 60 17 62 47 141 76 198 8 16 14 37 14 47 0 9 7 23 15 30 8 7 15 18 15 25 0 11 31 75 119 243 8 15 18 29 23 30 4 2 8 9 8 16 0 7 14 32 30 54 17 23 30 45 30 48 0 3 14 23 30 44 17 21 30 41 30 45 0 7 115 161 139 186 9 9 43 47 76 85 97 113 183 197 355 345 68 58 283 209 330 232 8 4 29 16 45 27 17 10 53 31 80 45 28 14 57 30 65 35 8 5 22 11 30 14 8 3 22 10 30 15 8 5 22 12 30 15 8 3 22 10 30 14 48 27 84 42 100 42 9 0 23 7 30 15 7 8 21 15 31 15 10 0 33 6 51 14 57 24 111 43 173 61 33 9 76 22 95 28 19 6 53 14 75 18 22 5 65 13 95 19 140 29 211 40 290 46 47 4 117 10 155 14 82 10 288 4 430 -10z"/> <path d="M4358 7334 c-3 -3 -62 -8 -129 -12 -103 -6 -124 -10 -127 -23 -2 -11 6 -18 26 -22 l29 -6 11 -113 c6 -62 14 -150 18 -195 l6 -81 -31 -16 c-33 -17 -39 -31 -18 -38 6 -3 76 -2 153 1 123 5 145 9 164 26 31 28 51 76 38 93 -12 14 -38 16 -38 2 0 -19 -76 -58 -125 -64 -76 -9 -87 2 -83 94 l3 75 49 3 c44 3 52 0 77 -28 16 -17 33 -28 39 -25 5 3 10 40 10 81 0 72 -1 74 -25 74 -17 0 -29 -8 -37 -25 -7 -16 -19 -25 -33 -25 -13 0 -36 -3 -52 -6 l-30 -6 -6 83 c-5 61 -3 85 6 91 6 4 38 8 69 8 57 0 58 -1 73 -36 13 -31 17 -34 35 -24 14 8 20 21 20 46 0 53 -15 74 -54 74 -18 0 -35 -3 -38 -6z"/> <path d="M3920 7290 c-8 -6 -31 -10 -51 -10 -22 0 -42 -7 -52 -18 -26 -29 -20 -42 17 -42 38 0 51 -12 59 -55 13 -68 33 -141 40 -152 4 -7 11 -35 14 -62 7 -61 -16 -105 -69 -132 -51 -26 -127 -25 -161 2 -27 21 -67 98 -67 129 0 10 -7 34 -15 53 -8 20 -15 50 -15 66 0 16 -4 33 -10 36 -16 10 -12 43 6 53 22 12 14 48 -11 45 -44 -4 -119 -24 -131 -34 -17 -14 -18 -39 -1 -40 6 -1 20 -2 30 -3 20 -1 57 -89 57 -136 1 -14 7 -36 15 -50 8 -14 14 -35 15 -47 0 -42 42 -103 92 -135 29 -19 162 -26 172 -9 3 4 18 11 33 14 66 15 129 107 120 174 -8 52 -31 146 -39 158 -3 6 -9 28 -13 50 -4 22 -12 48 -17 58 -7 13 -5 24 6 36 19 21 20 35 3 49 -8 7 -18 7 -27 2z"/> <path d="M5432 7107 c-40 -27 -72 -78 -72 -117 0 -38 31 -88 77 -125 107 -85 124 -121 80 -163 -17 -16 -36 -22 -71 -22 -86 0 -136 52 -136 141 0 32 -4 39 -19 39 -12 0 -22 -9 -26 -22 -3 -13 -11 -40 -17 -61 -11 -36 -10 -39 21 -71 18 -19 49 -42 69 -51 21 -10 45 -22 54 -26 34 -17 97 -10 136 15 54 34 72 66 72 127 0 51 0 51 -85 135 -47 46 -85 92 -85 102 0 39 29 62 77 62 40 0 50 -5 85 -40 32 -32 39 -45 35 -67 -6 -33 1 -53 19 -53 18 0 40 37 48 80 6 34 3 38 -43 72 -27 21 -61 40 -75 44 -15 3 -29 10 -32 15 -10 17 -79 8 -112 -14z"/> <path d="M3165 7023 c-78 -19 -152 -78 -186 -147 -24 -49 -26 -162 -4 -192 8 -10 15 -26 15 -34 1 -16 65 -90 79 -90 5 0 14 -6 21 -14 6 -8 24 -16 38 -18 25 -3 27 -7 30 -55 3 -56 24 -85 45 -64 6 6 10 29 8 50 l-2 39 50 12 c27 6 54 9 59 6 21 -13 168 -8 202 7 46 19 80 53 80 78 0 30 -30 36 -50 9 -14 -18 -30 -24 -74 -28 -71 -6 -78 9 -37 71 27 38 31 54 31 108 0 165 -156 298 -305 262z m76 -65 c52 -16 120 -75 148 -128 32 -62 29 -136 -9 -188 -67 -93 -191 -97 -282 -8 -87 85 -104 197 -39 269 29 32 92 64 129 66 7 1 31 -5 53 -11z"/> <path d="M5850 6950 c-12 -8 -12 -11 3 -28 26 -28 21 -48 -26 -110 -91 -118 -137 -202 -137 -249 0 -58 76 -151 159 -195 52 -28 119 -23 165 12 34 26 196 233 196 251 0 4 16 10 35 13 19 4 37 11 39 15 8 12 -101 91 -124 91 -24 0 -28 -35 -5 -44 20 -7 19 -33 -2 -61 -10 -12 -25 -33 -33 -45 -8 -12 -20 -28 -25 -34 -6 -6 -23 -31 -39 -55 -66 -102 -128 -126 -205 -79 -50 31 -60 42 -75 85 -17 49 -5 90 49 165 22 31 58 81 79 112 30 42 43 53 55 47 22 -11 41 -3 41 19 0 11 -17 28 -43 43 -24 14 -49 33 -57 41 -14 18 -28 20 -50 6z"/> <path d="M2681 6726 c-25 -26 -25 -58 -3 -121 6 -16 19 -57 28 -90 10 -33 28 -92 41 -131 13 -39 23 -74 23 -78 0 -12 -71 14 -163 60 -16 8 -36 14 -45 14 -9 0 -26 7 -36 15 -11 8 -26 15 -35 15 -8 0 -23 8 -33 17 -11 9 -33 17 -51 17 -55 0 -114 -74 -72 -90 8 -4 22 -1 29 6 24 19 69 -12 133 -92 131 -161 135 -167 132 -203 -5 -58 11 -58 75 0 42 38 57 58 53 69 -5 14 -14 16 -43 10 -36 -7 -39 -5 -114 77 -43 46 -76 87 -73 92 6 10 43 9 43 -2 0 -5 10 -13 23 -16 12 -4 37 -13 55 -21 33 -15 86 -37 112 -48 8 -4 26 -13 40 -21 48 -27 60 15 24 84 -8 14 -14 32 -14 40 0 15 -27 101 -47 148 -27 65 -9 90 30 40 13 -17 50 -58 81 -91 48 -50 56 -64 56 -97 0 -22 4 -39 9 -39 6 0 30 20 54 44 25 24 50 45 57 48 8 2 10 12 5 27 -4 14 -12 20 -21 17 -8 -3 -20 -8 -27 -11 -12 -5 -250 225 -271 262 -6 10 -5 23 3 35 26 41 -22 53 -58 14z"/> <path d="M4260 6628 c-63 -5 -141 -15 -172 -23 -32 -8 -68 -15 -82 -15 -13 0 -40 -7 -59 -15 -20 -8 -47 -15 -61 -15 -13 0 -37 -7 -52 -15 -16 -8 -37 -15 -46 -15 -10 0 -34 -7 -55 -16 -21 -9 -51 -22 -68 -28 -76 -32 -190 -85 -240 -114 -11 -7 -29 -17 -40 -22 -11 -6 -33 -19 -50 -30 -16 -11 -37 -23 -45 -27 -17 -8 -200 -144 -244 -183 -157 -134 -387 -416 -449 -550 -4 -8 -16 -28 -27 -45 -11 -16 -22 -37 -26 -45 -3 -8 -10 -22 -15 -30 -5 -8 -12 -22 -15 -30 -9 -24 -35 -83 -50 -113 -8 -16 -14 -35 -14 -44 0 -8 -6 -27 -14 -41 -7 -15 -21 -54 -30 -87 -10 -33 -22 -76 -29 -95 -6 -19 -14 -55 -17 -80 -4 -25 -12 -65 -18 -90 -40 -165 -40 -575 0 -740 6 -25 14 -65 18 -90 6 -42 16 -81 42 -155 6 -16 13 -43 16 -60 2 -16 11 -39 18 -50 8 -11 14 -27 14 -36 0 -15 16 -52 42 -99 4 -8 11 -22 14 -30 15 -35 77 -157 95 -185 10 -16 23 -39 29 -50 40 -78 210 -296 310 -395 101 -101 318 -271 395 -310 11 -6 34 -19 50 -29 30 -19 148 -79 215 -108 19 -9 47 -22 62 -30 14 -7 34 -13 43 -13 9 0 29 -6 43 -14 15 -7 54 -21 87 -30 33 -9 81 -24 106 -32 26 -7 60 -14 77 -14 17 0 43 -5 59 -11 15 -6 107 -17 204 -25 150 -11 202 -11 350 1 172 14 250 26 319 48 19 6 53 14 75 18 22 4 56 12 75 19 19 7 51 18 70 25 79 28 130 50 225 97 104 50 111 55 183 101 24 15 45 27 47 27 6 0 121 82 164 117 99 81 195 172 276 263 44 48 195 246 195 254 0 3 12 24 28 48 15 24 32 52 39 63 14 25 79 157 100 205 9 19 22 48 29 63 8 16 14 36 14 46 0 9 7 26 15 37 8 10 15 29 15 42 0 13 5 33 12 45 6 12 15 40 19 62 4 22 12 58 18 80 66 264 66 688 0 950 -6 22 -14 58 -18 80 -4 22 -13 50 -19 62 -7 12 -12 32 -12 45 0 13 -7 32 -15 42 -8 11 -15 28 -15 37 0 10 -6 30 -14 46 -7 15 -20 44 -29 63 -21 48 -86 180 -100 205 -7 11 -24 39 -39 63 -16 24 -28 45 -28 48 0 17 -187 249 -263 327 -153 156 -265 244 -453 357 -33 19 -68 40 -79 47 -11 7 -27 15 -35 18 -8 4 -22 11 -30 16 -8 5 -22 12 -30 15 -16 6 -55 22 -110 46 -43 19 -96 37 -135 48 -16 5 -43 13 -60 19 -109 37 -284 69 -445 81 -158 11 -189 11 -360 -2z m480 -86 c30 -6 80 -16 110 -22 30 -6 75 -14 100 -19 25 -4 55 -13 67 -19 12 -7 32 -12 45 -12 13 0 33 -7 44 -15 10 -8 29 -15 41 -15 12 0 34 -6 50 -14 15 -7 44 -20 63 -29 37 -16 172 -82 218 -106 15 -8 29 -18 30 -23 2 -4 8 -8 13 -8 12 0 149 -87 164 -104 6 -6 42 -36 80 -66 90 -69 226 -206 295 -295 30 -38 60 -74 67 -78 7 -4 13 -13 13 -19 0 -5 13 -27 28 -47 16 -20 32 -43 35 -51 4 -8 16 -28 27 -45 11 -16 24 -39 30 -50 5 -11 14 -27 19 -35 5 -8 12 -22 15 -30 3 -8 10 -22 15 -30 8 -14 23 -47 57 -125 44 -103 61 -151 74 -205 15 -60 31 -123 46 -176 8 -28 14 -64 14 -81 0 -16 7 -74 15 -129 17 -114 19 -280 4 -374 -5 -36 -14 -101 -19 -145 -5 -44 -14 -100 -20 -125 -20 -77 -41 -154 -52 -185 -5 -16 -13 -44 -17 -60 -4 -17 -12 -39 -18 -50 -5 -11 -17 -36 -25 -55 -8 -19 -22 -51 -30 -70 -9 -19 -19 -42 -22 -50 -3 -8 -10 -22 -15 -30 -5 -8 -12 -22 -15 -30 -4 -8 -15 -28 -26 -45 -11 -16 -24 -39 -30 -50 -17 -34 -97 -153 -110 -165 -3 -3 -28 -34 -55 -70 -64 -83 -222 -241 -305 -305 -36 -27 -67 -52 -70 -55 -12 -13 -131 -93 -165 -110 -11 -6 -33 -19 -50 -29 -30 -19 -154 -82 -210 -106 -90 -39 -107 -45 -123 -45 -9 0 -26 -7 -36 -15 -11 -8 -28 -15 -39 -15 -11 0 -40 -6 -66 -14 -77 -24 -143 -39 -211 -47 -36 -4 -92 -12 -125 -18 -77 -14 -343 -14 -420 0 -33 6 -89 14 -125 18 -66 8 -141 24 -195 43 -16 5 -46 14 -65 18 -45 10 -97 28 -133 46 -16 8 -37 14 -47 14 -9 0 -23 7 -30 15 -7 8 -19 15 -27 15 -13 0 -37 11 -93 41 -8 4 -37 20 -65 34 -62 32 -80 43 -126 78 -20 15 -40 27 -44 27 -19 0 -207 155 -299 246 -110 110 -264 307 -306 389 -6 11 -19 34 -29 50 -58 91 -161 326 -181 415 -4 19 -13 49 -18 65 -18 51 -35 128 -43 190 -4 33 -12 84 -18 114 -6 29 -11 137 -11 240 0 176 7 247 41 416 5 28 13 68 17 90 5 23 12 47 17 55 4 7 12 30 16 49 17 84 122 327 179 416 11 17 24 39 30 50 16 32 31 54 109 160 89 119 156 193 282 311 47 43 234 186 259 197 8 4 29 16 45 27 17 11 39 24 50 30 19 9 27 14 73 40 9 6 23 12 30 15 6 3 18 7 25 10 6 3 19 9 27 13 44 25 83 42 95 42 7 0 26 6 42 14 43 21 109 43 203 66 25 7 68 18 96 26 28 8 68 14 90 15 21 0 66 7 99 14 71 17 436 15 525 -3z"/> <path d="M4314 6418 c-5 -7 -9 -159 -9 -338 l0 -325 -51 -3 c-46 -3 -54 0 -73 24 -12 15 -21 36 -21 48 0 11 -7 30 -15 40 -8 11 -15 29 -15 41 0 12 -5 26 -11 32 -6 6 -14 26 -19 44 -10 40 -63 190 -72 204 -3 6 -9 29 -13 53 -4 23 -11 42 -16 42 -5 0 -12 18 -15 40 -8 51 -21 59 -35 23 -8 -22 -7 -39 5 -78 9 -27 20 -72 26 -100 26 -134 32 -164 46 -222 8 -34 14 -74 14 -88 0 -15 5 -46 12 -68 15 -48 2 -61 -69 -71 -50 -7 -67 4 -94 59 -5 11 -18 34 -29 50 -11 17 -24 39 -30 50 -6 11 -24 43 -41 70 -16 28 -35 61 -42 75 -6 14 -14 27 -18 30 -3 3 -12 19 -21 35 -45 89 -64 122 -83 137 -23 19 -47 6 -27 -14 7 -7 12 -22 12 -34 0 -12 7 -27 15 -34 8 -7 15 -19 15 -27 0 -8 6 -27 14 -41 18 -33 48 -101 71 -162 22 -58 38 -93 65 -153 15 -32 19 -52 12 -59 -12 -12 -183 6 -209 23 -10 6 -42 39 -71 73 -28 33 -64 75 -80 93 -87 100 -118 137 -125 149 -5 8 -12 12 -18 9 -14 -9 -11 -45 6 -61 8 -8 44 -60 81 -115 36 -54 70 -102 75 -105 5 -3 9 -12 9 -20 0 -16 -31 -19 -47 -3 -6 6 -23 9 -39 7 -28 -3 -29 -4 -26 -58 1 -30 5 -74 8 -97 4 -37 3 -43 -14 -43 -10 0 -29 10 -41 21 -13 12 -55 47 -94 79 -40 32 -81 66 -92 76 -32 30 -83 64 -95 64 -29 0 4 -43 145 -184 85 -86 161 -166 169 -178 9 -14 16 -56 18 -108 l3 -85 -29 2 c-16 1 -36 9 -46 18 -9 8 -24 15 -32 15 -9 0 -21 7 -28 15 -7 8 -20 15 -30 15 -10 0 -23 7 -30 15 -7 8 -21 15 -31 15 -10 0 -20 4 -23 8 -3 5 -45 28 -93 53 -48 24 -94 49 -101 56 -7 7 -19 13 -26 13 -8 0 -19 7 -26 15 -7 8 -22 15 -34 15 -12 0 -28 6 -35 13 -11 10 -12 9 -7 -3 3 -8 9 -23 12 -32 3 -10 16 -20 27 -24 12 -4 27 -12 34 -18 25 -22 39 -32 78 -56 22 -13 45 -28 50 -32 57 -44 174 -125 188 -131 9 -3 17 -11 17 -17 0 -5 5 -10 11 -10 6 0 17 -6 24 -12 7 -7 36 -29 64 -48 53 -36 60 -48 67 -106 7 -54 -16 -55 -171 -2 -16 6 -48 14 -70 18 -22 4 -53 12 -70 18 -16 6 -57 18 -90 27 -33 9 -84 26 -113 36 -30 10 -64 19 -76 19 -12 0 -27 5 -34 12 -10 10 -102 29 -102 21 0 -12 22 -43 31 -43 9 0 40 -13 124 -50 11 -5 43 -18 70 -30 28 -12 61 -26 75 -32 14 -6 32 -14 40 -19 8 -5 22 -12 30 -15 23 -9 256 -117 309 -143 42 -20 61 -56 40 -76 -12 -12 -28 -13 -89 -5 -41 5 -111 10 -155 10 -44 0 -125 7 -180 15 -55 7 -151 17 -213 21 -62 4 -115 11 -118 15 -3 5 -16 9 -29 9 -72 0 -1 -57 88 -70 103 -15 165 -28 186 -39 11 -6 34 -11 51 -11 17 0 47 -7 67 -15 19 -8 46 -15 58 -15 12 0 39 -7 58 -15 20 -8 51 -15 69 -15 18 -1 44 -7 58 -15 14 -8 37 -14 52 -15 46 0 108 -30 108 -51 0 -26 -30 -39 -93 -39 -31 0 -91 -7 -134 -15 -43 -8 -101 -15 -129 -15 -28 0 -95 -7 -150 -15 -54 -8 -142 -15 -195 -15 -82 0 -100 -3 -123 -21 -14 -11 -24 -25 -21 -30 4 -5 106 -9 233 -9 224 0 533 -15 582 -29 28 -9 34 -39 10 -52 -29 -16 -85 -37 -110 -42 -14 -3 -41 -10 -60 -17 -79 -27 -97 -32 -130 -40 -35 -8 -82 -23 -130 -43 -14 -5 -41 -13 -60 -18 -64 -14 -125 -31 -145 -39 -11 -5 -37 -11 -57 -13 -39 -6 -101 -45 -92 -59 7 -11 51 -10 58 1 3 4 37 11 75 15 38 3 82 11 97 17 16 5 66 14 113 19 82 8 141 17 289 41 114 19 153 22 164 11 16 -16 -1 -72 -25 -83 -12 -5 -49 -25 -82 -44 -33 -19 -66 -37 -72 -40 -7 -3 -19 -7 -25 -10 -7 -3 -26 -14 -43 -25 -16 -11 -37 -22 -45 -26 -8 -3 -22 -10 -30 -14 -8 -5 -79 -41 -157 -80 -79 -39 -145 -76 -148 -81 -4 -5 -15 -9 -26 -9 -10 0 -19 -6 -19 -14 0 -23 38 -30 65 -12 13 9 31 16 40 16 8 0 32 9 52 20 21 11 43 20 49 20 7 0 25 7 40 15 16 8 38 15 49 15 12 0 26 5 32 11 6 6 26 14 44 19 38 9 89 26 134 45 74 30 102 38 135 39 l35 1 -3 -50 c-2 -27 -7 -55 -11 -62 -13 -24 -229 -202 -394 -325 -90 -67 -111 -95 -81 -105 7 -2 18 2 25 9 8 7 54 33 102 57 48 25 90 48 93 53 3 4 13 8 23 8 10 0 24 7 31 15 7 8 20 15 30 15 10 0 23 7 30 15 7 8 20 15 30 15 10 0 23 6 29 13 6 8 28 19 50 27 35 11 40 11 60 -9 11 -11 31 -23 43 -25 13 -3 57 -12 98 -20 188 -39 421 -38 515 2 58 25 345 24 392 -1 41 -22 95 -22 136 0 47 25 342 26 407 1 78 -29 225 -41 358 -28 135 13 239 37 246 56 8 22 35 16 76 -16 21 -16 40 -30 44 -30 3 0 76 -47 161 -105 144 -97 185 -118 185 -96 0 11 -37 48 -85 86 -21 17 -43 35 -49 41 -6 5 -54 46 -107 90 -98 82 -167 144 -200 178 -11 12 -19 35 -19 55 0 20 -3 45 -5 56 -10 37 6 46 55 29 25 -9 49 -20 55 -25 5 -5 18 -9 30 -9 12 0 30 -7 41 -15 10 -8 27 -15 36 -15 9 0 31 -7 50 -16 76 -38 90 -44 105 -44 8 0 27 -6 41 -14 57 -29 120 -56 131 -56 7 0 19 -7 27 -15 16 -16 59 -20 68 -7 7 12 -6 27 -36 43 -137 72 -211 112 -253 140 -16 10 -41 24 -55 29 -13 6 -27 14 -30 18 -5 7 -12 11 -96 57 -27 14 -62 35 -79 46 -16 10 -39 23 -50 28 -29 13 -49 54 -41 86 6 22 11 26 29 21 12 -4 54 -11 93 -16 38 -5 83 -14 98 -20 15 -5 43 -10 63 -10 19 0 62 -6 96 -14 71 -17 144 -31 237 -47 36 -6 73 -15 82 -20 29 -15 78 -11 78 6 0 8 -8 15 -19 15 -10 0 -24 7 -31 15 -7 8 -28 17 -49 20 -20 3 -43 10 -51 14 -9 5 -31 12 -50 16 -19 4 -41 11 -50 15 -23 11 -81 31 -119 40 -18 5 -38 13 -44 19 -6 6 -23 11 -37 11 -14 0 -31 5 -37 11 -6 6 -26 14 -44 19 -46 11 -98 30 -131 46 -14 8 -35 14 -46 14 -12 0 -33 10 -48 23 -20 18 -25 28 -19 46 l7 22 391 -1 c474 -2 437 -3 437 14 0 16 -82 33 -216 46 -50 4 -108 13 -130 19 -21 6 -59 11 -84 11 -25 0 -61 5 -80 11 -19 5 -73 14 -120 19 -47 5 -112 15 -145 22 -53 12 -60 17 -60 38 0 20 8 25 55 37 30 8 80 18 110 23 30 4 68 13 83 19 16 6 43 11 61 11 19 0 50 7 69 15 20 8 52 15 71 15 19 0 47 5 62 10 31 12 114 27 223 40 86 10 108 24 65 40 -31 13 -131 9 -459 -16 -227 -17 -331 -18 -340 -3 -4 5 -4 20 -1 33 5 21 21 32 91 60 47 19 107 46 138 62 16 8 37 14 47 14 9 0 23 7 30 15 7 8 21 15 30 15 10 0 31 6 47 14 15 8 44 21 63 29 19 9 51 23 72 31 20 9 43 16 51 16 9 0 18 4 21 9 3 5 22 12 41 15 19 4 35 10 35 15 0 4 17 12 38 17 43 10 47 25 11 38 -18 6 -36 4 -60 -7 -19 -9 -50 -18 -69 -22 -19 -4 -53 -12 -75 -20 -46 -15 -122 -34 -180 -46 -40 -8 -85 -19 -180 -44 -115 -30 -134 -33 -146 -19 -22 26 20 124 54 124 5 0 26 14 47 30 21 17 41 30 45 30 4 0 24 14 45 30 21 17 41 30 45 30 4 0 24 12 44 28 20 15 45 32 56 39 86 53 141 88 145 93 3 3 18 12 34 20 60 31 66 35 66 52 0 12 -8 18 -24 18 -14 0 -27 -4 -30 -9 -5 -8 -100 -55 -243 -122 -35 -16 -91 -42 -126 -59 -34 -16 -67 -30 -73 -30 -7 0 -17 -7 -24 -16 -8 -8 -25 -14 -39 -12 -26 3 -26 4 -23 83 l3 80 137 135 c76 74 161 155 190 179 29 25 52 53 52 63 0 10 -3 18 -6 18 -8 0 -48 -22 -54 -29 -8 -10 -160 -124 -202 -152 -21 -13 -38 -27 -38 -31 0 -10 -72 -49 -79 -43 -3 4 -4 55 -2 115 3 100 1 110 -18 127 -25 20 -26 27 -8 45 35 35 147 190 147 203 0 21 -26 19 -47 -3 -10 -10 -50 -56 -90 -102 -99 -118 -132 -147 -178 -158 -59 -15 -193 -24 -199 -14 -3 5 8 38 25 73 17 35 43 91 58 124 16 33 38 81 49 106 12 25 22 51 22 58 0 6 4 11 10 11 5 0 13 12 16 28 4 15 13 35 21 44 9 10 12 25 8 37 -7 23 -35 29 -35 8 0 -8 -9 -24 -20 -37 -11 -13 -20 -27 -20 -33 0 -5 -18 -36 -40 -69 -22 -33 -40 -62 -40 -64 0 -2 -20 -33 -45 -70 -25 -36 -45 -67 -45 -69 0 -8 -73 -111 -86 -121 -16 -13 -99 0 -121 18 -15 12 -8 85 13 141 8 20 14 51 14 68 0 17 4 38 10 48 5 10 16 49 25 87 27 115 41 168 53 197 9 21 9 34 1 49 -6 11 -12 18 -15 16 -13 -14 -54 -102 -54 -118 0 -10 -4 -22 -10 -25 -5 -3 -10 -14 -10 -23 0 -9 -7 -30 -15 -46 -8 -15 -15 -33 -15 -38 0 -11 -23 -66 -46 -111 -8 -16 -14 -35 -14 -42 0 -7 -8 -28 -17 -47 -33 -65 -40 -83 -47 -110 -7 -32 -31 -41 -97 -36 l-44 3 3 120 c2 66 10 202 17 302 15 185 12 243 -10 243 -12 0 -27 -62 -46 -195 -5 -38 -14 -83 -19 -99 -6 -16 -10 -43 -10 -61 0 -18 -7 -52 -15 -75 -8 -23 -15 -57 -15 -75 0 -18 -7 -52 -15 -75 -8 -23 -15 -57 -15 -74 0 -30 -33 -81 -48 -74 -61 30 -72 44 -72 88 0 25 -7 70 -15 100 -8 30 -15 74 -15 97 0 23 -5 54 -11 69 -9 26 -15 69 -39 288 -8 80 -21 109 -36 84z m578 -712 c24 -8 59 -17 78 -21 19 -4 40 -11 47 -17 6 -5 96 -10 200 -11 160 -2 196 1 241 16 29 11 58 17 65 14 11 -4 13 -213 13 -1048 l-1 -1044 -50 -8 c-155 -24 -211 -28 -315 -24 -69 2 -137 11 -170 21 -30 9 -69 21 -86 26 -56 18 -242 12 -313 -10 -35 -10 -67 -18 -70 -16 -3 2 -6 468 -5 1035 l1 1031 24 18 c25 20 127 41 219 45 30 2 60 4 67 5 7 1 32 -4 55 -12z m-505 -11 c97 -25 88 90 89 -1085 0 -572 -1 -1040 -3 -1040 -2 0 -11 4 -21 9 -70 38 -278 56 -356 31 -17 -5 -56 -17 -86 -26 -70 -22 -253 -29 -345 -15 -165 26 -238 40 -248 50 -10 10 -12 2055 -2 2071 6 10 122 -8 148 -22 27 -16 400 -15 432 1 87 42 282 55 392 26z"/> <path d="M5017 5372 c-10 -10 -17 -23 -17 -29 0 -15 32 -41 61 -48 38 -9 46 19 17 61 -26 39 -38 42 -61 16z"/> <path d="M4686 5288 c-9 -12 -16 -29 -16 -38 0 -9 -6 -25 -14 -36 -34 -48 -27 -134 8 -105 8 7 18 21 21 32 9 27 33 24 41 -6 7 -27 23 -32 41 -14 8 8 7 20 -3 44 -17 42 -12 55 27 77 22 13 30 24 27 40 -4 30 -23 33 -48 6 l-22 -23 -15 23 c-19 28 -28 28 -47 0z"/> <path d="M4910 5280 c-54 -13 -90 -60 -90 -118 0 -56 15 -69 78 -70 47 -1 55 8 59 58 2 19 6 59 9 88 6 57 7 57 -56 42z m20 -58 c0 -25 -34 -72 -51 -72 -22 0 -24 18 -7 55 7 16 19 25 35 25 12 0 23 -4 23 -8z"/> <path d="M5020 5223 c-7 -27 -14 -68 -17 -93 -4 -41 -2 -47 21 -60 23 -12 28 -11 46 5 24 21 26 41 5 49 -19 7 -19 47 0 92 17 42 13 54 -20 54 -20 0 -25 -8 -35 -47z"/> <path d="M4726 4864 c-9 -23 5 -94 18 -94 24 0 56 32 56 55 0 44 -60 76 -74 39z"/> <path d="M4850 4768 c0 -13 4 -29 9 -36 9 -15 -8 -75 -27 -94 -7 -7 -12 -17 -12 -24 0 -6 -7 -17 -15 -24 -17 -14 -20 -56 -5 -65 14 -9 48 26 52 55 5 38 23 30 26 -12 2 -24 8 -38 17 -38 22 0 34 30 24 64 -5 17 -9 68 -9 113 l0 83 -30 0 c-24 0 -30 -4 -30 -22z"/> <path d="M4705 4732 c-30 -6 -56 -33 -75 -77 -16 -36 -16 -43 -2 -72 15 -32 18 -33 72 -33 l57 0 5 63 c3 35 11 73 19 85 7 11 11 23 9 25 -9 8 -65 14 -85 9z m25 -71 c0 -49 -50 -81 -58 -38 -4 20 28 66 46 67 7 0 12 -12 12 -29z"/> <path d="M4981 4692 c-5 -20 -11 -59 -13 -87 -2 -39 0 -50 13 -53 11 -2 20 13 32 58 19 65 47 84 47 31 0 -30 -34 -116 -50 -126 -6 -3 -10 -17 -10 -31 0 -17 5 -24 20 -24 22 0 70 68 70 100 0 11 7 37 16 59 8 21 14 54 12 73 l-3 33 -62 2 -63 2 -9 -37z"/> <path d="M5138 4613 c-40 -10 -2 -43 49 -43 37 0 57 14 50 34 -6 16 -57 20 -99 9z"/> <path d="M4708 4291 c-41 -26 -63 -60 -81 -128 -22 -80 -21 -95 3 -143 19 -38 23 -40 68 -40 42 0 49 4 70 33 12 18 22 38 22 44 0 6 7 24 15 39 9 18 15 57 15 100 0 66 -2 71 -30 92 -35 26 -46 26 -82 3z m57 -86 c0 -37 -2 -40 -29 -43 -39 -5 -49 8 -36 44 23 59 65 59 65 -1z m-9 -86 c3 -6 -2 -26 -12 -45 -15 -27 -24 -34 -44 -32 -19 2 -26 10 -28 31 -2 16 -1 35 2 43 6 17 72 19 82 3z"/> <path d="M5010 4236 c-27 -30 -20 -56 15 -56 39 0 65 18 65 44 0 42 -45 48 -80 12z"/> <path d="M4870 4150 c-11 -11 -20 -26 -20 -34 0 -7 -7 -19 -15 -26 -22 -18 -18 -55 8 -84 22 -25 35 -30 70 -27 24 1 22 32 -3 38 -26 7 -25 28 2 47 22 16 22 16 3 31 -17 13 -18 16 -5 25 8 5 22 10 31 10 23 0 30 11 18 27 -17 19 -66 16 -89 -7z"/> <path d="M5271 4134 c-17 -14 -31 -31 -31 -37 0 -6 14 -26 32 -44 26 -27 29 -33 15 -38 -10 -3 -24 -7 -33 -10 -20 -6 -14 -49 8 -53 26 -5 98 45 98 68 0 11 -13 29 -30 41 -33 25 -31 39 6 39 20 0 24 5 24 30 0 26 -3 30 -29 30 -17 0 -42 -11 -60 -26z"/> <path d="M5003 4128 c-19 -24 -33 -81 -33 -129 0 -47 1 -49 29 -49 35 0 49 28 30 58 -10 15 -9 29 3 65 10 32 12 49 4 57 -13 13 -21 13 -33 -2z"/> <path d="M5155 4132 c-33 -11 -61 -35 -77 -67 -24 -45 -24 -68 -3 -92 16 -18 30 -23 72 -23 28 0 54 3 56 8 3 4 6 45 8 92 4 79 3 85 -16 87 -11 1 -29 -2 -40 -5z m15 -65 c0 -32 -27 -67 -46 -60 -28 11 5 83 38 83 4 0 8 -10 8 -23z"/> <path d="M3579 5373 c-12 -31 2 -73 23 -73 20 0 60 64 52 84 -4 10 -17 16 -35 16 -23 0 -32 -6 -40 -27z"/> <path d="M3941 5381 c-29 -25 -45 -70 -27 -77 14 -5 70 19 80 34 8 13 -5 50 -19 56 -7 2 -23 -3 -34 -13z"/> <path d="M3758 5328 c-3 -7 -1 -26 3 -42 6 -21 3 -39 -12 -70 -32 -65 -46 -88 -60 -96 -19 -12 -2 -40 25 -40 17 0 26 7 30 25 8 30 22 33 31 6 10 -34 55 -38 55 -5 0 8 7 14 15 14 8 0 15 -6 15 -14 0 -17 41 -29 67 -19 40 15 53 45 50 112 -2 64 -3 65 -34 73 -43 11 -70 -1 -91 -42 -29 -58 -41 -49 -44 32 -3 66 -5 73 -24 76 -12 2 -24 -3 -26 -10z m190 -124 c4 -37 -31 -86 -54 -77 -19 7 -14 74 7 99 19 24 44 13 47 -22z"/> <path d="M4185 5312 c-12 -9 -27 -42 -35 -75 -13 -54 -12 -59 7 -85 41 -56 110 -31 130 46 l8 34 28 -26 c29 -27 35 -46 13 -46 -23 0 -40 -28 -27 -44 10 -12 19 -12 44 -4 59 19 74 62 35 98 l-22 21 29 24 c28 23 29 26 12 39 -22 17 -51 10 -85 -21 l-27 -24 -7 28 c-14 51 -64 68 -103 35z m63 -80 c3 -33 -1 -43 -18 -52 -29 -16 -40 -5 -40 40 0 27 6 42 18 49 27 16 37 8 40 -37z"/> <path d="M3986 5291 c-3 -5 1 -14 9 -21 8 -7 15 -20 15 -28 0 -9 7 -35 16 -58 16 -42 16 -43 -10 -77 -23 -30 -24 -36 -12 -46 30 -25 76 11 83 64 9 69 17 97 29 102 8 3 14 19 14 39 0 27 -4 34 -20 34 -11 0 -20 -6 -20 -13 0 -7 -7 -23 -16 -36 -13 -18 -18 -20 -25 -10 -5 8 -9 24 -9 37 0 17 -6 22 -24 22 -14 0 -27 -4 -30 -9z"/> <path d="M3555 5273 c-11 -3 -28 -12 -37 -20 -20 -18 -33 -89 -23 -132 5 -25 13 -32 40 -37 47 -8 71 2 95 40 49 80 5 168 -75 149z m48 -56 c7 -20 -15 -86 -32 -92 -21 -8 -42 15 -36 39 12 42 29 66 46 66 9 0 19 -6 22 -13z"/> <path d="M3877 4878 c-24 -19 -34 -76 -14 -84 20 -7 64 24 71 50 10 38 -24 58 -57 34z"/> <path d="M4218 4795 c-3 -3 -23 -7 -44 -8 l-39 -3 -7 -59 c-7 -54 -3 -108 9 -128 2 -4 13 -2 24 3 15 8 19 22 19 58 0 52 12 78 29 68 16 -10 13 -86 -4 -120 -19 -36 -20 -86 -2 -86 8 0 21 8 31 19 14 15 16 37 14 136 -3 108 -11 139 -30 120z"/> <path d="M3720 4776 c0 -8 4 -26 10 -40 9 -25 1 -50 -46 -138 -18 -33 -39 -36 -54 -8 -18 34 -9 73 20 80 18 4 26 13 28 33 l3 27 -78 0 c-48 0 -84 -5 -91 -12 -18 -18 -14 -46 8 -53 28 -9 25 -22 -15 -62 -41 -41 -42 -44 -14 -61 18 -12 24 -11 44 8 13 12 26 38 30 57 8 44 18 36 17 -14 -1 -55 11 -72 39 -55 18 12 23 11 34 -5 17 -23 47 -8 55 27 8 35 27 35 33 0 5 -21 12 -30 26 -30 29 0 35 34 15 85 -12 32 -15 59 -10 94 3 26 4 56 0 65 -8 20 -54 22 -54 2z"/> <path d="M4023 4768 c-39 -10 -40 -14 -47 -165 -4 -86 -2 -114 8 -122 21 -17 38 11 34 56 -3 36 -1 38 27 41 42 5 53 17 60 65 12 92 -21 143 -82 125z m49 -75 c16 -60 -26 -111 -52 -64 -13 25 -13 57 1 82 15 29 41 19 51 -18z"/> <path d="M3890 4750 c0 -5 -13 -10 -30 -10 -16 0 -30 -1 -31 -2 0 -2 -3 -30 -5 -63 -6 -76 2 -125 21 -125 12 0 15 15 15 64 0 68 9 86 31 60 10 -13 11 -31 1 -97 -12 -84 -6 -111 21 -88 16 13 37 105 37 163 0 49 -24 108 -44 108 -9 0 -16 -4 -16 -10z"/> <path d="M4312 4737 c-28 -30 -28 -43 4 -84 21 -28 23 -34 10 -38 -9 -3 -23 -7 -31 -10 -19 -6 -19 -34 0 -41 25 -10 81 15 96 42 13 24 12 28 -14 50 -33 28 -34 42 -4 46 16 2 23 11 25 31 3 25 1 27 -31 27 -22 0 -41 -8 -55 -23z"/> <path d="M3753 4254 c-33 -38 -30 -64 7 -64 40 0 67 39 48 69 -17 27 -28 26 -55 -5z"/> <path d="M3515 4190 c-3 -5 1 -20 9 -32 24 -35 19 -60 -23 -117 -25 -34 -37 -59 -34 -71 7 -26 15 -25 41 5 27 31 40 32 44 3 2 -18 11 -24 36 -26 36 -4 42 11 15 41 -30 32 -23 91 15 130 17 18 32 41 32 51 0 15 -6 17 -39 11 -24 -4 -42 -2 -46 4 -8 14 -42 14 -50 1z"/> <path d="M4078 4193 c-42 -5 -52 -29 -22 -54 13 -10 15 -25 11 -65 -6 -55 3 -80 26 -71 9 3 16 26 20 68 4 49 11 68 27 81 25 20 20 49 -7 46 -10 -1 -35 -3 -55 -5z"/> <path d="M4186 4175 c-25 -23 -27 -30 -24 -92 3 -64 5 -68 31 -77 38 -14 79 9 92 51 15 45 20 47 49 26 32 -23 32 -37 1 -51 -26 -12 -35 -51 -12 -53 43 -4 78 15 98 54 8 14 3 24 -21 48 -33 34 -32 49 6 49 29 0 32 25 5 40 -23 12 -47 5 -78 -22 -21 -20 -21 -20 -39 9 -10 15 -23 31 -29 35 -20 15 -52 8 -79 -17z m64 -63 c0 -44 -8 -59 -35 -64 -30 -5 -33 50 -5 85 27 34 40 27 40 -21z"/> <path d="M3971 4161 c-16 -10 -27 -117 -17 -157 7 -26 29 -36 62 -28 27 7 32 29 9 37 -10 4 -15 26 -17 78 -3 73 -11 87 -37 70z"/> <path d="M3848 4143 c-28 -33 -36 -57 -47 -152 -12 -97 -9 -131 14 -131 16 0 25 22 25 61 0 21 5 29 18 29 9 0 28 9 42 19 22 17 24 26 24 90 -1 73 -13 101 -44 101 -9 0 -24 -8 -32 -17z m42 -88 c0 -48 -13 -64 -36 -44 -24 19 2 109 27 93 5 -3 9 -25 9 -49z"/> <path d="M3715 4132 c-56 -19 -84 -76 -71 -147 7 -35 7 -35 61 -35 30 0 56 3 58 8 3 4 6 45 8 92 4 79 3 85 -16 87 -11 1 -29 -2 -40 -5z m25 -71 c0 -30 -32 -67 -49 -56 -18 10 -12 47 10 72 26 27 39 22 39 -16z"/> <path d="M3380 3506 c0 -27 16 -36 63 -36 18 0 57 -7 87 -15 75 -20 393 -21 447 -1 47 17 198 46 238 46 47 0 197 -30 228 -46 36 -18 77 -18 102 0 11 7 36 16 55 19 19 2 64 10 100 17 88 16 171 6 303 -37 74 -24 386 -23 490 2 70 17 94 34 69 49 -5 3 -50 -4 -102 -14 -116 -25 -352 -28 -426 -6 -124 37 -177 46 -260 46 -88 0 -226 -28 -248 -50 -13 -13 -49 -13 -62 0 -5 5 -43 19 -84 30 -90 23 -235 26 -306 6 -27 -8 -74 -21 -105 -30 -64 -18 -285 -22 -359 -5 -25 5 -72 13 -106 18 -34 5 -70 14 -82 20 -31 17 -42 13 -42 -13z"/> <path d="M3377 3433 c-4 -3 -7 -13 -7 -22 0 -8 -63 -79 -140 -156 -77 -78 -140 -147 -140 -154 0 -17 40 -4 63 20 10 11 21 19 25 19 4 0 23 14 42 31 19 18 88 71 152 120 l117 89 75 -7 c86 -7 93 -16 53 -74 -13 -19 -33 -54 -46 -79 -12 -25 -31 -58 -42 -75 -10 -16 -23 -41 -29 -54 -6 -13 -24 -44 -40 -68 -17 -24 -30 -48 -30 -54 0 -5 -4 -9 -8 -9 -9 0 -42 -70 -42 -88 0 -7 7 -12 15 -12 8 0 15 4 15 9 0 5 16 26 35 47 19 21 35 43 35 50 0 7 4 14 8 16 4 2 43 48 85 103 203 265 198 259 252 267 28 3 59 8 70 10 26 4 32 -33 11 -64 -9 -12 -16 -32 -16 -43 0 -11 -6 -29 -14 -40 -7 -11 -16 -33 -18 -50 -7 -36 -25 -89 -44 -128 -8 -16 -14 -36 -14 -45 0 -9 -6 -29 -14 -44 -8 -15 -17 -42 -21 -60 -4 -18 -14 -42 -21 -53 -8 -11 -14 -28 -14 -38 0 -10 -7 -29 -16 -42 -18 -27 -11 -65 12 -65 8 0 14 8 14 18 0 11 9 29 20 42 11 13 20 28 20 34 0 9 100 214 132 271 14 25 15 28 83 160 93 182 99 190 134 193 30 3 31 2 31 -40 -1 -24 -7 -70 -15 -103 -8 -33 -15 -82 -15 -110 0 -27 -7 -79 -15 -115 -8 -36 -14 -86 -15 -113 0 -26 -9 -87 -19 -135 -11 -48 -21 -114 -23 -148 -4 -60 -4 -60 19 -50 17 8 24 22 28 56 3 25 10 52 14 60 5 9 12 36 16 60 4 25 11 50 15 55 4 6 10 26 13 45 2 19 10 50 16 68 26 77 33 99 41 132 4 19 13 51 20 70 27 79 32 97 40 130 28 115 34 130 52 136 11 3 23 3 26 -1 11 -11 30 -251 42 -515 10 -236 24 -345 45 -345 6 0 15 73 22 175 23 333 31 425 38 451 3 14 10 66 13 115 l7 89 29 0 c32 0 37 -10 56 -100 12 -58 30 -125 42 -160 6 -16 14 -48 18 -70 11 -51 29 -120 43 -165 11 -36 22 -87 37 -177 10 -65 40 -132 59 -133 10 0 12 11 7 43 -3 23 -10 87 -16 142 -6 55 -17 146 -25 202 -8 56 -15 135 -15 175 -1 40 -7 109 -15 153 -21 117 -20 125 13 125 29 0 62 -26 62 -48 0 -11 49 -115 71 -152 5 -8 12 -22 15 -30 10 -25 66 -144 75 -160 5 -8 12 -22 15 -30 4 -8 19 -42 34 -75 15 -33 35 -78 44 -100 9 -22 21 -48 26 -57 6 -10 10 -24 10 -32 0 -19 51 -67 63 -59 5 3 4 10 -2 16 -6 6 -11 24 -11 40 0 16 -6 41 -14 55 -8 15 -24 61 -36 102 -12 41 -28 90 -36 108 -8 18 -14 43 -14 55 -1 12 -7 33 -15 47 -8 14 -15 39 -15 55 0 17 -7 41 -15 55 -8 14 -14 36 -15 50 0 14 -6 35 -14 46 -8 11 -16 34 -18 50 -3 28 -2 29 40 27 60 -3 94 -28 152 -109 27 -38 56 -77 64 -86 9 -10 16 -22 16 -28 0 -5 4 -10 9 -10 5 0 20 -17 32 -37 13 -21 41 -63 64 -94 22 -31 47 -66 55 -79 8 -12 20 -28 26 -34 6 -7 14 -21 18 -31 3 -11 17 -25 31 -31 23 -11 24 -11 18 20 -3 17 -12 38 -19 47 -8 8 -14 21 -14 27 0 6 -6 17 -13 24 -6 7 -25 38 -41 68 -15 30 -43 82 -62 115 -18 33 -36 67 -40 75 -3 8 -10 22 -15 30 -5 8 -14 27 -20 43 -6 15 -15 27 -20 27 -5 0 -9 8 -9 19 0 16 11 19 98 24 75 4 102 2 120 -9 12 -8 86 -78 165 -154 78 -77 147 -140 154 -140 20 0 15 34 -8 61 -20 21 -81 105 -169 226 -16 23 -30 54 -30 68 0 25 -23 35 -35 15 -3 -5 -27 -10 -53 -10 -26 0 -85 -7 -132 -15 -107 -19 -191 -19 -254 0 -27 8 -66 15 -86 15 -20 0 -42 6 -48 13 -9 9 -60 12 -180 12 -149 0 -174 -2 -228 -23 -64 -23 -79 -22 -161 14 -43 19 -300 20 -346 1 -43 -19 -82 -25 -217 -37 -93 -8 -125 -7 -170 5 -30 8 -73 15 -95 15 -22 0 -65 7 -95 15 -61 16 -83 18 -93 8z"/> <path d="M6374 6557 c-3 -8 0 -26 5 -40 19 -50 11 -61 -168 -211 -90 -75 -95 -78 -120 -65 -14 7 -29 15 -33 17 -5 2 -8 -8 -8 -22 0 -15 13 -39 33 -59 17 -18 40 -44 50 -57 17 -20 21 -21 33 -8 12 11 13 21 4 43 -9 24 -8 31 7 45 136 128 187 170 194 163 5 -5 2 -30 -6 -57 -8 -27 -15 -69 -15 -93 0 -24 -6 -76 -14 -116 -24 -121 -28 -183 -12 -196 10 -8 17 -6 32 10 10 12 60 56 109 97 50 42 92 78 95 81 56 60 94 85 127 86 20 0 38 5 40 11 5 14 -87 124 -104 124 -21 0 -25 -19 -11 -55 11 -34 11 -37 -13 -58 -14 -12 -58 -51 -98 -87 -105 -94 -103 -94 -96 -18 4 35 11 86 17 113 10 49 29 232 30 287 1 46 -64 100 -78 65z"/> <path d="M2172 6203 c-5 -15 -19 -38 -31 -50 -12 -12 -21 -29 -21 -38 0 -20 38 -20 61 1 17 15 26 11 137 -62 66 -44 129 -93 141 -110 40 -58 18 -133 -58 -191 -61 -48 -93 -43 -191 27 -44 32 -70 48 -95 60 -41 19 -67 47 -74 80 -10 49 -27 48 -51 -3 -12 -25 -30 -53 -41 -63 -38 -34 -17 -64 31 -44 27 11 34 9 102 -36 88 -59 107 -70 135 -83 11 -5 24 -15 28 -20 3 -6 38 -11 76 -11 l70 0 55 54 c85 86 112 167 78 236 -24 46 -45 65 -153 136 -134 88 -133 87 -135 114 -1 19 -7 26 -27 28 -21 2 -29 -2 -37 -25z"/> <path d="M6800 6040 c0 -5 -9 -10 -19 -10 -35 0 -51 -12 -51 -36 0 -27 24 -42 43 -26 15 13 42 -5 57 -39 5 -13 15 -31 22 -40 15 -21 4 -49 -20 -49 -11 0 -25 -7 -32 -15 -7 -8 -21 -15 -31 -15 -10 0 -20 -4 -23 -9 -5 -8 -51 -34 -138 -78 -15 -8 -30 -18 -33 -24 -10 -15 -63 -10 -73 8 -12 21 -42 10 -42 -15 0 -11 7 -25 15 -32 17 -14 55 -91 55 -110 0 -6 8 -10 18 -8 11 2 18 14 20 38 3 27 11 40 38 58 20 12 42 22 49 22 8 0 17 4 20 10 3 5 30 21 58 36 29 14 66 34 82 44 34 22 72 40 85 40 5 0 21 -25 36 -56 25 -53 25 -56 8 -75 -16 -18 -16 -21 -1 -36 17 -17 23 -15 80 30 22 18 22 20 -10 70 -42 64 -48 75 -93 165 -23 45 -46 85 -51 88 -5 3 -9 13 -9 23 0 20 -30 51 -48 51 -7 0 -12 -4 -12 -10z"/> <path d="M1892 5648 c-7 -7 -12 -17 -12 -23 0 -6 -13 -22 -29 -36 -17 -15 -39 -46 -51 -70 -12 -24 -26 -52 -31 -61 -5 -10 -9 -40 -9 -67 0 -164 182 -297 342 -249 51 15 123 79 148 131 44 90 48 213 9 250 -22 21 -65 38 -73 30 -10 -10 -7 -43 3 -43 17 0 41 -62 41 -106 0 -49 -29 -122 -56 -144 -63 -51 -150 -65 -208 -35 -15 8 -33 15 -40 15 -6 0 -30 17 -54 38 -35 30 -45 45 -49 79 -15 113 34 197 123 214 74 14 102 53 47 64 -16 4 -36 10 -45 16 -24 12 -42 11 -56 -3z"/> <path d="M1666 5048 c-12 -43 -26 -140 -26 -176 0 -24 -7 -59 -15 -79 -8 -19 -15 -42 -15 -49 0 -21 46 -17 61 6 13 19 19 20 115 11 55 -6 113 -15 128 -21 15 -5 52 -10 81 -10 49 0 55 -3 67 -27 7 -16 23 -29 34 -31 20 -3 21 3 26 81 3 46 11 93 17 105 6 11 11 42 11 69 0 40 -5 54 -29 81 -29 31 -64 42 -76 22 -3 -5 5 -29 19 -53 36 -61 35 -168 -1 -181 -17 -7 -132 13 -149 26 -15 11 -1 97 17 109 8 5 22 9 32 9 18 0 22 17 9 37 -8 13 -118 33 -140 25 -14 -4 -16 -32 -3 -32 5 0 16 -11 24 -23 12 -19 13 -33 5 -73 -6 -27 -12 -51 -14 -53 -3 -4 -100 18 -131 30 -18 7 -22 14 -18 36 2 15 7 45 10 65 5 31 11 39 33 44 56 12 56 13 32 39 -17 18 -34 25 -62 25 -22 0 -40 -5 -42 -12z"/> <path d="M7220 4836 c-8 -22 -57 -52 -130 -80 -8 -3 -23 -10 -32 -16 -10 -5 -26 -15 -35 -20 -10 -6 -25 -13 -33 -16 -8 -3 -42 -19 -75 -34 -33 -16 -79 -37 -102 -46 -24 -10 -43 -24 -43 -31 0 -15 51 -43 78 -43 10 0 27 -7 38 -15 10 -8 26 -15 34 -15 8 0 27 -6 42 -14 15 -8 40 -17 57 -21 17 -4 33 -11 36 -16 4 -5 14 -9 23 -9 9 0 29 -6 44 -14 15 -8 40 -17 57 -21 16 -3 41 -17 56 -31 46 -43 56 -33 53 48 -2 58 -6 73 -19 76 -11 2 -19 -6 -23 -22 -8 -31 -16 -32 -86 -5 -30 11 -71 25 -90 31 -19 5 -39 14 -45 18 -5 4 -26 10 -46 14 -57 10 -88 56 -38 56 9 0 30 6 46 14 218 110 240 118 263 91 24 -28 30 -15 30 65 0 79 0 80 -25 80 -18 0 -28 -7 -35 -24z"/> <path d="M2062 4608 c-7 -7 -12 -21 -12 -33 0 -22 -3 -24 -165 -100 -55 -26 -107 -51 -115 -56 -8 -5 -22 -12 -30 -15 -8 -3 -28 -12 -45 -19 -16 -7 -42 -18 -57 -24 -39 -15 -38 -50 2 -58 17 -3 33 -10 36 -14 3 -5 14 -9 24 -9 17 0 62 -19 122 -51 10 -5 23 -9 28 -9 6 0 32 -9 58 -21 26 -11 56 -24 67 -28 11 -5 39 -17 62 -26 24 -10 45 -26 49 -37 3 -11 13 -18 22 -16 14 3 17 17 18 76 2 86 -13 103 -50 57 l-22 -28 -54 20 -55 19 -12 84 c-6 46 -9 88 -7 92 3 4 30 20 60 34 l55 26 23 -21 c29 -27 61 -19 51 13 -4 11 -10 50 -13 85 -7 65 -18 81 -40 59z m-182 -278 c0 -68 -3 -70 -69 -40 -24 11 -49 20 -57 20 -32 0 -20 21 23 39 27 12 55 25 63 30 33 21 40 12 40 -49z"/> <path d="M6786 4295 c-11 -12 -16 -35 -16 -79 0 -35 -7 -85 -15 -112 -8 -27 -15 -60 -15 -72 0 -32 34 -79 72 -98 46 -24 55 -5 24 48 -33 57 -37 155 -8 181 10 10 22 14 25 11 4 -4 35 -10 69 -13 l63 -6 -2 -40 c-4 -64 -12 -85 -32 -85 -21 0 -45 -25 -37 -38 3 -5 29 -12 58 -15 29 -4 62 -8 73 -9 27 -4 31 29 6 50 -18 15 -20 23 -13 67 l7 50 70 -3 c90 -5 99 -14 84 -78 -16 -67 -22 -78 -50 -84 -27 -7 -38 -38 -17 -51 7 -5 30 -9 50 -9 48 0 55 13 69 136 6 54 15 106 20 115 13 25 11 89 -2 89 -6 0 -24 -14 -39 -32 l-28 -32 -74 17 c-40 10 -89 17 -108 18 -19 0 -69 8 -110 18 -63 15 -75 22 -80 41 -7 30 -23 35 -44 15z"/> <path d="M1970 3965 c-19 -7 -62 -21 -95 -30 -33 -10 -77 -24 -97 -33 -34 -13 -40 -13 -62 2 -39 25 -49 21 -42 -19 3 -19 9 -51 12 -70 10 -57 54 -74 54 -21 0 30 28 54 71 62 19 3 43 9 54 14 40 17 159 50 179 50 39 0 86 -38 106 -86 25 -57 25 -100 1 -140 -20 -33 -88 -74 -122 -74 -11 0 -30 -5 -42 -12 -12 -6 -38 -15 -57 -19 -19 -4 -49 -13 -67 -20 -28 -11 -34 -11 -51 4 -41 37 -70 7 -37 -37 8 -11 15 -34 15 -52 0 -32 13 -50 40 -56 10 -2 16 8 20 32 4 31 9 35 40 40 20 4 42 10 50 15 7 4 30 12 49 16 186 38 258 119 231 261 -15 81 -52 137 -110 165 -51 25 -89 27 -140 8z"/> <path d="M6716 3888 c-14 -46 -51 -145 -58 -154 -10 -14 0 -24 24 -24 10 0 23 11 30 24 14 33 33 39 68 21 16 -8 37 -15 47 -15 28 0 63 -28 63 -50 0 -27 -37 -49 -106 -61 -85 -15 -154 -39 -176 -61 -23 -23 -32 -67 -19 -88 9 -12 16 -9 44 18 18 17 42 32 54 32 11 0 36 6 54 14 19 8 54 16 78 18 41 3 46 0 60 -26 22 -42 57 -73 96 -86 43 -14 82 4 121 56 27 35 63 123 64 155 0 9 9 26 19 38 39 45 -3 70 -46 29 -24 -22 -25 -22 -54 -5 -17 9 -38 17 -48 17 -9 0 -26 7 -37 15 -10 8 -30 15 -44 15 -14 0 -34 7 -44 15 -11 8 -27 15 -35 15 -36 0 -102 36 -107 58 -8 27 -42 49 -48 30z m310 -223 c11 -7 31 -15 45 -17 34 -4 35 -33 4 -79 -26 -36 -31 -39 -76 -39 -40 0 -51 4 -69 27 -18 23 -20 35 -15 73 4 25 9 49 12 53 7 11 72 -1 99 -18z"/> <path d="M2357 3583 c-14 -13 -6 -49 13 -61 17 -10 20 -23 20 -77 0 -51 -3 -65 -15 -65 -8 0 -15 4 -15 9 0 5 -17 19 -37 31 -56 33 -155 30 -220 -5 -61 -34 -79 -51 -112 -100 -23 -35 -26 -50 -26 -125 0 -77 3 -89 29 -129 57 -88 129 -131 219 -131 96 0 219 85 242 167 10 37 12 38 60 41 50 3 65 13 65 45 0 14 -9 17 -49 17 -59 0 -60 2 -62 150 -1 121 -11 158 -58 206 -35 35 -43 39 -54 27z m-27 -220 c41 -29 57 -49 75 -98 18 -45 18 -49 0 -100 -31 -94 -132 -175 -216 -175 -50 0 -109 33 -140 78 -19 28 -23 47 -22 101 0 79 23 120 97 175 44 33 54 36 115 36 46 0 74 -5 91 -17z"/> <path d="M6543 3425 c-10 -14 -26 -35 -36 -47 -31 -38 -8 -88 25 -55 23 23 54 -6 88 -82 9 -20 5 -31 -23 -75 -19 -28 -37 -59 -41 -70 -5 -16 -13 -18 -49 -13 -76 11 -97 23 -97 57 0 38 -22 40 -47 4 -10 -14 -33 -45 -51 -70 -26 -37 -30 -48 -22 -64 11 -20 12 -20 45 6 32 24 38 25 82 16 86 -19 167 -34 223 -42 30 -5 83 -16 118 -25 65 -17 102 -13 102 11 0 8 -4 14 -10 14 -5 0 -34 42 -65 93 -31 50 -79 126 -106 167 -27 41 -52 82 -56 90 -4 8 -13 21 -20 28 -7 7 -13 29 -13 48 0 41 -21 45 -47 9z m165 -307 c18 -28 31 -57 28 -64 -5 -13 -88 -8 -119 8 -16 8 -16 12 9 59 15 27 32 49 38 48 6 0 26 -23 44 -51z"/> <path d="M6089 2443 c-85 -39 -111 -55 -149 -93 -22 -22 -52 -45 -65 -50 -14 -5 -25 -14 -25 -20 0 -15 36 -12 50 5 7 8 19 15 27 15 20 0 111 29 148 48 89 44 103 135 14 95z"/> <path d="M2807 2417 c-14 -38 83 -108 168 -121 22 -3 41 -10 43 -16 2 -5 12 -10 22 -10 9 0 23 -7 30 -15 14 -17 60 -21 60 -5 0 6 -10 15 -22 21 -45 20 -70 37 -107 73 -65 64 -181 107 -194 73z"/> <path d="M5803 2392 c-58 -44 -69 -57 -89 -101 -11 -24 -12 -37 -5 -44 20 -20 12 -37 -19 -37 -16 0 -33 -6 -37 -14 -4 -8 -19 -16 -32 -18 -14 -1 -26 -9 -29 -15 -6 -19 53 -16 68 2 7 8 23 15 36 15 15 0 24 6 24 15 0 9 10 15 26 15 23 0 25 -3 19 -30 l-7 -30 75 0 c83 0 128 18 146 58 9 18 8 24 -6 29 -14 6 -84 -4 -155 -22 -19 -5 -31 -2 -47 14 -21 21 -21 41 -1 41 21 0 99 87 105 116 9 47 -15 49 -72 6z"/> <path d="M3080 2388 c0 -35 45 -94 88 -117 30 -16 28 -31 -4 -31 -16 0 -24 -5 -22 -12 7 -20 40 -22 50 -4 5 9 19 16 32 16 33 0 37 9 17 45 -20 37 -38 57 -95 102 -52 42 -66 42 -66 1z"/> <path d="M5555 2275 c-70 -48 -106 -87 -103 -110 2 -16 9 -19 33 -17 17 2 34 10 38 18 4 8 14 14 21 14 7 0 29 17 50 37 26 26 36 44 34 62 -4 36 -17 35 -73 -4z"/> <path d="M3327 2283 c-17 -16 -4 -45 39 -87 25 -25 52 -46 59 -46 26 0 26 -20 1 -30 -14 -5 -26 -14 -26 -20 0 -6 -30 -10 -74 -10 -82 0 -120 -10 -129 -35 -5 -12 5 -21 40 -36 46 -20 48 -20 120 -2 40 10 73 21 73 24 0 4 -7 12 -15 19 -22 18 -18 30 10 30 36 0 75 28 75 54 0 28 -54 86 -111 119 -50 29 -52 30 -62 20z"/> <path d="M5792 2258 c3 -7 15 -15 27 -16 16 -3 22 1 19 10 -3 7 -15 15 -27 16 -16 3 -22 -1 -19 -10z"/> <path d="M5340 2209 c-19 -10 -41 -21 -49 -25 -31 -16 -81 -74 -83 -96 -2 -17 3 -24 20 -26 12 -2 22 1 22 6 0 6 12 15 28 21 67 28 112 72 112 109 0 30 -11 32 -50 11z"/> <path d="M2960 2198 c0 -16 33 -50 67 -67 27 -14 150 -15 158 -1 9 15 -14 50 -33 50 -10 0 -23 5 -29 11 -7 7 -46 14 -87 17 -62 4 -76 2 -76 -10z"/> <path d="M3200 2195 c0 -8 8 -15 19 -15 10 0 24 -7 31 -15 7 -8 21 -15 30 -15 10 0 31 -8 48 -17 16 -9 36 -13 46 -10 23 9 11 27 -19 27 -12 0 -25 7 -29 15 -3 8 -17 15 -31 15 -14 0 -28 7 -31 15 -4 9 -19 15 -35 15 -19 0 -29 -5 -29 -15z"/> <path d="M3566 2202 c-15 -14 -3 -50 24 -77 47 -48 67 -63 86 -67 31 -6 25 -22 -15 -40 -25 -12 -62 -18 -110 -18 -53 0 -82 -5 -112 -21 -35 -17 -39 -22 -27 -36 10 -13 30 -15 118 -10 102 5 105 6 131 36 28 34 68 41 89 16 14 -17 95 -21 105 -5 6 10 -19 18 -74 22 -31 3 -34 6 -37 43 -2 33 -11 48 -50 83 -48 43 -118 84 -128 74z"/> <path d="M5110 2145 c-14 -8 -35 -19 -46 -24 -55 -25 -120 -121 -82 -121 29 0 141 65 164 95 43 56 23 84 -36 50z"/> <path d="M3794 2118 c8 -44 77 -100 149 -122 25 -8 12 -26 -19 -26 -13 0 -32 -9 -41 -20 -14 -16 -30 -20 -78 -20 -81 0 -137 -16 -133 -38 5 -26 123 -39 195 -22 61 15 69 22 48 40 -38 32 38 41 115 14 33 -12 64 -15 116 -10 62 5 72 3 87 -14 14 -17 30 -20 107 -20 49 0 90 -3 90 -8 0 -4 -9 -15 -20 -25 -11 -9 -20 -26 -20 -37 0 -33 51 -27 78 10 13 17 26 30 30 30 4 0 15 -14 24 -30 9 -17 24 -30 33 -30 23 0 30 28 11 49 -9 10 -16 25 -16 33 0 16 27 21 200 34 41 3 86 8 100 11 23 5 24 6 5 13 -11 5 -37 9 -57 9 -45 1 -59 18 -21 26 65 14 163 81 163 112 0 23 -55 14 -116 -18 -75 -40 -94 -57 -94 -84 0 -27 -17 -35 -71 -35 -21 0 -56 -9 -76 -20 -45 -24 -59 -14 -38 26 8 16 15 42 15 57 0 25 -3 28 -26 25 -29 -3 -39 -17 -49 -61 -7 -34 -20 -28 -29 13 -5 27 -10 31 -33 28 -24 -3 -28 -7 -27 -33 0 -16 4 -38 8 -47 10 -22 -9 -23 -101 -7 -55 10 -66 15 -74 38 -13 32 -38 60 -64 72 -11 5 -27 13 -35 17 -75 42 -120 54 -120 31 0 -36 73 -97 129 -109 13 -3 26 -11 29 -17 3 -10 -14 -13 -62 -13 -79 0 -137 28 -129 61 7 25 -31 66 -104 115 -67 45 -88 45 -79 2z"/> <path d="M5522 2138 c7 -20 58 -23 58 -4 0 11 -10 16 -31 16 -20 0 -29 -4 -27 -12z"/> <path d="M5436 2109 c-13 -11 -36 -19 -50 -19 -15 0 -29 -7 -32 -15 -4 -9 -19 -15 -39 -15 -18 0 -38 -7 -45 -15 -7 -9 -29 -15 -54 -15 -23 0 -51 -7 -62 -15 -10 -8 -33 -15 -51 -15 -39 0 -65 -9 -57 -21 8 -14 76 -10 108 6 15 8 39 15 53 15 35 0 126 30 139 46 6 8 27 14 46 14 20 0 41 7 48 15 7 8 25 15 41 15 36 0 39 26 4 33 -16 3 -35 -3 -49 -14z"/> <path d="M5615 2113 c-11 -3 -24 -9 -29 -14 -6 -5 -18 -9 -28 -9 -22 0 -41 -41 -24 -52 6 -4 38 -7 71 -7 72 1 138 32 143 67 3 21 0 22 -55 21 -32 -1 -67 -3 -78 -6z"/> <path d="M3472 2078 c3 -7 17 -15 33 -16 16 -2 38 -10 49 -18 26 -18 79 -19 74 -1 -3 6 -18 13 -36 15 -17 2 -36 10 -42 18 -16 18 -83 19 -78 2z"/> <path d="M5271 1995 c6 -28 93 -55 182 -55 61 0 79 3 84 16 13 35 -20 47 -147 52 -112 4 -122 3 -119 -13z"/> <path d="M4898 1963 c-37 -10 -16 -23 37 -23 49 0 58 -3 83 -32 28 -30 31 -31 133 -36 88 -4 107 -2 118 12 22 26 -55 55 -149 56 -50 0 -82 6 -94 15 -19 14 -89 18 -128 8z"/> <path d="M4724 1875 c-16 -11 -13 -15 30 -34 38 -16 69 -21 137 -21 48 0 90 4 93 9 3 4 -5 17 -17 28 -18 17 -40 21 -124 26 -74 4 -107 2 -119 -8z"/> <path d="M3971 1859 c-52 -31 -28 -43 81 -40 96 2 168 23 168 48 0 10 -26 13 -107 13 -91 0 -113 -3 -142 -21z"/> <path d="M7025 7580 c-3 -5 4 -28 15 -50 34 -66 20 -89 -168 -269 -90 -86 -173 -161 -185 -168 -17 -9 -28 -8 -50 4 -67 34 -77 -16 -14 -69 23 -19 54 -52 67 -72 43 -63 92 -42 55 24 -8 14 -14 30 -15 37 0 6 67 80 150 163 120 122 151 149 156 135 4 -9 0 -67 -10 -129 -9 -61 -16 -165 -17 -231 0 -66 -4 -142 -9 -170 -25 -134 -25 -133 1 -140 21 -5 55 25 244 211 l220 216 42 -6 c52 -7 65 14 26 47 -31 26 -67 62 -107 106 -16 17 -34 30 -40 28 -18 -6 -19 -46 -2 -63 9 -8 16 -30 16 -49 0 -29 -15 -48 -118 -152 -65 -65 -130 -133 -145 -151 -15 -18 -32 -30 -37 -27 -10 6 -5 110 15 360 8 94 16 209 17 256 3 84 3 86 -32 127 -33 40 -62 53 -75 32z"/> <path d="M1607 7308 c-97 -99 -156 -166 -153 -174 7 -18 37 -18 61 0 13 9 26 11 36 6 8 -5 100 -93 203 -195 l188 -187 -6 -41 c-3 -24 -1 -49 4 -57 9 -12 17 -7 48 30 20 24 88 94 151 156 l114 111 -5 66 c-3 46 -10 72 -22 86 -33 37 -46 27 -46 -35 0 -59 -12 -88 -65 -159 -48 -65 -69 -85 -90 -85 -20 0 -185 153 -185 172 0 13 117 128 131 128 6 0 22 -9 36 -20 30 -24 51 -26 59 -5 7 18 -137 165 -161 165 -23 0 -30 -28 -11 -49 24 -27 20 -41 -29 -96 -25 -27 -45 -53 -45 -57 0 -4 -9 -9 -19 -13 -14 -4 -38 14 -100 77 -45 45 -81 88 -81 94 0 7 32 42 71 78 72 66 113 83 125 51 9 -22 64 -20 64 3 0 21 -84 112 -102 111 -7 -1 -84 -73 -171 -161z"/> <path d="M1267 6962 c-10 -10 -17 -25 -17 -34 0 -8 -13 -30 -29 -49 -35 -40 -44 -64 -27 -78 8 -7 20 -5 36 4 59 34 50 40 150 -100 66 -93 198 -263 210 -270 43 -26 -37 -33 -114 -10 -27 8 -70 15 -95 15 -35 0 -51 6 -73 27 -15 15 -28 31 -28 36 0 5 -19 34 -42 65 -56 74 -65 92 -73 136 -9 46 -25 46 -50 -1 -11 -21 -27 -49 -37 -62 -22 -29 -24 -71 -4 -71 8 0 18 5 21 10 3 6 16 10 28 10 26 0 114 -107 100 -121 -5 -5 -37 -4 -73 2 -66 10 -90 26 -90 60 0 10 -4 20 -9 23 -16 10 -41 -5 -41 -24 0 -10 -7 -23 -15 -30 -8 -7 -15 -18 -15 -25 0 -7 -13 -28 -30 -46 -38 -43 -40 -79 -5 -79 14 0 29 8 35 20 17 31 43 41 81 29 19 -6 75 -14 124 -19 109 -10 139 -22 167 -69 11 -20 26 -40 32 -46 7 -5 25 -27 40 -47 24 -33 26 -39 12 -44 -9 -3 -26 -4 -39 0 -23 6 -91 19 -187 37 -30 6 -89 14 -130 19 -41 5 -82 11 -90 13 -8 3 -27 8 -42 11 -23 5 -28 12 -28 36 0 24 -4 30 -20 30 -15 0 -26 -12 -39 -43 -10 -24 -31 -56 -45 -72 -48 -52 -21 -97 34 -56 33 23 58 26 110 11 19 -6 69 -15 110 -20 41 -5 101 -13 133 -19 31 -6 83 -16 115 -22 31 -6 86 -15 122 -20 36 -5 79 -12 97 -15 25 -5 33 -2 42 15 10 17 6 26 -22 58 -18 21 -57 70 -87 108 -29 39 -57 72 -62 73 -4 2 -8 10 -8 18 0 18 32 18 94 -1 27 -8 67 -15 88 -15 21 0 53 -6 71 -14 37 -15 77 -5 77 19 0 11 -100 157 -159 230 -4 6 -25 35 -46 65 -21 30 -71 99 -112 152 -40 53 -73 100 -73 103 0 4 -7 13 -15 21 -8 9 -15 31 -15 50 0 38 -17 45 -43 16z"/> <path d="M7683 6863 c-15 -5 -17 -30 -4 -35 4 -1 11 -13 15 -25 5 -17 -2 -28 -37 -57 -24 -20 -47 -36 -51 -36 -4 0 -34 -20 -66 -45 -32 -25 -61 -45 -65 -45 -4 0 -33 -20 -65 -45 -32 -25 -62 -45 -65 -45 -4 0 -24 -13 -44 -29 -52 -41 -73 -45 -104 -20 -15 11 -35 19 -44 17 -32 -6 -25 -37 16 -85 23 -25 51 -66 63 -90 23 -45 50 -69 68 -58 15 9 12 51 -5 65 -8 7 -15 18 -15 24 0 14 41 56 54 56 5 0 25 12 45 28 20 15 44 32 53 37 9 6 55 37 103 70 47 33 94 65 103 70 9 6 33 22 53 38 41 30 80 35 99 12 7 -8 21 -15 31 -15 31 0 23 41 -16 84 -19 21 -45 60 -59 85 -23 45 -38 55 -63 44z"/> <path d="M7944 6468 c-4 -7 -7 -28 -5 -47 1 -18 -1 -36 -6 -40 -5 -3 -56 -58 -113 -121 -57 -63 -115 -127 -129 -141 -60 -62 -226 -241 -228 -247 -2 -4 1 -13 5 -20 7 -10 65 -10 293 -2 156 5 316 12 355 16 57 4 73 2 83 -10 14 -16 52 -22 64 -9 4 3 -6 30 -23 60 -16 29 -30 61 -30 71 0 23 -19 42 -42 42 -15 0 -18 -8 -18 -45 l0 -45 -74 0 c-41 0 -156 -7 -256 -16 -105 -9 -186 -12 -191 -7 -5 5 28 47 79 100 48 50 128 134 177 188 l90 97 42 -6 c45 -6 64 12 39 37 -20 19 -56 102 -56 126 0 12 -4 21 -9 21 -5 0 -16 3 -24 6 -8 3 -19 -1 -23 -8z"/> <path d="M697 5882 c-9 -10 -17 -32 -17 -49 0 -17 -9 -50 -20 -74 -38 -84 -13 -144 30 -73 24 38 48 43 102 20 18 -8 60 -20 93 -28 66 -16 71 -25 46 -95 -26 -76 -33 -101 -46 -158 -7 -33 -18 -72 -24 -87 -9 -25 -12 -26 -43 -16 -18 6 -48 17 -66 24 -18 8 -45 14 -60 14 -44 0 -72 26 -72 66 0 34 -10 41 -44 28 -11 -4 -16 -19 -16 -51 0 -25 -6 -57 -14 -71 -22 -41 -36 -91 -30 -107 10 -26 38 -16 54 18 14 31 17 32 69 29 29 -2 66 -9 82 -17 15 -8 41 -15 56 -15 15 -1 39 -7 53 -15 14 -8 37 -14 52 -15 15 0 42 -6 60 -14 33 -14 100 -33 150 -43 35 -7 55 -30 60 -68 2 -22 8 -30 22 -30 22 0 44 50 45 100 1 17 8 40 16 52 9 12 17 39 18 60 2 32 -1 38 -17 38 -12 0 -25 -13 -35 -32 -13 -27 -22 -33 -51 -33 -19 0 -55 6 -80 14 -25 8 -66 20 -92 27 -63 15 -69 25 -52 74 25 68 45 138 55 194 15 82 23 93 67 85 20 -4 49 -13 64 -20 15 -8 39 -14 53 -14 41 0 105 -37 105 -61 0 -24 17 -59 29 -59 15 0 41 66 41 104 0 19 9 54 21 76 22 42 20 90 -4 90 -7 0 -23 -18 -37 -40 -30 -48 -43 -54 -80 -35 -16 8 -39 15 -52 15 -13 1 -34 7 -48 15 -14 8 -38 14 -53 15 -16 0 -38 5 -50 12 -12 6 -40 15 -62 19 -22 4 -53 12 -70 17 -16 6 -59 20 -95 31 -63 19 -65 20 -70 57 -6 44 -20 52 -43 26z"/> <path d="M8292 5638 c-7 -7 -12 -24 -12 -38 0 -34 -28 -60 -64 -60 -14 0 -43 -7 -63 -15 -19 -8 -49 -15 -65 -15 -16 0 -45 -7 -65 -15 -19 -8 -49 -15 -65 -15 -17 0 -51 -6 -77 -14 -25 -8 -70 -20 -99 -27 -54 -11 -54 -11 -82 20 -51 55 -81 33 -49 -35 10 -21 18 -49 19 -62 0 -13 4 -31 9 -40 5 -10 14 -49 20 -87 15 -99 33 -159 54 -180 47 -46 157 -75 157 -41 0 27 -12 46 -30 46 -21 0 -90 79 -90 102 0 7 -5 19 -11 25 -6 6 -15 29 -19 50 -5 21 -11 48 -15 60 -9 30 27 52 103 63 33 4 69 13 80 19 12 6 31 11 44 11 21 0 26 -8 42 -73 23 -90 20 -108 -22 -126 -32 -15 -39 -34 -22 -61 8 -13 13 -13 39 3 16 9 40 17 53 17 12 1 46 7 73 14 38 10 50 18 50 32 0 14 -8 20 -32 22 -17 2 -37 10 -45 19 -17 21 -40 99 -41 143 -2 35 -2 35 48 41 28 3 61 11 75 16 15 6 44 13 65 14 35 4 41 1 53 -24 17 -35 35 -154 27 -184 -3 -14 -16 -24 -35 -28 -23 -5 -30 -12 -30 -30 0 -33 11 -37 67 -24 90 21 93 24 86 66 -3 21 -10 46 -15 56 -5 10 -13 39 -17 65 -5 26 -13 67 -19 92 -6 25 -16 72 -23 105 -18 100 -30 120 -57 93z"/> <path d="M493 4981 c-22 -19 -23 -24 -23 -228 0 -114 -5 -241 -10 -280 -5 -40 -7 -80 -4 -88 3 -8 22 -17 42 -20 21 -3 45 -10 54 -16 10 -5 29 -9 43 -9 21 0 25 5 25 29 0 24 -5 29 -32 35 -53 10 -58 20 -58 115 0 106 5 116 56 106 22 -4 144 -11 273 -14 l233 -6 16 -40 c18 -45 29 -56 49 -48 12 5 13 20 8 75 -5 45 -3 85 5 114 10 35 10 47 0 59 -19 23 -28 18 -48 -22 l-17 -38 -200 2 c-110 1 -236 6 -280 10 l-80 8 4 85 c5 111 12 130 51 130 30 0 37 11 24 44 -9 24 -102 21 -131 -3z"/> <path d="M8420 4911 c0 -57 -4 -57 -297 -64 -152 -3 -275 -1 -285 4 -9 5 -18 19 -20 31 -2 17 -11 24 -32 26 l-29 4 8 -54 c10 -63 11 -107 5 -168 -5 -43 -4 -45 22 -48 23 -3 27 1 33 37 4 22 12 45 19 51 8 5 62 14 122 19 123 10 134 6 134 -57 0 -27 -8 -42 -35 -68 -20 -18 -46 -39 -60 -46 -50 -27 -161 -107 -188 -136 -25 -26 -29 -38 -30 -98 -2 -57 1 -69 15 -72 11 -2 22 10 36 41 17 38 95 117 116 117 4 0 12 5 19 10 33 28 147 110 152 110 4 0 25 -20 48 -45 54 -57 113 -76 179 -55 54 17 82 42 108 95 19 39 20 58 18 216 l-4 174 -27 3 c-24 3 -27 0 -27 -27z m0 -214 c0 -55 -4 -70 -29 -104 -55 -76 -162 -79 -217 -7 -20 25 -24 43 -24 96 0 35 3 68 7 71 3 4 64 7 135 7 l128 0 0 -63z"/> <path d="M1116 4302 c-2 -4 -7 -24 -11 -44 -7 -36 -19 -49 -250 -267 -2 -2 -25 14 -49 36 -74 65 -178 68 -239 7 -61 -62 -69 -159 -26 -325 5 -20 9 -56 9 -80 0 -24 4 -50 9 -58 13 -21 40 -6 46 26 4 15 10 35 14 43 11 20 74 38 137 39 28 1 73 8 100 16 27 8 67 15 89 15 22 0 65 7 95 15 30 8 74 15 97 15 36 0 44 -4 59 -30 22 -36 39 -44 54 -25 9 11 7 30 -10 86 -15 47 -21 85 -17 111 7 50 0 68 -24 68 -21 0 -39 -28 -39 -64 0 -45 -10 -56 -52 -56 -22 0 -64 -7 -94 -16 -30 -8 -66 -14 -81 -12 -25 3 -29 9 -37 51 -9 54 -10 53 104 146 94 76 157 146 164 182 8 40 8 93 0 113 -6 16 -39 22 -48 8z m-310 -345 c12 -12 29 -51 38 -86 23 -82 16 -89 -89 -97 -44 -4 -95 -13 -114 -21 -41 -16 -51 -9 -61 47 -15 82 29 173 89 183 52 9 115 -3 137 -26z"/> <path d="M7818 4163 c-52 -14 -105 -175 -92 -282 17 -152 178 -249 293 -177 53 34 96 93 135 186 4 8 12 24 19 35 53 87 76 101 137 85 31 -8 42 -19 59 -53 12 -24 21 -55 21 -70 0 -79 -75 -177 -136 -177 -35 0 -57 -20 -52 -47 3 -15 14 -18 73 -18 95 0 115 8 115 43 0 15 6 36 13 47 8 11 22 52 32 91 17 67 17 72 0 125 -40 124 -168 185 -263 125 -45 -29 -92 -83 -108 -126 -3 -8 -10 -22 -15 -30 -5 -8 -12 -22 -15 -30 -3 -8 -10 -22 -15 -30 -5 -8 -13 -24 -18 -35 -23 -52 -76 -73 -135 -53 -62 21 -81 55 -81 146 1 109 41 170 125 186 80 16 115 44 74 60 -17 7 -140 6 -166 -1z"/> <path d="M7636 3540 c-4 -27 -11 -52 -16 -55 -6 -3 -10 -16 -10 -27 0 -12 -6 -29 -14 -37 -23 -26 -31 -70 -13 -77 23 -8 54 12 61 41 5 19 13 25 34 25 16 0 37 -7 48 -15 10 -8 30 -15 44 -15 14 0 34 -7 44 -15 11 -8 31 -15 45 -15 14 0 35 -7 45 -15 11 -8 31 -15 46 -15 14 0 34 -6 45 -14 11 -7 34 -16 50 -18 31 -6 77 -21 133 -44 29 -12 32 -18 32 -54 0 -41 8 -47 41 -30 13 8 19 21 19 47 0 20 14 64 31 99 17 35 28 68 24 74 -12 19 -38 10 -65 -21 -30 -36 -19 -38 -210 31 -19 7 -48 15 -65 18 -16 2 -39 11 -50 18 -11 8 -31 14 -45 14 -15 0 -35 7 -46 15 -10 8 -29 15 -42 15 -12 0 -41 9 -62 20 -37 19 -40 24 -40 60 0 37 -2 40 -29 40 -27 0 -29 -3 -35 -50z"/> <path d="M960 3483 c-19 -8 -42 -19 -50 -24 -8 -5 -24 -13 -36 -18 -32 -14 -134 -132 -134 -155 -1 -12 -7 -32 -15 -46 -30 -52 -15 -171 33 -270 24 -50 132 -153 178 -169 21 -8 77 -16 123 -18 81 -4 126 5 181 38 8 5 25 13 38 19 31 14 105 90 126 131 56 106 51 219 -16 356 -22 44 -95 113 -152 142 -53 28 -67 31 -150 30 -59 0 -103 -6 -126 -16z m248 -68 c42 -9 115 -80 141 -138 25 -56 29 -163 6 -193 -8 -10 -15 -27 -15 -36 0 -27 -109 -132 -160 -155 -82 -36 -137 -45 -199 -31 -105 23 -163 82 -192 195 -10 43 -10 62 1 110 7 32 19 65 27 74 7 8 13 20 13 25 0 16 98 102 138 121 82 40 147 47 240 28z"/> <path d="M7451 3069 c-12 -13 -21 -29 -21 -36 0 -16 -40 -94 -57 -111 -27 -27 -35 -53 -22 -68 17 -21 30 -17 60 18 l27 33 43 -23 c24 -13 71 -39 104 -57 33 -19 67 -37 75 -40 8 -4 22 -11 30 -16 8 -5 22 -12 30 -15 8 -3 22 -9 30 -14 28 -16 155 -77 173 -83 19 -7 22 -28 6 -44 -12 -12 -24 -33 -59 -101 -26 -51 -42 -60 -76 -41 -22 11 -27 11 -35 -1 -12 -20 -8 -41 11 -51 51 -26 93 -39 108 -34 10 3 55 81 105 183 49 97 97 191 107 207 34 55 70 127 70 138 0 17 -97 87 -121 87 -32 0 -36 -30 -6 -52 36 -26 35 -65 -3 -133 -16 -30 -30 -61 -30 -69 0 -27 -19 -27 -60 -1 -23 14 -51 30 -63 35 -12 6 -29 14 -37 18 -43 25 -59 33 -105 57 -27 14 -58 30 -67 35 -39 22 -55 30 -104 54 -66 33 -78 47 -70 90 9 47 -14 66 -43 35z"/> <path d="M1605 2788 c-11 -6 -24 -17 -30 -23 -5 -7 -30 -25 -55 -42 -100 -66 -145 -99 -153 -110 -4 -7 -12 -13 -18 -13 -5 0 -58 -36 -117 -81 -85 -64 -112 -79 -132 -75 -61 12 -65 11 -68 -9 -2 -12 10 -35 28 -55 17 -19 40 -54 52 -77 16 -32 27 -43 45 -43 31 0 39 23 19 52 -25 36 -19 63 22 97 71 59 304 231 313 231 13 0 11 -46 -5 -99 -20 -64 -36 -128 -45 -181 -5 -25 -14 -67 -20 -95 -30 -122 -34 -143 -40 -185 -4 -25 -13 -55 -19 -67 -16 -30 -15 -68 3 -83 8 -7 15 -18 15 -24 1 -21 40 -58 55 -52 13 5 14 17 9 70 -7 65 -7 65 30 101 20 19 39 35 42 35 3 0 11 6 19 13 7 6 43 32 79 57 37 25 104 73 151 108 90 66 120 75 150 42 16 -18 46 -20 64 -4 2 2 -17 30 -42 63 -26 33 -47 64 -47 70 0 6 -4 11 -9 11 -5 0 -12 11 -15 25 -7 28 -36 34 -56 10 -10 -13 -10 -19 4 -33 33 -38 20 -53 -149 -179 -91 -68 -172 -123 -180 -123 -17 0 -20 21 -5 36 5 5 14 30 19 54 12 53 27 115 47 186 8 28 14 63 14 78 0 15 7 43 15 63 8 19 15 49 15 65 0 16 6 43 13 61 19 44 29 101 21 121 -7 19 -12 19 -39 4z"/> <path d="M7093 2490 c-13 -10 -23 -21 -23 -25 0 -12 -62 -88 -94 -116 -20 -17 -27 -31 -23 -42 9 -23 39 -21 67 3 29 25 28 25 70 -11 19 -16 62 -51 95 -77 74 -57 94 -81 95 -108 0 -12 7 -35 15 -50 8 -16 15 -36 15 -44 0 -8 12 -46 27 -85 14 -38 27 -94 28 -123 1 -28 4 -55 8 -58 12 -13 48 9 63 38 9 18 32 46 51 64 40 38 42 71 3 66 -14 -1 -30 -9 -37 -18 -16 -22 -49 -3 -56 33 -2 16 -15 53 -27 83 -45 112 -41 135 17 114 21 -7 69 -13 106 -14 87 0 107 -10 107 -55 0 -50 29 -46 63 8 16 24 45 61 67 82 21 21 36 44 33 51 -7 19 -43 17 -65 -3 -17 -15 -27 -16 -89 -5 -38 7 -87 12 -108 12 -22 0 -74 7 -116 15 -61 11 -85 21 -114 47 -45 40 -130 111 -144 119 -9 7 -6 38 7 69 4 9 1 23 -6 32 -12 16 -15 16 -35 -2z"/> <path d="M6573 1507 c-41 -47 -52 -52 -71 -33 -82 79 -126 73 -70 -10 15 -23 28 -46 28 -52 0 -5 -21 -26 -46 -47 -58 -48 -47 -68 22 -42 51 19 64 16 64 -15 0 -23 37 -88 50 -88 5 0 10 26 12 58 l3 57 63 3 c43 2 62 7 62 16 0 17 -33 46 -53 46 -9 0 -23 10 -31 22 -13 18 -13 24 -2 37 18 22 26 48 20 66 -9 22 -19 19 -51 -18z"/> <path d="M2360 1498 c0 -13 7 -32 15 -42 26 -34 19 -64 -17 -79 -38 -16 -62 -42 -53 -56 3 -6 24 -8 50 -4 55 7 69 -3 84 -62 18 -73 31 -68 58 20 8 28 11 30 62 30 68 0 75 16 22 46 -48 26 -53 54 -20 99 21 27 21 60 0 60 -5 0 -22 -10 -38 -23 -64 -51 -57 -51 -103 -7 -48 46 -60 49 -60 18z"/> <path d="M5261 1250 c-29 -33 -59 -60 -66 -60 -16 0 -31 -43 -20 -59 9 -16 19 -14 45 9 13 11 29 20 36 20 16 0 44 -51 44 -80 0 -12 5 -31 12 -43 6 -12 15 -35 19 -52 8 -33 25 -83 44 -130 57 -138 62 -205 16 -205 -28 0 -48 -38 -29 -56 13 -14 35 -6 130 42 14 8 37 14 51 14 42 0 99 29 95 48 -3 14 -15 17 -62 17 l-58 0 -14 40 c-9 22 -19 54 -24 70 -13 48 -32 98 -46 127 -8 14 -14 37 -14 50 0 12 -7 32 -15 42 -8 11 -15 28 -15 38 0 9 -6 32 -14 50 -18 43 -33 94 -41 141 -3 20 -10 37 -14 37 -4 0 -31 -27 -60 -60z"/> <path d="M3685 1239 c-28 -15 -50 -20 -77 -16 -55 7 -78 -1 -78 -29 0 -25 6 -27 54 -24 16 1 32 -4 36 -10 9 -15 2 -45 -41 -172 -6 -18 -14 -51 -18 -73 -4 -22 -13 -50 -19 -62 -7 -12 -12 -34 -12 -50 -1 -15 -7 -39 -15 -53 -8 -14 -14 -35 -15 -46 0 -32 -26 -48 -75 -45 -43 2 -68 -19 -42 -36 17 -11 98 -32 125 -33 12 0 39 -9 59 -20 38 -20 69 -25 97 -14 26 10 18 23 -29 45 -43 20 -45 23 -45 66 0 24 5 54 12 66 6 12 15 40 19 62 4 22 12 55 18 73 6 17 16 47 22 65 6 17 14 50 18 72 4 22 13 50 19 62 7 12 12 30 12 40 0 10 10 41 21 69 20 48 21 84 2 84 -5 0 -26 -9 -48 -21z"/> <path d="M4883 1210 c-10 -12 -30 -20 -48 -20 -44 0 -166 -27 -179 -40 -11 -11 -25 -256 -17 -293 3 -14 9 -17 25 -11 11 4 51 9 88 11 58 4 72 2 95 -17 48 -37 65 -129 39 -205 -27 -79 -109 -119 -218 -108 -63 6 -72 -3 -42 -42 22 -29 142 -28 205 2 81 39 122 88 146 173 22 82 10 156 -35 217 -44 60 -83 76 -167 71 -49 -3 -75 -1 -78 6 -2 6 -1 35 1 64 5 64 14 70 123 79 75 6 81 8 90 32 5 14 15 37 23 51 7 14 11 31 9 38 -7 19 -41 14 -60 -8z"/> <path d="M4150 1164 c-8 -4 -36 -29 -62 -55 -47 -48 -48 -51 -48 -112 0 -56 3 -66 30 -95 36 -40 38 -59 8 -71 -50 -19 -98 -102 -98 -170 0 -60 32 -123 83 -163 39 -31 46 -33 122 -33 72 0 84 3 124 30 116 78 124 253 15 332 l-27 20 23 19 c67 54 80 76 80 136 0 64 -18 103 -64 139 -22 17 -44 23 -100 25 -39 2 -78 1 -86 -2z m126 -63 c39 -24 68 -83 59 -119 -4 -15 -18 -42 -31 -59 -20 -26 -32 -33 -60 -33 -41 0 -97 38 -120 81 -49 96 58 187 152 130z m-89 -291 c21 -11 59 -40 83 -65 43 -44 45 -48 45 -105 -1 -44 -6 -64 -20 -80 -44 -48 -103 -62 -153 -36 -40 20 -59 45 -77 100 -22 64 -9 115 43 169 20 20 37 37 39 37 1 0 20 -9 40 -20z"/> </g> </svg> 