<?xml version="1.0" standalone="no"?>
<!DOCTYPE svg PUBLIC "-//W3C//DTD SVG 20010904//EN"
 "http://www.w3.org/TR/2001/REC-SVG-20010904/DTD/svg10.dtd">
<svg version="1.0" xmlns="http://www.w3.org/2000/svg"
 width="28.0" height="28.0" viewBox="0 0 300.000000 330.000000"
 preserveAspectRatio="xMidYMid meet">
<metadata>
Created by potrace 1.10, written by Peter Selinger 2001-2011
</metadata>
<g transform="translate(0.000000,299.000000) scale(0.100000,-0.100000)"
fill="#204198" stroke="none">
<path d="M1345 2983 c-261 -34 -519 -132 -719 -274 -109 -78 -297 -271 -368
-379 -464 -704 -276 -1622 427 -2080 439 -285 996 -318 1471 -85 407 199 709
581 803 1015 72 337 34 657 -114 965 -72 150 -157 268 -289 401 -244 244 -506
375 -861 430 -82 12 -277 17 -350 7z m465 -56 c137 -33 215 -60 326 -113 390
-189 679 -543 784 -959 201 -796 -291 -1591 -1104 -1783 -100 -24 -131 -26
-311 -27 -174 0 -214 3 -304 23 -329 74 -618 245 -821 486 -178 212 -282 441
-330 721 -19 110 -21 151 -16 270 11 237 52 401 156 610 211 426 637 728 1120
795 36 5 139 7 230 5 131 -3 187 -9 270 -28z"/>
<path d="M1272 2743 c12 -83 17 -87 15 -14 -1 36 -7 66 -13 68 -8 3 -9 -13 -2
-54z"/>
<path d="M1305 2760 c3 -5 12 -10 20 -10 8 0 17 5 20 10 4 6 -5 10 -20 10 -15
0 -24 -4 -20 -10z"/>
<path d="M1844 2755 c-4 -8 -17 -15 -31 -15 -22 0 -24 -3 -19 -25 5 -19 1 -27
-21 -40 -27 -15 -27 -16 -3 -9 49 12 90 47 90 77 0 30 -7 35 -16 12z"/>
<path d="M1174 2731 c15 -16 16 -24 7 -35 -9 -10 -9 -16 -1 -21 8 -5 6 -13 -6
-26 -16 -18 -16 -19 3 -19 11 0 26 6 32 14 17 20 -10 100 -35 105 -18 3 -18 3
0 -18z"/>
<path d="M1310 2690 c0 -7 8 -10 19 -7 11 3 29 -2 41 -10 22 -16 41 -10 23 8
-16 16 -83 24 -83 9z"/>
<path d="M1858 2662 c12 -16 22 -38 23 -49 0 -11 3 -13 6 -5 9 22 -6 61 -29
73 l-21 11 21 -30z"/>
<path d="M650 2600 c20 -28 20 -31 4 -55 -14 -22 -14 -25 -1 -25 8 0 17 5 19
12 2 6 10 8 17 4 7 -5 10 -15 7 -23 -4 -9 -2 -11 6 -7 8 5 9 0 5 -15 -4 -18
-2 -21 10 -17 13 5 14 1 9 -26 -3 -18 -11 -35 -18 -39 -7 -4 -3 -11 11 -18 11
-7 21 -19 22 -29 1 -9 6 0 11 21 6 20 13 37 18 37 15 0 32 -30 26 -45 -4 -10
1 -15 16 -15 22 0 24 -3 -30 69 -27 35 -23 39 47 43 27 2 46 8 49 17 3 10 0
12 -14 7 -11 -5 -36 -10 -56 -13 -35 -5 -38 -4 -38 18 0 34 -11 69 -21 69 -5
0 -4 -12 1 -26 13 -32 13 -64 1 -64 -5 0 -23 19 -40 42 -23 31 -28 45 -20 55
9 10 8 13 -5 13 -9 0 -21 9 -28 20 -7 11 -17 20 -21 20 -5 0 1 -13 13 -30z
m96 -197 c-10 -26 -18 -8 -9 23 5 21 8 24 11 11 2 -10 1 -25 -2 -34z"/>
<path d="M2315 2550 c-19 -37 -39 -41 -25 -5 5 14 7 25 5 25 -3 0 -10 -12 -15
-26 -6 -14 -14 -22 -20 -19 -5 3 -7 0 -5 -7 3 -7 40 -24 83 -38 61 -20 71 -25
49 -28 -23 -3 -26 -6 -16 -18 6 -8 18 -14 26 -14 20 0 27 28 12 47 -11 13 -11
17 -2 20 7 3 23 13 35 22 l22 18 -25 13 c-21 12 -22 11 -12 -2 15 -17 7 -28
-19 -28 -10 0 -18 -4 -18 -10 0 -5 -7 -10 -15 -10 -18 0 -18 1 0 36 23 45 20
60 -10 40 -30 -20 -36 -20 -29 -1 11 27 -5 16 -21 -15z m52 -22 c-2 -7 -10
-12 -17 -10 -7 2 -17 -3 -21 -10 -11 -17 -21 -5 -13 16 3 9 17 16 31 16 15 0
23 -5 20 -12z"/>
<path d="M1300 2526 c-520 -109 -875 -562 -847 -1080 21 -378 238 -711 572
-876 421 -208 906 -126 1225 206 175 183 262 370 292 626 19 169 -16 372 -91
534 -102 217 -271 389 -486 495 -163 80 -251 101 -440 105 -109 2 -181 -1
-225 -10z m465 -35 c118 -32 286 -118 384 -197 175 -141 304 -351 357 -579 29
-125 25 -339 -10 -470 -160 -610 -826 -935 -1407 -685 -361 154 -599 500 -617
892 -5 133 7 232 45 353 109 347 397 612 755 695 117 27 377 22 493 -9z"/>
<path d="M1300 2441 c-386 -84 -674 -376 -754 -764 -16 -79 -21 -260 -8 -332
l7 -40 35 50 c71 104 513 730 521 740 6 6 47 -28 107 -88 53 -53 100 -97 104
-97 4 0 51 74 104 164 54 91 101 163 106 160 4 -3 49 -75 99 -160 50 -85 95
-156 99 -159 4 -2 53 39 109 92 56 52 103 94 105 92 1 -2 119 -177 262 -389
l259 -385 7 45 c19 126 1 300 -45 435 -68 199 -203 375 -380 494 -71 48 -201
106 -292 131 -115 32 -328 37 -445 11z"/>
<path d="M862 1304 c-84 -25 -176 -66 -243 -111 l-38 -25 17 -36 c9 -21 17
-38 17 -39 1 -1 36 16 78 38 147 77 274 109 432 109 157 0 224 -17 460 -115
177 -73 261 -89 439 -82 142 5 298 38 352 72 18 12 60 102 51 111 -1 1 -47
-12 -102 -31 -144 -48 -227 -58 -407 -52 -171 6 -195 11 -393 95 -182 77 -255
92 -432 91 -127 0 -160 -4 -231 -25z"/>
<path d="M971 1155 c-96 -21 -158 -43 -243 -87 -84 -44 -83 -40 -41 -105 l14
-21 92 43 c116 55 188 74 307 81 110 7 242 -12 341 -49 58 -22 64 -27 77 -66
8 -23 12 -44 10 -46 -2 -2 -42 11 -89 30 -138 54 -234 70 -355 57 -103 -12
-236 -52 -303 -93 l-34 -20 34 -35 c18 -19 37 -34 42 -34 5 0 53 16 106 37 87
33 108 37 216 41 141 5 227 -10 342 -60 73 -31 78 -35 89 -75 7 -24 9 -43 5
-43 -4 0 -44 16 -90 36 -133 57 -230 78 -337 71 -87 -6 -247 -47 -259 -66 -16
-26 227 -156 360 -193 67 -18 107 -22 240 -22 176 0 264 16 389 73 l61 27 -75
7 c-41 4 -103 12 -137 18 -60 11 -63 12 -73 47 -5 20 -8 38 -6 40 2 2 39 -4
81 -13 43 -9 135 -18 204 -22 l126 -6 58 48 c31 26 57 48 57 49 0 1 -73 0
-162 -2 -137 -3 -178 0 -256 17 -126 28 -142 37 -157 89 -7 23 -11 42 -8 42 3
0 38 -12 77 -26 151 -55 320 -68 492 -39 80 14 92 19 119 49 17 19 38 47 47
64 l17 29 -92 -25 c-81 -22 -112 -25 -267 -26 -209 -1 -238 6 -472 98 -90 36
-190 72 -223 80 -73 20 -236 20 -324 1z"/>
<path d="M2210 2525 c-7 -9 -8 -15 -2 -15 5 0 12 7 16 15 3 8 4 15 2 15 -2 0
-9 -7 -16 -15z"/>
<path d="M676 2469 c-6 -20 -12 -25 -27 -22 -30 8 -22 -5 14 -23 25 -14 29
-14 20 -2 -9 10 -9 18 -2 25 6 6 9 19 7 29 -4 16 -6 14 -12 -7z"/>
<path d="M2260 2461 c0 -11 6 -21 13 -24 9 -4 9 -7 0 -17 -10 -11 -18 -11 -38
-2 -15 7 -25 8 -25 2 0 -5 11 -12 25 -16 25 -6 25 -7 9 -25 -9 -11 -23 -19
-31 -19 -7 0 -13 -4 -13 -10 0 -17 17 -11 48 15 38 32 50 31 63 -2 7 -17 13
-23 16 -15 3 7 -4 24 -16 36 -25 27 -25 30 -6 50 14 14 13 17 -15 31 -28 15
-30 14 -30 -4z"/>
<path d="M254 2002 c3 -5 23 -15 46 -22 23 -7 43 -17 46 -21 2 -4 -21 -13 -51
-20 -31 -7 -63 -18 -72 -24 -14 -10 -6 -16 50 -34 37 -13 73 -21 80 -18 6 2
-12 12 -40 21 -29 10 -53 21 -53 25 0 4 28 14 62 22 34 8 63 19 65 25 2 7 -23
21 -58 33 -68 23 -83 25 -75 13z"/>
<path d="M2622 1968 c7 -4 22 -8 34 -8 32 0 35 -10 14 -40 -31 -44 -23 -58 9
-15 15 21 42 45 59 54 31 16 31 16 -49 17 -44 0 -74 -3 -67 -8z"/>
<path d="M218 1828 c-33 -11 -52 -58 -37 -92 21 -46 94 -61 129 -26 23 23 27
82 6 99 -23 20 -69 28 -98 19z m62 -18 c55 -30 40 -100 -22 -100 -58 0 -87 52
-51 92 18 20 45 23 73 8z"/>
<path d="M2677 1753 c3 -21 10 -47 14 -58 7 -18 8 -17 8 6 1 24 6 27 47 34 76
11 99 26 31 20 -32 -3 -63 -6 -70 -8 -6 -1 -13 8 -15 21 -2 12 -7 22 -12 22
-5 0 -6 -17 -3 -37z"/>
<path d="M188 1629 c30 -9 33 -13 30 -42 -3 -28 -7 -32 -35 -35 -49 -5 -40
-23 10 -22 23 1 51 -1 63 -5 28 -9 45 14 47 67 l2 43 -75 2 c-63 1 -70 0 -42
-8z m102 -33 c0 -37 -10 -56 -31 -56 -15 0 -19 7 -19 40 0 36 3 40 25 40 20 0
25 -5 25 -24z"/>
<path d="M2718 1583 c-10 -2 -18 -8 -18 -11 0 -9 136 1 146 11 8 7 -99 8 -128
0z"/>
<path d="M291 1469 c-1 -29 -27 -39 -97 -39 -19 0 -34 -5 -34 -11 0 -7 21 -8
65 -4 l65 7 0 -26 c0 -14 5 -26 10 -26 11 0 11 50 0 95 -7 29 -8 29 -9 4z"/>
<path d="M2715 1446 c-22 -16 -25 -74 -4 -87 30 -19 48 -9 68 36 21 47 29 53
49 33 18 -18 14 -45 -10 -68 -18 -16 -19 -20 -5 -20 37 0 52 91 18 110 -29 15
-48 3 -65 -41 -12 -29 -21 -39 -34 -37 -26 5 -27 43 -2 61 12 8 17 17 12 21
-5 3 -17 -1 -27 -8z"/>
<path d="M243 1326 c-73 -15 -91 -26 -41 -26 29 0 37 -5 42 -22 11 -44 7 -54
-31 -65 -34 -9 -35 -11 -11 -12 39 -2 128 19 128 30 0 5 -12 6 -26 3 -30 -8
-44 7 -44 48 0 21 6 29 25 34 14 3 25 10 25 15 0 5 -1 9 -2 8 -2 -1 -31 -6
-65 -13z"/>
<path d="M2688 1237 c-14 -11 -38 -67 -38 -88 0 -9 99 -39 127 -39 14 1 12 4
-9 16 -48 25 -26 87 26 77 16 -3 26 -1 26 6 0 6 -14 11 -30 11 -17 0 -44 7
-59 15 -22 11 -32 12 -43 2z m40 -42 c3 -40 -9 -56 -36 -48 -25 6 -27 20 -10
58 15 34 42 28 46 -10z"/>
<path d="M265 1151 c-54 -20 -59 -33 -36 -95 15 -39 24 -28 10 13 -23 66 26
88 55 24 15 -37 16 -37 12 -7 -3 16 -6 37 -8 44 -2 8 6 16 18 18 16 2 24 -6
37 -39 22 -57 31 -45 11 14 -18 53 -24 55 -99 28z"/>
<path d="M2590 1001 c-11 -23 -18 -46 -14 -52 6 -10 109 -59 124 -59 4 0 10 6
13 13 3 6 12 29 21 50 22 50 4 48 -19 -3 -15 -33 -22 -39 -39 -34 -31 9 -31
11 -13 49 19 40 20 45 9 45 -4 0 -14 -16 -21 -35 -12 -35 -25 -42 -49 -26 -11
7 -11 15 2 46 22 52 12 56 -14 6z"/>
<path d="M265 980 c-3 -6 5 -10 19 -10 34 0 64 -51 41 -70 -8 -7 -15 -17 -15
-23 0 -6 25 13 55 43 30 30 55 58 55 62 0 12 -148 10 -155 -2z m114 -26 c-22
-23 -24 -24 -36 -8 -16 21 -2 34 36 34 l24 0 -24 -26z"/>
<path d="M437 878 c-16 -8 -17 -18 -11 -64 6 -50 5 -54 -14 -54 -30 0 -45 24
-37 62 6 31 5 32 -10 14 -29 -38 13 -104 59 -92 29 7 34 34 16 82 -8 19 -8 30
0 38 17 17 44 -7 51 -45 4 -28 7 -31 14 -16 17 40 -33 95 -68 75z"/>
<path d="M2519 843 c5 -10 21 -33 35 -52 14 -19 26 -38 26 -42 0 -4 -21 -1
-47 7 -25 8 -56 14 -67 13 -12 -1 13 -12 54 -25 43 -14 78 -20 83 -15 9 9 -70
131 -85 131 -5 0 -4 -8 1 -17z"/>
<path d="M546 759 c19 -21 19 -21 -31 -64 -63 -55 -54 -69 11 -16 45 38 49 39
66 24 33 -29 27 -9 -8 35 -20 23 -40 42 -46 42 -6 0 -3 -9 8 -21z"/>
<path d="M2380 682 c0 -14 100 -105 107 -98 8 7 -40 59 -79 88 -16 10 -28 15
-28 10z"/>
<path d="M609 633 c-68 -77 -66 -69 -29 -108 19 -19 38 -35 44 -35 5 0 -5 16
-24 35 -28 29 -31 37 -20 50 17 20 23 19 59 -11 38 -32 41 -20 4 18 -25 27
-26 29 -10 45 16 16 18 15 45 -10 41 -40 52 -33 12 8 -19 19 -39 35 -45 35 -6
0 -22 -12 -36 -27z"/>
<path d="M2291 600 c0 -8 13 -30 29 -49 16 -19 28 -37 26 -39 -2 -2 -32 4 -65
14 -34 9 -64 14 -68 11 -5 -6 7 -23 69 -101 9 -11 19 -18 22 -15 4 3 -9 26
-28 50 -19 24 -33 45 -32 47 2 2 31 -6 65 -18 34 -11 66 -18 72 -15 5 4 -5 25
-23 47 -18 22 -41 50 -50 62 -13 15 -18 17 -17 6z"/>
<path d="M711 500 c-23 -33 -38 -60 -32 -60 5 0 18 11 28 24 l18 25 30 -24 30
-24 -18 -31 c-10 -16 -14 -30 -10 -30 15 0 33 23 33 41 0 9 11 24 25 33 14 9
25 24 25 34 0 17 -60 72 -78 72 -5 0 -28 -27 -51 -60z m89 16 c22 -24 22 -56
0 -56 -17 0 -60 31 -60 44 0 13 20 36 30 36 4 0 17 -11 30 -24z"/>
<path d="M2110 467 c0 -9 9 -34 20 -54 24 -45 25 -66 5 -83 -22 -19 -42 -6
-77 51 -39 62 -51 47 -14 -16 33 -55 54 -68 86 -52 40 20 45 40 27 89 -10 25
-24 53 -32 64 -13 17 -14 17 -15 1z"/>
<path d="M860 418 c-27 -49 -37 -78 -25 -78 2 0 14 18 25 40 26 52 40 51 40
-2 0 -51 9 -88 21 -88 10 0 72 120 66 127 -3 2 -18 -17 -33 -44 -16 -26 -30
-41 -31 -33 -1 8 -5 41 -8 73 -4 31 -11 57 -16 57 -5 0 -22 -24 -39 -52z"/>
<path d="M1265 321 c-3 -6 -16 -11 -28 -11 -21 -1 -21 -1 -3 -15 15 -12 17
-22 11 -67 -10 -72 4 -54 21 28 14 64 13 87 -1 65z"/>
<path d="M1708 319 c-10 -5 -18 -20 -17 -32 l0 -22 11 23 c14 28 58 31 58 3 0
-10 -8 -22 -17 -26 -15 -7 -14 -9 7 -14 29 -8 34 -38 8 -54 -13 -9 -22 -7 -39
8 -21 20 -21 20 -18 0 6 -31 62 -33 83 -4 14 20 14 26 1 45 -8 13 -12 29 -9
37 6 16 -21 47 -39 47 -7 0 -20 -5 -29 -11z"/>
<path d="M1382 298 c-21 -21 -15 -68 11 -77 12 -5 28 -6 35 -4 20 8 14 -25 -7
-37 -15 -7 -23 -6 -35 5 -21 21 -29 19 -16 -5 14 -27 55 -26 74 2 23 33 21
105 -3 118 -26 13 -44 13 -59 -2z m56 -37 c-2 -20 -8 -26 -28 -26 -30 0 -38
26 -15 48 22 23 47 10 43 -22z"/>
<path d="M1546 294 c-9 -8 -16 -20 -16 -25 0 -15 17 -10 24 6 7 20 45 19 53
-2 4 -11 -5 -26 -30 -47 -50 -42 -49 -66 2 -66 22 0 43 5 46 10 4 6 -10 10
-36 10 l-42 0 41 38 c23 22 42 44 42 50 0 17 -30 42 -50 42 -10 0 -26 -7 -34
-16z"/>
</g>
</svg>
