 <svg  version="1.0" xmlns="http://www.w3.org/2000/svg"  width="28.0" height="28.0" viewBox="0 2 300.000000 300.000000"  preserveAspectRatio="xMidYMid meet">  <g transform="translate(0.000000,300.000000) scale(0.100000,-0.100000)" fill="#d50032" stroke="none"> <path d="M1375 2979 c-261 -20 -549 -128 -761 -287 -479 -359 -698 -964 -558 -1542 98 -409 368 -757 744 -962 238 -130 555 -195 824 -169 454 44 826 258 1091 626 63 88 162 282 196 385 101 308 97 659 -11 965 -226 636 -847 1037 -1525 984z m1030 -1030 c87 -16 159 -52 221 -111 53 -50 99 -119 92 -138 -2 -5 -57 -36 -123 -68 l-120 -59 -25 51 c-33 67 -76 96 -144 96 -75 0 -115 -25 -151 -95 -28 -55 -30 -66 -30 -169 0 -101 2 -116 28 -168 22 -45 36 -61 71 -77 79 -39 168 -19 213 47 12 18 23 37 25 43 3 8 253 -73 266 -86 10 -9 -46 -95 -92 -139 -86 -85 -195 -126 -339 -126 -233 0 -411 136 -462 351 -19 82 -19 229 0 302 65 252 302 396 570 346z m-1775 -334 c0 -349 3 -375 51 -409 30 -20 139 -22 178 -2 54 28 56 42 59 404 l3 332 145 0 145 0 -3 -372 -3 -373 -26 -55 c-33 -70 -69 -106 -142 -141 -80 -37 -178 -52 -306 -46 -241 11 -361 97 -390 277 -6 36 -11 210 -11 388 l0 322 150 0 150 0 0 -325z m1050 -160 l0 -485 -150 0 -150 0 0 485 0 485 150 0 150 0 0 -485z"/> </g> </svg> 